<svg xmlns="http://www.w3.org/2000/svg" version="1.1" xmlns:xlink="http://www.w3.org/1999/xlink" width="512" height="512" x="0" y="0" viewBox="0 0 256 256" style="enable-background:new 0 0 512 512" xml:space="preserve" class=""><g><circle cx="229.986" cy="185.646" r="23.514" fill="#d9b485" transform="rotate(-22.48 229.902 185.403)" opacity="1" data-original="#5290db" class=""></circle><circle cx="94.842" cy="21.999" r="19.499" fill="#d9b485" opacity="1" data-original="#5290db" class=""></circle><circle cx="113.842" cy="232.228" r="21.272" fill="#d9b485" opacity="1" data-original="#5290db" class=""></circle><circle cx="207.857" cy="43.457" r="28.702" fill="#d9b485" opacity="1" data-original="#5290db" class=""></circle><circle cx="31.202" cy="127.457" r="28.702" fill="#d9b485" opacity="1" data-original="#5290db" class=""></circle><circle cx="137" cy="129" r="57.5" fill="#f8f8f8" opacity="1" data-original="#f5c84c" class=""></circle><path fill="#ffffff" d="M234.869 191.345a25.377 25.377 0 0 0-9.086 0c-5.974 1.088-10.544 5.748-11.739 11.582a23.426 23.426 0 0 0 15.941 6.233 23.435 23.435 0 0 0 16.493-6.759c-1.354-5.586-5.816-10.001-11.609-11.056z" opacity="1" data-original="#fc657e" class=""></path><path fill="#f9d0b4" d="M229.986 173.093a8.86 8.86 0 1 0 8.861 8.86 8.861 8.861 0 0 0-8.861-8.86z" opacity="1" data-original="#f9d0b4" class=""></path><path fill="#f8f8f8" d="M98.892 26.725c-1.222-.223-2.481-.339-3.767-.339s-2.545.116-3.767.339c-4.954.902-8.743 4.766-9.734 9.605a19.426 19.426 0 0 0 13.219 5.168 19.43 19.43 0 0 0 13.676-5.605c-1.124-4.632-4.824-8.293-9.627-9.168z" opacity="1" data-original="#f5c84c" class=""></path><circle cx="94.842" cy="18.937" r="7.347" fill="#f9d0b4" transform="rotate(-45 94.846 18.956)" opacity="1" data-original="#f9d0b4" class=""></circle><path fill="#ffffff" d="M118.26 237.384a22.898 22.898 0 0 0-4.11-.37c-1.403 0-2.777.127-4.11.37-5.404.985-9.538 5.2-10.619 10.478a21.19 21.19 0 0 0 14.42 5.638 21.2 21.2 0 0 0 14.92-6.115c-1.225-5.052-5.261-9.046-10.501-10.001z" opacity="1" data-original="#b2e26d" class=""></path><circle cx="113.842" cy="228.889" r="8.015" fill="#f9d0b4" opacity="1" data-original="#f9d0b4" class=""></circle><path fill="#ffffff" d="M213.819 50.413c-1.799-.328-3.652-.499-5.545-.499s-3.747.171-5.545.499c-7.292 1.328-12.87 7.016-14.328 14.138a28.593 28.593 0 0 0 19.458 7.608c7.844 0 14.951-3.15 20.132-8.25-1.656-6.818-7.102-12.208-14.172-13.496z" opacity="1" data-original="#70d6f9" class=""></path><circle cx="207.857" cy="38.951" r="10.815" fill="#f9d0b4" opacity="1" data-original="#f9d0b4" class=""></circle><path fill="#fafafa" d="M37.164 134.413c-1.799-.328-3.652-.499-5.545-.499s-3.747.171-5.545.499c-7.292 1.328-12.87 7.016-14.328 14.138a28.593 28.593 0 0 0 19.458 7.608c7.844 0 14.951-3.15 20.132-8.25-1.656-6.818-7.102-12.208-14.172-13.496z" opacity="1" data-original="#b598f9" class=""></path><circle cx="31.202" cy="122.951" r="10.815" fill="#f9d0b4" transform="rotate(-45 31.183 122.965)" opacity="1" data-original="#f9d0b4" class=""></circle><path fill="#ffffff" d="m172.698 166.342-11.339-2.854c-6.01-1.513-10.736-4.105-10.675-4.074a7.235 7.235 0 0 1-4.036-6.489v-3.408c-2.892 1.514-6.174 2.376-9.649 2.376s-6.756-.862-9.649-2.376v3.408a7.235 7.235 0 0 1-4.036 6.489c-3.339 1.646-6.253 2.961-10.675 4.074l-11.339 2.854c-2.037.513-3.724 1.773-4.835 3.436C106.862 180.112 121.184 186.5 137 186.5s30.138-6.388 40.533-16.722c-1.111-1.663-2.798-2.923-4.835-3.436z" opacity="1" data-original="#70d6f9" class=""></path><path fill="#f9d0b4" d="M154.952 105.899c-1.369-1.436-3.596-1.568-5.157-.343-2.468 1.937-6.739 4.332-12.771 4.332-6.047 0-10.34-2.406-12.819-4.346-1.56-1.221-3.782-1.084-5.149.35l-.007.008a10.826 10.826 0 0 0-2.992 7.473v17.577c0 11.519 9.425 20.944 20.944 20.944s20.944-9.425 20.944-20.944v-17.577a10.837 10.837 0 0 0-2.993-7.474z" opacity="1" data-original="#f9d0b4" class=""></path><path fill="#f9d0b4" d="M159.288 114.987c-.458 0-.906.039-1.344.107v15.855c0 .472-.021.94-.053 1.405.456.073.92.122 1.397.122a8.745 8.745 0 0 0 0-17.489zM116.056 130.949v-15.855a8.747 8.747 0 0 0-1.344-.107 8.744 8.744 0 0 0 0 17.488c.477 0 .941-.049 1.397-.122a21.042 21.042 0 0 1-.053-1.404z" opacity="1" data-original="#f9d0b4" class=""></path><path fill="#5b5d60" d="M157.865 97.122c-.701 0-1.309-.541-1.319-1.242-.161-11.67-13.487-13.863-26.759-11.571-11.252 1.943-19.476 11.701-19.476 23.119v8.756a8.696 8.696 0 0 1 4.402-1.197c.458 0 .906.039 1.344.107v-1.722c0-2.783 1.071-5.459 2.992-7.473l.007-.008c1.367-1.433 3.589-1.57 5.149-.35 2.479 1.94 6.772 4.346 12.819 4.346 6.032 0 10.303-2.395 12.771-4.332 1.561-1.225 3.788-1.093 5.157.343a10.826 10.826 0 0 1 2.992 7.473v1.722a8.747 8.747 0 0 1 1.344-.107c1.626 0 3.144.452 4.448 1.225v-7.189c-.001-10.448-3.774-11.9-5.871-11.9z" opacity="1" data-original="#5b5d60" class=""></path><path fill="#9be5f9" d="M150.684 159.414a7.142 7.142 0 0 1-1.358-.892l-8.403 9.621a1.814 1.814 0 0 0 .173 2.56l5.469 4.777a1.814 1.814 0 0 0 2.56-.173l10.691-12.24c-5.254-1.527-9.188-3.681-9.132-3.653zM133.077 168.143l-8.403-9.621c-.417.34-.864.648-1.358.892-2.932 1.446-5.539 2.636-9.126 3.659l10.686 12.234a1.814 1.814 0 0 0 2.56.173l5.469-4.777a1.815 1.815 0 0 0 .172-2.56z" opacity="1" data-original="#9be5f9" class=""></path><path fill="#f9d0b4" d="M146.649 152.925v-3.409c-2.892 1.514-6.174 2.376-9.649 2.376s-6.756-.862-9.649-2.376v3.409a7.22 7.22 0 0 1-2.677 5.597l8.403 9.621c.251.287.393.631.434.982h6.977c.041-.352.184-.695.434-.982l8.403-9.621a7.223 7.223 0 0 1-2.676-5.597z" opacity="1" data-original="#f9d0b4" class=""></path><path d="M229.985 159.631c-14.344 0-26.014 11.67-26.014 26.015 0 14.344 11.67 26.014 26.014 26.014 14.345 0 26.015-11.67 26.015-26.014 0-14.345-11.67-26.015-26.015-26.015zm0 47.029c-11.587 0-21.014-9.427-21.014-21.014s9.427-21.015 21.014-21.015c11.588 0 21.015 9.427 21.015 21.015s-9.427 21.014-21.015 21.014zM94.842 0c-12.13 0-21.999 9.869-21.999 21.999s9.869 21.999 21.999 21.999 21.999-9.869 21.999-21.999S106.972 0 94.842 0zm0 38.998c-9.373 0-16.999-7.625-16.999-16.999S85.469 5 94.842 5s16.999 7.626 16.999 16.999-7.626 16.999-16.999 16.999zM113.842 208.457c-13.107 0-23.771 10.664-23.771 23.771S100.734 256 113.842 256s23.771-10.664 23.771-23.771-10.664-23.772-23.771-23.772zm0 42.543c-10.351 0-18.771-8.421-18.771-18.771s8.421-18.771 18.771-18.771 18.771 8.421 18.771 18.771S124.192 251 113.842 251zM207.857 12.255c-17.205 0-31.202 13.997-31.202 31.202s13.997 31.202 31.202 31.202 31.202-13.997 31.202-31.202-13.996-31.202-31.202-31.202zm0 57.404c-14.448 0-26.202-11.754-26.202-26.202s11.754-26.202 26.202-26.202 26.202 11.754 26.202 26.202-11.753 26.202-26.202 26.202zM31.202 96.255C13.997 96.255 0 110.252 0 127.457s13.997 31.202 31.202 31.202 31.202-13.997 31.202-31.202-13.997-31.202-31.202-31.202zm0 57.404C16.754 153.659 5 141.905 5 127.457s11.754-26.202 26.202-26.202 26.202 11.754 26.202 26.202-11.754 26.202-26.202 26.202z" fill="#000000" opacity="1" data-original="#000000" class=""></path><path fill="#ffffff" d="M211.906 229.1h-2.4v-2.3c0-1.8-1.4-3.2-3.2-3.2-1.7 0-3.2 1.4-3.2 3.1v2.4h-2.3c-1.8 0-3.2 1.4-3.2 3.2-.1 1.7 1.3 3.2 3.2 3.2h2.3v2.3c0 1.8 1.4 3.2 3.2 3.2 1.7 0 3.2-1.4 3.2-3.1v-2.4h2.3c1.8 0 3.2-1.4 3.2-3.2 0-1.7-1.4-3.2-3.1-3.2z" opacity="1" data-original="#70d6f9" class=""></path><circle cx="171.206" cy="252.6" r="3.4" fill="#f8f8f8" opacity="1" data-original="#f5c84c" class=""></circle><path fill="#ffffff" d="M55.15 207.175c-3.1-.6-5.6-3-6.2-6.1 0-.1-.3-.1-.3 0-.6 3.1-3.1 5.5-6.2 6.1-.1 0-.1.2 0 .3 3.1.6 5.6 3 6.2 6.1 0 .1.3.1.3 0 .6-3.1 3.1-5.5 6.2-6.1.1-.1.1-.3 0-.3z" opacity="1" data-original="#fc657e" class=""></path><path fill="#000000" d="M60.369 0a3.4 3.4 0 1 0 0 6.8 3.4 3.4 0 0 0 0-6.8z" opacity="1" data-original="#87d147" class=""></path><path fill="#f8f8f8" d="M44.15 32.2c-4.5-.8-8-4.3-8.9-8.7 0-.2-.4-.2-.4 0-.9 4.4-4.4 7.9-8.9 8.7-.2 0-.2.3 0 .4 4.5.8 8 4.3 8.9 8.7 0 .2.4.2.4 0 .9-4.4 4.4-7.9 8.9-8.7.2-.1.2-.4 0-.4z" opacity="1" data-original="#f5c84c" class=""></path><path d="M137 69c-33.084 0-60 26.916-60 60s26.916 60 60 60 60-26.916 60-60-26.916-60-60-60zm0 115c-30.327 0-55-24.673-55-55s24.673-55 55-55 55 24.673 55 55-24.673 55-55 55zM248.718 201.093c-1.831-6.358-6.966-11.036-13.4-12.208a28.087 28.087 0 0 0-9.982 0c-6.722 1.225-12.076 6.361-13.64 13.086a2.499 2.499 0 1 0 4.869 1.132c1.112-4.783 4.907-8.433 9.667-9.3a23.086 23.086 0 0 1 8.189 0c4.553.83 8.19 4.153 9.492 8.673a2.499 2.499 0 0 0 3.095 1.71 2.499 2.499 0 0 0 1.71-3.093z" fill="#000000" opacity="1" data-original="#000000" class=""></path><path d="M229.985 170.593c-6.264 0-11.36 5.097-11.36 11.361s5.097 11.36 11.36 11.36 11.36-5.096 11.36-11.36-5.096-11.361-11.36-11.361zm0 17.721c-3.507 0-6.36-2.853-6.36-6.36s2.854-6.361 6.36-6.361 6.36 2.854 6.36 6.361-2.853 6.36-6.36 6.36zM110.774 34.656c-1.57-5.41-5.952-9.392-11.435-10.391a23.741 23.741 0 0 0-8.431 0c-5.673 1.033-10.23 5.357-11.612 11.016a2.5 2.5 0 1 0 4.858 1.185c.914-3.744 3.917-6.603 7.651-7.283a18.694 18.694 0 0 1 6.638 0c3.605.657 6.49 3.288 7.53 6.866a2.5 2.5 0 1 0 4.801-1.393z" fill="#000000" opacity="1" data-original="#000000" class=""></path><path d="M94.842 9.09c-5.43 0-9.848 4.417-9.848 9.848 0 5.43 4.418 9.847 9.848 9.847s9.848-4.417 9.848-9.847c-.001-5.431-4.419-9.848-9.848-9.848zm0 14.695c-2.673 0-4.848-2.174-4.848-4.847s2.175-4.848 4.848-4.848 4.848 2.175 4.848 4.848-2.175 4.847-4.848 4.847zM131.08 246.364c-1.598-5.871-6.454-10.362-12.372-11.44a25.664 25.664 0 0 0-9.116 0c-6.129 1.117-11.037 5.794-12.504 11.916a2.501 2.501 0 0 0 4.864 1.165c1.005-4.196 4.355-7.4 8.537-8.162a20.64 20.64 0 0 1 7.323 0c4.034.735 7.349 3.81 8.444 7.834a2.5 2.5 0 0 0 4.824-1.313z" fill="#000000" opacity="1" data-original="#000000" class=""></path><path d="M113.842 218.374c-5.799 0-10.516 4.717-10.516 10.515s4.717 10.516 10.516 10.516 10.516-4.717 10.516-10.516c-.001-5.798-4.717-10.515-10.516-10.515zm0 16.03a5.522 5.522 0 0 1-5.516-5.516c0-3.041 2.475-5.515 5.516-5.515s5.516 2.474 5.516 5.515a5.523 5.523 0 0 1-5.516 5.516zM230.148 62.316c-2.214-7.477-8.299-12.98-15.882-14.362a33.715 33.715 0 0 0-11.987 0c-7.92 1.443-14.269 7.487-16.174 15.397a2.5 2.5 0 0 0 4.862 1.171c1.442-5.988 6.234-10.561 12.209-11.649a28.737 28.737 0 0 1 10.194 0c5.717 1.042 10.309 5.204 11.983 10.862a2.5 2.5 0 0 0 4.795-1.419z" fill="#000000" opacity="1" data-original="#000000" class=""></path><path d="M207.857 25.635c-7.342 0-13.315 5.973-13.315 13.315s5.974 13.315 13.315 13.315 13.315-5.973 13.315-13.315-5.973-13.315-13.315-13.315zm0 21.631c-4.585 0-8.315-3.73-8.315-8.315s3.73-8.315 8.315-8.315 8.315 3.73 8.315 8.315-3.73 8.315-8.315 8.315zM53.633 146.81c-2.055-7.626-8.344-13.458-16.021-14.856a33.739 33.739 0 0 0-11.987 0c-8.046 1.465-14.421 7.623-16.242 15.688a2.499 2.499 0 0 0 2.441 3.051 2.502 2.502 0 0 0 2.437-1.95c1.379-6.105 6.191-10.765 12.262-11.87a28.685 28.685 0 0 1 10.193 0c5.79 1.054 10.535 5.465 12.09 11.238a2.504 2.504 0 0 0 3.064 1.764 2.501 2.501 0 0 0 1.763-3.065z" fill="#000000" opacity="1" data-original="#000000" class=""></path><path d="M31.202 109.635c-7.342 0-13.315 5.973-13.315 13.315s5.974 13.315 13.315 13.315 13.315-5.973 13.315-13.315-5.973-13.315-13.315-13.315zm0 21.631c-4.585 0-8.315-3.73-8.315-8.315s3.73-8.315 8.315-8.315 8.315 3.73 8.315 8.315-3.73 8.315-8.315 8.315zM85.348 37.044a2.501 2.501 0 0 0-3.423.886l-37.378 63.484a2.5 2.5 0 0 0 4.309 2.537l37.378-63.484c.7-1.19.303-2.722-.886-3.423zM101.562 213.92l-50.591-64.609a2.502 2.502 0 0 0-3.938 3.083l50.591 64.609a2.499 2.499 0 0 0 3.51.426 2.5 2.5 0 0 0 .428-3.509zM210.225 194.89a2.499 2.499 0 0 0-3.266-1.354l-72.802 30.125a2.5 2.5 0 0 0 1.912 4.62l72.802-30.125a2.5 2.5 0 0 0 1.354-3.266zM229.088 161.234l-13.869-88.889a2.5 2.5 0 1 0-4.939.77l13.869 88.889a2.5 2.5 0 1 0 4.939-.77zM179.082 36.752l-63.303-13.327a2.5 2.5 0 1 0-1.029 4.892l63.303 13.327a2.501 2.501 0 0 0 1.029-4.892zM78.609 125.889l-17.646-.333a2.487 2.487 0 0 0-2.547 2.452 2.5 2.5 0 0 0 2.453 2.547l17.646.333h.048a2.5 2.5 0 0 0 .046-4.999zM118.441 73.381l-13.037-33.653a2.5 2.5 0 0 0-4.662 1.806l13.037 33.653a2.501 2.501 0 0 0 3.234 1.428 2.499 2.499 0 0 0 1.428-3.234zM210.144 171.109l-22.151-13.142a2.5 2.5 0 1 0-2.551 4.3l22.151 13.142a2.498 2.498 0 0 0 3.425-.874 2.5 2.5 0 0 0-.874-3.426zM188.434 62.47a2.501 2.501 0 0 0-3.513.4l-14.584 18.333a2.5 2.5 0 1 0 3.912 3.112l14.584-18.333a2.499 2.499 0 0 0-.399-3.512zM124.999 183.392a2.5 2.5 0 0 0-3.005 1.864l-5.783 24.7a2.502 2.502 0 0 0 2.436 3.07 2.503 2.503 0 0 0 2.433-1.931l5.783-24.7a2.5 2.5 0 0 0-1.864-3.003zM179.333 167.991a10.766 10.766 0 0 0-6.024-4.073l-11.339-2.854c-5.437-1.369-9.822-3.701-10.057-3.827a2.387 2.387 0 0 0-.123-.065 4.705 4.705 0 0 1-2.642-4.247v-2.633a2.5 2.5 0 1 0-5 0v2.633c0 3.679 2.02 6.98 5.281 8.656.659.417 1.694.883 3.362 1.603 1.837.793 4.709 1.911 7.957 2.729l11.339 2.854a5.76 5.76 0 0 1 3.216 2.185 2.495 2.495 0 0 0 2.017 1.02 2.502 2.502 0 0 0 2.013-3.981zM127.352 147.625a2.5 2.5 0 0 0-2.5 2.5v2.8a4.705 4.705 0 0 1-2.642 4.247c-3.017 1.487-5.864 2.806-10.18 3.892l-11.339 2.854a10.634 10.634 0 0 0-5.729 3.689 2.5 2.5 0 0 0 3.896 3.134 5.681 5.681 0 0 1 3.054-1.975l11.339-2.854c4.791-1.206 7.894-2.641 11.17-4.256a9.673 9.673 0 0 0 5.431-8.731v-2.8a2.5 2.5 0 0 0-2.5-2.5z" fill="#000000" opacity="1" data-original="#000000" class=""></path><path d="M156.762 104.174c-2.261-2.369-5.918-2.62-8.511-.585-2.208 1.733-5.948 3.799-11.228 3.799-5.293 0-9.055-2.075-11.278-3.815-2.59-2.026-6.243-1.772-8.507.601a13.274 13.274 0 0 0-3.682 9.198v17.577c0 12.927 10.517 23.443 23.443 23.443s23.443-10.517 23.443-23.443v-17.577a13.27 13.27 0 0 0-3.68-9.198zm-1.319 26.775c0 10.17-8.273 18.443-18.443 18.443s-18.443-8.273-18.443-18.443v-17.577c0-2.15.817-4.191 2.309-5.755.255-.267.598-.403.946-.403.297 0 .598.098.852.297 2.843 2.225 7.642 4.877 14.36 4.877 6.708 0 11.486-2.646 14.315-4.866.557-.437 1.334-.391 1.804.102a8.296 8.296 0 0 1 2.301 5.748v17.577z" fill="#000000" opacity="1" data-original="#000000" class=""></path><path d="M159.288 112.487a2.5 2.5 0 1 0 0 5c3.442 0 6.243 2.801 6.243 6.244s-2.801 6.244-6.243 6.244a2.5 2.5 0 1 0 0 5c6.199 0 11.243-5.044 11.243-11.244s-5.044-11.244-11.243-11.244zM114.713 129.976c-3.443 0-6.244-2.801-6.244-6.244s2.801-6.244 6.244-6.244a2.5 2.5 0 1 0 0-5c-6.2 0-11.244 5.044-11.244 11.244s5.044 11.244 11.244 11.244a2.5 2.5 0 1 0 0-5z" fill="#000000" opacity="1" data-original="#000000" class=""></path><path d="M158.993 94.715c-.31-3.785-1.919-6.976-4.693-9.28-6.851-5.688-18.566-4.69-24.938-3.59a25.912 25.912 0 0 0-21.551 25.583v8.259a2.5 2.5 0 1 0 5 0v-8.259a20.92 20.92 0 0 1 17.402-20.656c9.266-1.6 17.073-.661 20.893 2.51 1.94 1.611 2.902 3.78 2.941 6.629.025 2.046 1.738 3.711 3.818 3.711 2.079 0 3.37 3.603 3.37 9.401v6.768a2.5 2.5 0 1 0 5 0v-6.768c0-11.312-4.433-13.842-7.242-14.308zM160.617 162.148a2.499 2.499 0 0 0-3.527.238l-9.397 10.759-4.436-3.875 7.338-8.401a2.5 2.5 0 1 0-3.765-3.289l-7.789 8.917a4.318 4.318 0 0 0 .411 6.087l5.47 4.778a4.298 4.298 0 0 0 2.835 1.062c1.203 0 2.4-.5 3.252-1.475l9.848-11.275a2.5 2.5 0 0 0-.24-3.526zM134.96 166.499l-7.924-9.072a2.5 2.5 0 1 0-3.765 3.289l7.473 8.556-4.436 3.874-9.599-10.989a2.499 2.499 0 1 0-3.765 3.289l10.048 11.504a4.285 4.285 0 0 0 3.257 1.478 4.282 4.282 0 0 0 2.832-1.065l5.469-4.776a4.288 4.288 0 0 0 1.467-2.959 4.295 4.295 0 0 0-1.057-3.129z" fill="#000000" opacity="1" data-original="#000000" class=""></path><path d="M139.594 166.625h-5.655a2.5 2.5 0 1 0 0 5h5.655a2.5 2.5 0 1 0 0-5z" fill="#000000" opacity="1" data-original="#000000" class=""></path></g></svg>