<svg xmlns="http://www.w3.org/2000/svg" version="1.1" xmlns:xlink="http://www.w3.org/1999/xlink" width="512" height="512" x="0" y="0" viewBox="0 0 512 512" style="enable-background:new 0 0 512 512" xml:space="preserve" class=""><g><circle cx="256" cy="256" r="239" fill="#c9c5dc" opacity="1" data-original="#acabb1" class=""></circle><circle cx="256" cy="256" r="192" fill="#d9b485" opacity="1" data-original="#ffda44" class=""></circle><path fill="#ffffff" d="m212 344.971-68.485-68.486 16.97-16.97L212 311.029l139.515-139.514 16.97 16.97z" opacity="1" data-original="#91cc04" class=""></path><path d="M504 256A248 248 0 0 1 80.64 431.36a248.045 248.045 0 0 1-29-315.9 8 8 0 1 1 13.17 9.08 232.014 232.014 0 0 0 355.24 295.51A232.016 232.016 0 0 0 126.93 63.19l12.66 15.06L84.61 88l19.04-52.49 12.93 15.38A248.01 248.01 0 0 1 504 256z" fill="#545454" opacity="1" data-original="#000000" class=""></path><path d="M256 456c110.28 0 200-89.72 200-200S366.28 56 256 56 56 145.72 56 256s89.72 200 200 200zm0-384c101.458 0 184 82.542 184 184s-82.542 184-184 184S72 357.458 72 256 154.542 72 256 72z" fill="#545454" opacity="1" data-original="#000000" class=""></path><path d="M256 104a8 8 0 0 0 8-8v-8a8 8 0 0 0-16 0v8a8 8 0 0 0 8 8zM256 408a8 8 0 0 0-8 8v8a8 8 0 0 0 16 0v-8a8 8 0 0 0-8-8zM416 264h8a8 8 0 0 0 0-16h-8a8 8 0 0 0 0 16zM88 264h8a8 8 0 0 0 0-16h-8a8 8 0 0 0 0 16zM369.137 150.863a7.974 7.974 0 0 0 5.656-2.343l5.657-5.657a8 8 0 1 0-11.312-11.314l-5.658 5.657a8 8 0 0 0 5.657 13.657zM137.206 382.794a7.974 7.974 0 0 0 5.657-2.343l5.658-5.657a8 8 0 1 0-11.315-11.315l-5.657 5.658a8 8 0 0 0 5.657 13.657zM374.794 363.479a8 8 0 1 0-11.315 11.315l5.658 5.657a8 8 0 0 0 11.314-11.314zM137.207 148.52a8 8 0 1 0 11.313-11.314l-5.658-5.657a8 8 0 1 0-11.312 11.314zM137.857 282.143l68.486 68.485a8 8 0 0 0 11.314 0l156.486-156.485a8 8 0 0 0 0-11.315l-16.971-16.971a8 8 0 0 0-11.315 0L212 299.716l-45.857-45.859a8 8 0 0 0-11.315 0l-16.971 16.971a8 8 0 0 0 0 11.315zm22.628-11.315 45.858 45.859a8 8 0 0 0 11.314 0l133.858-133.859 5.657 5.657L212 333.657l-57.172-57.172z" fill="#545454" opacity="1" data-original="#000000" class=""></path></g></svg>