<svg xmlns="http://www.w3.org/2000/svg" version="1.1" xmlns:xlink="http://www.w3.org/1999/xlink" width="512" height="512" x="0" y="0" viewBox="0 0 500 500" style="enable-background:new 0 0 512 512" xml:space="preserve" class=""><g><g fill-rule="evenodd" clip-rule="evenodd"><path fill="#d9b485" d="M151.711 193.302c0-66.393 53.822-120.215 120.215-120.215v120.215z" opacity="1" data-original="#c89d8d" class=""></path><path fill="#d9b485" d="M145.66 350.007c-4.537 7.858-1.82 17.998 6.038 22.534l79.549 45.928c21.308 12.302 34.517 18.796 58.904 22.393 24.588 3.627 49.063 2 73.809-.774 15.05-1.687 28.701-2.831 43.855-3.619v-66.868c-26.56-3.315-46.528-12.653-74.372-5.208h-56.121c-12.219 0-20.448 12.51-15.831 23.643-2.803.883-5.593 1.344-8.366 1.348-7.533.012-11.118-2.799-17.28-6.357l-67.652-39.059c-7.857-4.535-17.997-1.818-22.533 6.039z" opacity="1" data-original="#fcd4a9" class=""></path><path fill="#ffffff" d="M429.555 358.27h-21.3c-5.005 0-9.1 4.095-9.1 9.1v72.419c0 5.005 4.095 9.1 9.1 9.1h21.3c5.005 0 9.1-4.095 9.1-9.1V367.37c0-5.005-4.095-9.1-9.1-9.1z" opacity="1" data-original="#88c8fe" class=""></path><path fill="#d9b485" d="M64.924 84.425c13.527-4.835 23.359-9.202 31.979-13.237 23.792-11.14 37.573-18.442 53.392-19.956 13.573-1.298 28.312 5.554 52.498 14.013 12.52 4.379 21.619 7.427 34.914 12.784a119.84 119.84 0 0 0-39.393 20.234c-21.827-.048-42.512.397-57.246 15.484-4.627 4.737-4.558 12.362.154 17.016 3.638 3.593 8.927 5.849 15.797 6.82h32.712c9.421 0 17.128 7.707 17.128 17.127s-7.707 17.127-17.128 17.127h-79.176a162.831 162.831 0 0 1-30.608-5.527 162.503 162.503 0 0 1-15.025-5.04V84.425z" opacity="1" data-original="#fcd4a9" class=""></path><path fill="#ffffff" d="M72.864 77.742H51.563c-5.005 0-9.1 4.095-9.1 9.1v72.419c0 5.005 4.095 9.1 9.1 9.1h21.301c5.005 0 9.1-4.095 9.1-9.1V86.842c0-5.005-4.095-9.1-9.1-9.1z" opacity="1" data-original="#19cfba" class=""></path><path fill="#d9b485" d="M296.321 97.482c66.393 0 120.214 53.822 120.214 120.215s-53.822 120.215-120.214 120.215c-66.393 0-120.215-53.822-120.215-120.215h120.215z" opacity="1" data-original="#d6b4a8" class=""></path><circle cx="387.546" cy="267.928" r="69.984" fill="#ffffff" transform="rotate(-82 387.78 267.992)" opacity="1" data-original="#ffe177" class=""></circle><path fill="#1e2f3f" d="M387.549 223.264c3.579 0 6.487 2.896 6.487 6.449v2.842c7.662.765 14.536 2.459 20.887 5.192 3.284 1.421 4.787 5.246 3.361 8.525s-5.246 4.809-8.525 3.388c-6.41-2.787-13.629-4.263-22.083-4.481h-.055c-4.219.055-7.995.71-11.214 2.022h-.098c-5.989 2.295-6.673 4.864-6.793 6.121.235 2.241 2.558 4.263 6.918 6.121 3.268 1.323 7.645 2.022 11.536 2.022 14.159 0 30.146 6.811 30.963 20.657a6.7 6.7 0 0 1-.011.929c-.898 11.135-11.217 18.423-24.887 20.165v2.896c0 3.607-2.907 6.503-6.487 6.503s-6.481-2.896-6.481-6.503v-2.787c-7.274-.711-14.285-2.405-20.914-5.192-3.306-1.366-4.875-5.137-3.509-8.471 1.377-3.279 5.17-4.864 8.476-3.497 9.496 3.924 23.799 6.536 34.002 2.514 5.738-2.295 6.629-4.809 6.82-6.121-.18-1.257-1.082-3.771-6.864-6.12-3.647-1.427-7.517-2.003-11.514-2.022-5.645-.055-10.979-.984-15.875-2.896-.065 0-.137-.055-.197-.055-12.023-5.082-14.771-12.515-14.968-17.924 0-.164 0-.383.011-.601.591-11.066 10.782-18.256 24.531-20.274v-2.951c.001-3.555 2.903-6.451 6.483-6.451zm-91.224.929H182.778c3.372 59.73 53.014 107.274 113.547 107.274 13.722 0 27.012-2.404 39.636-7.104-15.28-13.99-24.876-34.1-24.876-56.451 0-50.583 48.374-86.943 96.525-73.775-10.481-50.003-53.38-87.109-104.804-90.005V217.69a6.482 6.482 0 0 1-6.481 6.503zm154.719 43.718c0-34.975-28.482-63.446-63.495-63.446s-63.495 28.471-63.495 63.446c0 35.029 28.482 63.556 63.495 63.556s63.495-28.527 63.495-63.556zm-281.42-50.221c0 69.894 56.839 126.728 126.701 126.728 18.056 0 35.433-3.716 51.735-11.039 11.536 6.995 25.051 11.039 39.488 11.039 42.166 0 76.469-34.319 76.469-76.507 0-29.838-17.241-55.795-42.292-68.364-8.897-62.134-62.184-108.531-125.4-108.531-3.58 0-6.487 2.896-6.487 6.449v113.777H176.111c-3.585-.001-6.487 2.896-6.487 6.448zm262.544 222.089c0 1.421-1.191 2.623-2.612 2.623H408.26c-1.415 0-2.618-1.202-2.618-2.623V367.37c0-1.421 1.202-2.623 2.618-2.623h21.296c1.421 0 2.612 1.202 2.612 2.623zm-68.927-6.121c-22.897 2.569-47.489 4.427-72.141.82-23.253-3.443-35.663-9.509-56.604-21.64l-79.556-45.904c-4.771-2.732-6.427-8.908-3.656-13.662 2.76-4.809 8.891-6.448 13.673-3.661l67.654 39.073c8.194 4.686 13.853 8.639 25.674 6.776a23.51 23.51 0 0 0 19.039 9.673h56.123a6.482 6.482 0 0 0 6.481-6.503c0-3.552-2.902-6.448-6.481-6.448h-56.123c-5.866 0-10.645-4.835-10.645-10.656 0-5.847 4.782-10.656 10.645-10.656h56.123c.568 0 1.131-.055 1.678-.219 18.4-4.918 32.985-1.913 49.883 1.53 2.503.492 5.06 1.038 7.662 1.53v57.216a789.796 789.796 0 0 0-29.429 2.731zm66.315-81.862c8.601 0 15.586 6.995 15.586 15.574v72.408c0 8.634-6.984 15.629-15.586 15.629H408.26c-7.175 0-13.219-4.918-15.028-11.531-9.296.71-18.515 1.53-28.542 2.678-24.732 2.8-50.15 4.478-75.485.711-26.346-3.88-40.691-11.312-61.195-23.171l-79.556-45.904c-10.973-6.339-14.744-20.438-8.405-31.422 6.303-10.928 20.353-14.788 31.39-8.416l67.659 39.073c5.881 3.438 8.158 5.465 14.657 5.465-.843-13.42 9.978-24.974 23.57-24.974h55.282c20.963-5.41 37.505-2.022 54.998 1.53 2.142.437 4.339.929 6.552 1.366 2.492-5.301 7.869-9.017 14.105-9.017h21.294zM88.237 161.73c.131-.765.213-1.585.213-2.459V86.863c0-1.53-.229-3.06-.645-4.426l19.837-9.126c18.979-8.962 30.439-14.372 43.276-15.629 9.503-.874 20.329 3.06 36.718 9.017l31.772 11.257a128.273 128.273 0 0 0-23.357 13.826c-20.416 0-43.112.546-59.615 17.433-7.11 7.268-7.006 19.017.235 26.176 4.607 4.536 11.154 7.432 19.444 8.634l33.625.055c5.858 0 10.64 4.754 10.64 10.656 0 5.847-4.781 10.602-10.64 10.602h-78.906a156.213 156.213 0 0 1-22.597-3.608zm-12.755-2.459c0 1.421-1.192 2.623-2.612 2.623H51.563c-1.416 0-2.612-1.202-2.612-2.623V86.863c0-1.421 1.197-2.623 2.612-2.623H72.87c1.421 0 2.612 1.202 2.612 2.623zm82.015-28.143c-5.257-.82-9.197-2.459-11.716-4.973-2.175-2.131-2.202-5.683-.066-7.869 9.012-9.235 20.613-12.241 35.188-13.115a125.158 125.158 0 0 0-19.373 25.958h-4.033zm107.947 55.686H158.383c.164-2.842.443-5.683.803-8.471h30.554c13.023 0 23.613-10.602 23.613-23.608s-10.591-23.608-23.613-23.608h-13.044c19.733-30.275 52.533-49.347 88.748-51.369zm-120.215 6.503c0-5.028.306-10.001.88-14.974l-36.09-.055c-10.165-.82-20.22-2.623-29.936-5.191a15.939 15.939 0 0 1-7.214 1.749H51.563c-8.585 0-15.58-6.995-15.58-15.575V86.863c0-8.58 6.995-15.575 15.58-15.575H72.87c1.956 0 3.814.328 5.536 1.038a406.41 406.41 0 0 0 15.755-6.995c20.456-9.657 37.719-18.849 55.522-20.548 12.427-1.202 25.002 3.388 42.396 9.727l17.979 6.394c9.329 3.279 17.471 6.12 28.007 10.274a126.877 126.877 0 0 1 33.865-4.59c3.579 0 6.487 2.951 6.487 6.503v120.225a6.487 6.487 0 0 1-6.487 6.503H151.716a6.485 6.485 0 0 1-6.487-6.502z" opacity="1" data-original="#1e2f3f" class=""></path></g></g></svg>