<svg xmlns="http://www.w3.org/2000/svg" version="1.1" xmlns:xlink="http://www.w3.org/1999/xlink" width="512" height="512" x="0" y="0" viewBox="0 0 512 512" style="enable-background:new 0 0 512 512" xml:space="preserve" class=""><g><circle cx="348.76" cy="140.38" r="23.693" fill="#d9b485" transform="rotate(-83 348.533 140.337)" opacity="1" data-original="#eac0ac" class=""></circle><path fill="#ffffff" fill-rule="evenodd" d="M348.76 184.119a60.328 60.328 0 0 1 60.01 54.159H288.751a60.327 60.327 0 0 1 60.009-54.159z" opacity="1" data-original="#3d8e95" class=""></path><circle cx="163.464" cy="140.38" r="23.693" fill="#d9b485" transform="rotate(-13.24 163.442 140.376)" opacity="1" data-original="#eac0ac" class=""></circle><path fill="#ffffff" fill-rule="evenodd" d="M163.464 184.119a60.328 60.328 0 0 1 60.01 54.159H103.455a60.327 60.327 0 0 1 60.009-54.159z" opacity="1" data-original="#3d8e95" class=""></path><circle cx="254.188" cy="125.183" r="27.371" fill="#d9b485" transform="rotate(-87.48 254.16 125.199)" opacity="1" data-original="#eac0ac" class=""></circle><g fill-rule="evenodd"><path fill="#ffffff" d="M254.189 175.712a69.692 69.692 0 0 1 69.324 62.566H184.864a69.692 69.692 0 0 1 69.325-62.566z" opacity="1" data-original="#54c4cc" class=""></path><path fill="#d9b485" d="M235.8 207h36.776v17.88a96.083 96.083 0 0 1 35.686 14.782l12.638-12.648 26.005 26-12.643 12.644a96.1 96.1 0 0 1 14.782 35.685h17.879v36.777h-17.874a96.085 96.085 0 0 1-14.782 35.685l12.643 12.644-26.005 26-12.643-12.643a96.092 96.092 0 0 1-35.686 14.794v17.88H235.8V414.6a96.078 96.078 0 0 1-35.685-14.782l-12.644 12.643-26-26 12.643-12.644a96.061 96.061 0 0 1-14.782-35.685h-17.88v-36.785h17.88a96.078 96.078 0 0 1 14.782-35.685l-12.643-12.644 26-26 12.644 12.643a96.061 96.061 0 0 1 35.685-14.786zm18.388 55.5a57.245 57.245 0 1 0 57.245 57.244 57.244 57.244 0 0 0-57.245-57.253z" opacity="1" data-original="#ffb229" class=""></path><path fill="#193f37" d="M256 34a8 8 0 0 1 0-16c131.442 0 238 106.558 238 238a238.024 238.024 0 0 1-136.132 215.119L373 475.174a7.99 7.99 0 1 1-4.125 15.438l-37.832-10.137a8.006 8.006 0 0 1-4.7-12l18.282-33.838a7.983 7.983 0 1 1 14.062 7.562L350.8 456.8A221.984 221.984 0 0 0 478 256c0-122.608-99.392-222-222-222zm-20.2 165h36.776a8 8 0 0 1 8 8v11.5a105.17 105.17 0 0 1 26.537 10.99l5.117-5.116c-14.037-38.762-62.338-53.6-95.689-27.878a61.914 61.914 0 0 0-20.394 27.878l5.116 5.116A105.133 105.133 0 0 1 227.8 218.5V207a8 8 0 0 1 8-8zm92.917 24.518 6.765 6.765h63.686c-9.767-34.819-51.31-49.4-80.724-28.5a77.435 77.435 0 0 1 10.273 21.74zm22.765 22.765h57.288v-.024a8 8 0 0 0 7.937-8.757 68.3 68.3 0 0 0-108.576-47.969 77.6 77.6 0 0 0-106.231-1.558A68.3 68.3 0 0 0 95.593 236.8a7.983 7.983 0 0 0 7.862 9.483H156.9l-1.084 1.084a8 8 0 0 0 0 11.313l8.135 8.135a105.133 105.133 0 0 0-10.99 26.537h-11.513a8 8 0 0 0-8 8v36.777a8 8 0 0 0 8 8h11.508a105.182 105.182 0 0 0 10.989 26.537l-8.134 8.135a8 8 0 0 0 0 11.313l26 26a8 8 0 0 0 11.313 0l8.135-8.135a105.206 105.206 0 0 0 26.537 10.99v11.508a8 8 0 0 0 8 8h36.776a8 8 0 0 0 8-8v-11.509a105.192 105.192 0 0 0 26.538-10.99l8.135 8.135a8 8 0 0 0 11.312 0l26-26a8 8 0 0 0 0-11.313l-8.135-8.135a105.185 105.185 0 0 0 10.99-26.537h11.507a8 8 0 0 0 8-8v-36.781a8 8 0 0 0-8-8h-11.498a105.17 105.17 0 0 0-10.99-26.537l8.135-8.135a8 8 0 0 0 0-11.313l-1.084-1.084zm-178.588-16h-59.838c9.429-33.61 48.685-48.619 78.106-30.258a77.466 77.466 0 0 0-11.5 23.492l-6.766 6.766zM264.576 215H243.8v9.88h-.013a7.988 7.988 0 0 1-6.487 7.843c-10.96 2.1-23.369 6.965-32.416 13.361a8 8 0 0 1-10.426-.766l-6.987-6.987-14.692 14.692 6.987 6.988v.005a7.992 7.992 0 0 1 .973 10.12 87.367 87.367 0 0 0-13.476 32.275 8 8 0 0 1-7.93 6.941h-9.88v20.777h9.88v.013a7.988 7.988 0 0 1 7.843 6.487c2.1 10.959 6.965 23.369 13.361 32.416a8 8 0 0 1-.766 10.425l-6.987 6.987 14.693 14.692 6.986-6.986h.006a7.993 7.993 0 0 1 10.119-.974 87.366 87.366 0 0 0 32.275 13.477 8 8 0 0 1 6.942 7.93v9.88h20.776V414.6h.014a7.986 7.986 0 0 1 6.486-7.843c10.96-2.1 23.369-6.965 32.416-13.361a8 8 0 0 1 10.426.766l6.987 6.986 14.69-14.696-6.986-6.987a7.994 7.994 0 0 1-.974-10.12 87.347 87.347 0 0 0 13.477-32.275 8 8 0 0 1 7.93-6.941h9.88v-20.782h-9.88v-.013a7.989 7.989 0 0 1-7.844-6.487c-2.1-10.961-6.963-23.368-13.36-32.416a8 8 0 0 1 .766-10.425l6.987-6.988-14.696-14.692-6.987 6.987a7.994 7.994 0 0 1-10.12.974 87.366 87.366 0 0 0-32.275-13.477 8 8 0 0 1-6.942-7.93zm-10.388 55.5a49.245 49.245 0 1 0 49.245 49.244 49.242 49.242 0 0 0-49.245-49.244zm-46.134 3.11a65.244 65.244 0 1 0 92.269 0 65.244 65.244 0 0 0-92.269 0zm46.134-183.798a35.371 35.371 0 1 0 35.371 35.371 35.373 35.373 0 0 0-35.371-35.371zm13.7 21.673c-12.169-12.169-33.07-3.51-33.07 13.7s20.9 25.867 33.069 13.7a19.374 19.374 0 0 0 0-27.4zm-104.423-2.8a31.693 31.693 0 1 1-31.693 31.692 31.694 31.694 0 0 1 31.693-31.692zm11.1 20.6a15.7 15.7 0 0 1 0 22.195c-9.859 9.858-26.791 2.844-26.791-11.1s16.933-20.954 26.791-11.1zm174.2-20.6a31.693 31.693 0 1 0 31.693 31.692 31.695 31.695 0 0 0-31.693-31.692zm11.1 20.6c-9.858-9.857-26.791-2.844-26.791 11.1s16.932 20.956 26.79 11.1a15.7 15.7 0 0 0 0-22.195zM256 478c-122.609 0-222-99.392-222-222A221.984 221.984 0 0 1 161.2 55.2l-7.887 14.6a7.983 7.983 0 0 0 14.062 7.562l18.282-33.838a8.006 8.006 0 0 0-4.7-12l-37.835-10.136A7.99 7.99 0 1 0 139 36.826l15.135 4.055A238.024 238.024 0 0 0 18 256c0 131.442 106.558 238 238 238a8 8 0 0 0 0-16z" opacity="1" data-original="#043c30" class=""></path></g></g></svg>