<svg xmlns="http://www.w3.org/2000/svg" version="1.1" xmlns:xlink="http://www.w3.org/1999/xlink" width="512" height="512" x="0" y="0" viewBox="0 0 64 64" style="enable-background:new 0 0 512 512" xml:space="preserve" class=""><g><path fill="#d9b485" d="M13.45 28.486C10.193 26.576 8 23.048 8 19c0-6.075 4.925-11 11-11s11 4.925 11 11c0 5.485-4.019 10.019-9.27 10.851a6.97 6.97 0 0 1 2.243 4.619l5.184-.662A16.996 16.996 0 0 1 37 21.002v-5.794l-2.635-.62a15.895 15.895 0 0 0-1.381-3.332l1.426-2.302-5.363-5.363-2.303 1.425a15.851 15.851 0 0 0-3.332-1.381L22.792 1h-7.584l-.62 2.634c-1.16.333-2.276.795-3.332 1.381L8.953 3.591 3.59 8.954l1.426 2.302a15.895 15.895 0 0 0-1.381 3.332L1 15.208v7.584l2.635.62a15.895 15.895 0 0 0 1.381 3.332L3.59 29.046l5.193 5.192.259.004a7 7 0 0 1 4.408-5.756z" opacity="1" data-original="#f0bc5e" class=""></path><path d="M20.415 41.665A7.996 7.996 0 0 0 24 35a7.948 7.948 0 0 0-1.437-4.561A11.915 11.915 0 0 0 31 19c0-6.617-5.383-12-12-12S7 12.383 7 19c0 3.656 1.705 7.107 4.532 9.367A7.999 7.999 0 0 0 8 35a7.996 7.996 0 0 0 3.585 6.665C5.462 43.555 1 49.265 1 56v3c0 2.206 1.794 4 4 4h8.5c.979 0 1.864-.403 2.5-1.053A3.487 3.487 0 0 0 18.5 63H27c2.206 0 4-1.794 4-4v-3c0-6.735-4.462-12.445-10.585-14.335zM9 19c0-5.514 4.486-10 10-10s10 4.486 10 10a9.93 9.93 0 0 1-7.989 9.773 7.96 7.96 0 0 0-7.423-1.4C10.755 25.536 9 22.378 9 19zm1 16c0-3.309 2.691-6 6-6s6 2.691 6 6-2.691 6-6 6-6-2.691-6-6zm9.492 8.49L16 47.481l-3.492-3.991C13.621 43.179 14.789 43 16 43s2.379.179 3.492.49zM29 59c0 1.103-.897 2-2 2h-8.5c-.827 0-1.5-.673-1.5-1.5s.673-1.5 1.5-1.5H26v-2h-2v-4h-2v4h-3.5c-.979 0-1.864.403-2.5 1.053A3.487 3.487 0 0 0 13.5 56H10v-4H8v4H6v2h7.5c.827 0 1.5.673 1.5 1.5s-.673 1.5-1.5 1.5H5c-1.103 0-2-.897-2-2v-3c0-5.202 3.078-9.687 7.502-11.763L16 50.519l5.498-6.282C25.922 46.313 29 50.798 29 56z" fill="#ffffff" opacity="1" data-original="#000000" class=""></path><path d="M45 18c-9.925 0-18 8.075-18 18s8.075 18 18 18 18-8.075 18-18-8.075-18-18-18zm15.949 19a15.91 15.91 0 0 1-3.968 9.568l-2.789-2.789-1.414 1.414 2.789 2.789A15.909 15.909 0 0 1 46 51.949V48h-2v3.949a15.91 15.91 0 0 1-9.567-3.967l2.789-2.789-1.414-1.414-2.789 2.789A15.91 15.91 0 0 1 29.051 37H33v-2h-3.949a15.91 15.91 0 0 1 3.968-9.568l2.789 2.789 1.414-1.414-2.789-2.789A15.909 15.909 0 0 1 44 20.051V24h2v-3.949a15.91 15.91 0 0 1 9.567 3.967l-2.789 2.789 1.414 1.414 2.789-2.789A15.91 15.91 0 0 1 60.949 35H57v2zM25 19c0-3.309-2.691-6-6-6s-6 2.691-6 6 2.691 6 6 6 6-2.691 6-6zm-10 0c0-2.206 1.794-4 4-4s4 1.794 4 4-1.794 4-4 4-4-1.794-4-4z" fill="#ffffff" opacity="1" data-original="#000000" class=""></path><path d="m46.405 38.83 1.414-1.414 2.878 2.878-1.414 1.414zM44 26h2v7h-2z" fill="#ffffff" opacity="1" data-original="#000000" class=""></path><path fill="#d9b485" d="M45 40c-2.206 0-4-1.794-4-4s1.794-4 4-4 4 1.794 4 4-1.794 4-4 4z" opacity="1" data-original="#f0bc5e" class=""></path></g></svg>