<svg xmlns="http://www.w3.org/2000/svg" version="1.1" xmlns:xlink="http://www.w3.org/1999/xlink" width="512" height="512" x="0" y="0" viewBox="0 0 90 90" style="enable-background:new 0 0 512 512" xml:space="preserve" class=""><g><path fill="#d9b485" fill-rule="evenodd" d="M84.648 44.906c0 21.917-17.761 39.677-39.677 39.677a39.655 39.655 0 0 1-28.052-11.62A39.662 39.662 0 0 1 5.293 44.906c0-21.911 17.766-39.678 39.678-39.678 21.916.001 39.677 17.768 39.677 39.678z" clip-rule="evenodd" opacity="1" data-original="#f9f9f9" class=""></path><path fill="#ffffff" d="M44.976 25.146a9.9 9.9 0 0 1 9.896 9.901 9.9 9.9 0 0 1-3.756 7.744c-1.25 1.376-.621 2.448.489 2.876 5.533 1.224 9.59 5.561 9.59 11.552 0 2.833.238 3.452-2.833 3.452H30.924c-2.391 0-2.172-1.593-2.172-3.452 0-5.991 4.063-10.333 9.593-11.552 1.099-.428 1.729-1.485.517-2.844a9.898 9.898 0 0 1-.885-14.776 9.892 9.892 0 0 1 6.999-2.901z" opacity="1" data-original="#1a1a1a" class=""></path><path fill="#fe2020" fill-rule="evenodd" d="M44.971 8.188c-20.246 0-36.724 16.475-36.724 36.719 0 20.245 16.479 36.724 36.724 36.724 6.5 0 12.609-1.708 17.91-4.687l-4.453-4.453a30.562 30.562 0 0 1-13.457 3.12c-16.995 0-30.705-13.709-30.705-30.704a30.617 30.617 0 0 1 6.355-18.73L31.95 37.504c-.517-2.561-.052-5.463.879-7.629l-8.082-8.083a30.576 30.576 0 0 1 20.224-7.588c16.989 0 30.708 13.713 30.708 30.703a30.57 30.57 0 0 1-7.593 20.229l-4.125-4.131c-1.036 2-3.516 2.882-5.631 2.882l9.631 9.629c8.364-6.739 13.735-17.057 13.735-28.609-.001-20.245-16.482-36.719-36.725-36.719z" clip-rule="evenodd" opacity="1" data-original="#ff2a2a" class=""></path></g></svg>