<svg xmlns="http://www.w3.org/2000/svg" version="1.1" xmlns:xlink="http://www.w3.org/1999/xlink" width="512" height="512" x="0" y="0" viewBox="0 0 512 512" style="enable-background:new 0 0 512 512" xml:space="preserve" class=""><g><path fill="#ffffff" fill-rule="evenodd" d="M136.13 16h198.16l48.35 52.5v265.62a6.78 6.78 0 0 1-6.77 6.76H136.13a6.78 6.78 0 0 1-6.77-6.76V22.76a6.78 6.78 0 0 1 6.77-6.76z" opacity="1" data-original="#f4f4f4" class=""></path><path fill="#ffffff" fill-rule="evenodd" d="m334.29 16 48.35 52.5h-45a3.39 3.39 0 0 1-3.38-3.39z" opacity="1" data-original="#e7e7e7" class=""></path><rect width="53.62" height="53.62" x="155.79" y="95.05" fill="#8ac9fe" rx="5" opacity="1" data-original="#8ac9fe" class=""></rect><g fill-rule="evenodd"><path fill="#737373" d="m87.84 173.76-71.4 123.68a3.29 3.29 0 0 0 1.2 4.49l59 34.08 74.69-129.37-59-34.08a3.3 3.3 0 0 0-4.49 1.2zM360.64 190.21l74.69 129.37 59-34.08a3.29 3.29 0 0 0 1.2-4.49l-71.4-123.68a3.3 3.3 0 0 0-4.49-1.2z" opacity="1" data-original="#737373" class=""></path><path fill="#d9b489" d="M339.64 401.59h-.06zm-124.15-131.5 11-41.22a26 26 0 0 1 5.68-10.56l-4.67-2.7c-21.27-7.3-49.74-13.42-76.18-9L76.67 336a135.44 135.44 0 0 1 28.23 34.25l6.87-11.89a22.42 22.42 0 0 1 38.83 22.42 22.42 22.42 0 0 1 38.83 22.42 22.42 22.42 0 0 1 38.83 22.42 22.42 22.42 0 1 1 38.83 22.42l-14.25 24.68 34.23 19.77A26.25 26.25 0 1 0 313.32 447a26.26 26.26 0 0 0 26.32-45.44 26.25 26.25 0 0 0 26.19-45.51 26.33 26.33 0 0 0 35.86-9.61 25.81 25.81 0 0 0 2.75-6.84 26.36 26.36 0 0 0-12.36-29l-15.85-9.15L347.72 285l-62-35.77-12.21 2.92c-11.39 2.72-18.67 25.59-38.29 52.72-4.81 6.65-8.11 13.1-15.24 2.59A48.36 48.36 0 0 1 213.1 289c-1.21-7.78.45-11.7 2.39-18.91z" opacity="1" data-original="#ffecc6" class=""></path><path fill="#d9b489" d="M338.08 440.12a9.16 9.16 0 0 1 4.15 5.13 26.33 26.33 0 0 1-28.91 1.75l-29.6-17.1a9.17 9.17 0 1 1 9.14-15.9zM392.06 350a9.16 9.16 0 0 1 3.52 3.66 26.34 26.34 0 0 1-29.75 2.43l-68.56-39.59a9.19 9.19 0 1 1 9.22-15.91zM82.88 408.41l28.89-50a22.42 22.42 0 0 1 38.83 22.42 22.42 22.42 0 0 1 38.83 22.42 22.42 22.42 0 0 1 38.83 22.42 22.42 22.42 0 1 1 38.83 22.42l-17.66 30.59a22.42 22.42 0 1 1-38.83-22.42l-5.6 9.68a22.42 22.42 0 0 1-38.83-22.41l-2.8 4.86A22.42 22.42 0 0 1 124.52 426l-2.81 4.86a22.42 22.42 0 0 1-38.83-22.42z" opacity="1" data-original="#fbe1bd" class=""></path><path fill="#d9b489" d="M262.22 419.78a22.51 22.51 0 0 1 4.87 28.27l-17.66 30.59a22.51 22.51 0 0 1-26.92 9.92zM223.39 397.36a22.51 22.51 0 0 1 4.87 28.27l-17.67 30.61-5.59 9.7a22.51 22.51 0 0 1-26.13 10.18 9 9 0 0 1 1.17-3.64zM184.56 374.94a22.51 22.51 0 0 1 4.87 28.27l-23.29 40.34-2.8 4.86a22.53 22.53 0 0 1-25.72 10.3 9.14 9.14 0 0 1 1.22-4.58zM145.7 352.5a22.5 22.5 0 0 1 4.9 28.29L124.5 426l-2.81 4.86A22.5 22.5 0 0 1 101.54 442a9.21 9.21 0 0 1-1.23-10.89z" opacity="1" data-original="#ecd4b4" class=""></path><path fill="#d9b489" d="M360.64 190.21c-27.62-1.46-75.18 2.47-106.85 17.06-4.26 2-5.59 2-9.75 3.36a26.54 26.54 0 0 0-11.83 7.68 26 26 0 0 0-5.68 10.56l-11 41.22c-1.94 7.21-3.6 11.13-2.39 18.89a48.36 48.36 0 0 0 6.86 18.47c7.13 10.51 10.43 4.06 15.24-2.59 19.62-27.13 26.9-50 38.29-52.72l12.21-2.92 62 35.77 28.51 16.47 15.85 9.15a26.36 26.36 0 0 1 12.36 29c10.12-2.33 22-20.44 30.89-20.05zM365.8 395.46a9.16 9.16 0 0 1 3.52 3.66 26.34 26.34 0 0 1-29.75 2.43l-53.65-31a9.19 9.19 0 0 1 9.22-15.91z" opacity="1" data-original="#fbe1bd" class=""></path><path fill="#242222" d="M240.71 123.44a8 8 0 0 1 8-8h71a8 8 0 0 1 0 16h-71a8 8 0 0 1-8-8zm0-28.39a8 8 0 0 1 8-8h49.92a8 8 0 0 1 0 16h-49.92a8 8 0 0 1-8-8zm0 56.78a8 8 0 0 1 8-8h107.5a8 8 0 0 1 0 16h-107.5a8 8 0 0 1-8-8zm-42.83-31.69-12.16 14a8 8 0 0 1-5.76 2.74h-.27a8 8 0 0 1-5.66-2.34l-6.33-6.33a8 8 0 0 1 11.3-11.37l.28.28 6.53-7.49a8 8 0 0 1 12.06 10.51zm-34.09-17.09v37.62h37.62v-37.62zm45.62 53.62a8 8 0 0 0 8-8V95.05a8 8 0 0 0-8-8h-53.62a8 8 0 0 0-8 8v53.62a8 8 0 0 0 8 8zm228.85 152-66.69-115.53 48-27.72 66.69 115.51-48 27.72zm-26.05 16.48 2-1.77a88.26 88.26 0 0 1 9.6-7.81L355.91 198c-25.35-.72-69.39 3-98.78 16.51a46.93 46.93 0 0 1-7.86 2.88c-.8.23-1.7.49-2.81.84a18.41 18.41 0 0 0-8 5.1c-.15.17-.29.34-.45.5a18.16 18.16 0 0 0-3.71 7.08l-11 41.22c-.28 1-.56 2-.82 3-1.43 5.11-2.15 7.67-1.38 12.62a40.17 40.17 0 0 0 5.54 15.25l.08.11.89-1.25c.38-.54.77-1.1 1.17-1.65a323.38 323.38 0 0 0 17.61-27.75c8.68-14.86 14.95-25.59 25.3-28.06l12.21-2.92a8 8 0 0 1 5.86.85l106.32 61.39a34.16 34.16 0 0 1 16.11 21.47zm-17.43 17.32a18.26 18.26 0 0 0-6.68-24.93l-103.56-59.8-9.11 2.18c-3.7.88-9.55 10.89-15.2 20.57-4.78 8.17-10.72 18.35-18.46 29.06-.37.5-.73 1-1.08 1.5-3.13 4.44-7 10-13.85 10h-.12c-6.45-.07-10.68-5.21-13.3-9.07a55.82 55.82 0 0 1-8.2-21.73c-1.31-8.38.13-13.49 1.79-19.4l.77-2.8 11-41.21a35 35 0 0 1 1.79-5.07c-17.44-5.57-41.23-10.71-64.23-7.74L86.84 334.4A142.85 142.85 0 0 1 104.5 355l.34-.58a30.41 30.41 0 0 1 56 8.65c.42-.14.85-.26 1.28-.37a30.32 30.32 0 0 1 37.22 21.49c.12.43.22.86.32 1.3l1.29-.38a30.34 30.34 0 0 1 37.22 21.49c.12.44.22.87.32 1.31.43-.14.86-.26 1.29-.38a30.34 30.34 0 0 1 34 13.83 8 8 0 0 1 9.31-.95l34.19 19.74a18.26 18.26 0 0 0 18.26-31.62l-50.87-29.37a8 8 0 1 1 8-13.86l50.94 29.42A18.26 18.26 0 0 0 361.85 363l-66.38-38.3a8 8 0 1 1 8-13.86l66.33 38.3a18.26 18.26 0 0 0 24.93-6.68zM316 478.89a18.27 18.27 0 0 1-24.93 6.68l-27.3-15.76L274 452.05a30.33 30.33 0 0 0 4.05-16.14l31.25 18a18.32 18.32 0 0 1 6.7 24.98zm-93.2 1a14.49 14.49 0 0 1-5.28-19.69l17.66-30.59a14.42 14.42 0 1 1 25 14.42l-14.24 24.67-3.4 5.89a14.43 14.43 0 0 1-19.7 5.28zm-24.74-18a14.42 14.42 0 0 1-25-14.42l23.28-40.31a14.42 14.42 0 0 1 25 14.39l-17.66 30.59-5.61 9.72zm-38.85-22.39-2.79 4.84a14.42 14.42 0 0 1-25-14.42l26.09-45.18a14.42 14.42 0 0 1 25 14.42l-23.27 40.31zM117.57 422l-2.79 4.83a14.42 14.42 0 1 1-25-14.42l28.89-50a14.42 14.42 0 1 1 25 14.42L117.59 422zm-43.83-96.92-48-27.72 66.67-115.51 48 27.72zm63.59-301.09v165.33l15.56 9c28.49-4 57.57 3 77.22 9.73a8.15 8.15 0 0 1 1 .41 34.53 34.53 0 0 1 10.52-5.46c1.28-.41 2.3-.7 3.22-1a31.28 31.28 0 0 0 5.59-2c30.82-14.2 77.1-19.18 108.23-17.9l16-9.22V76.49h-40.38a8 8 0 0 1-8-8V24zm204.93 12.5 22.1 24h-22.1zM502.49 277l-71.41-123.67a11.29 11.29 0 0 0-15.41-4.13l-25 14.45V67.71c0-.26 0-.24-.05-.35l-.06-.41c0-.14-.07-.28-.1-.42s-.05-.21-.08-.31l-.15-.43c0-.1-.07-.19-.1-.29l-.18-.4c-.05-.1-.09-.2-.14-.29l-.21-.37c-.06-.1-.11-.19-.18-.29l-.22-.33-.22-.29a3.47 3.47 0 0 0-.25-.29 1.15 1.15 0 0 0-.14-.17l-48.35-52.5-.11-.1c-.1-.11-.21-.22-.32-.32l-.26-.23c-.12-.11-.24-.2-.37-.3l-.26-.19c-.14-.1-.29-.19-.44-.28l-.29-.15-.54-.27-.18-.08a4.73 4.73 0 0 0-.66-.25h-.09l-.75-.2a7 7 0 0 0-.78-.13 7.55 7.55 0 0 0-.83 0H136.13a14.79 14.79 0 0 0-14.77 14.77v157.24l-25-14.45a11.31 11.31 0 0 0-15.42 4.13L9.51 293.44a11.31 11.31 0 0 0 4.13 15.42L72 342.57a125.7 125.7 0 0 1 23.57 27.8L76 404.41a30.41 30.41 0 0 0 39.26 42.74 30.46 30.46 0 0 0 41.63 17.55 30.48 30.48 0 0 0 45.53 15.39A30.39 30.39 0 0 0 230 497.85a30.48 30.48 0 0 0 25.77-14.21l27.34 15.79a34.22 34.22 0 0 0 50.18-38.53c-.26-1-.57-1.95-.91-2.9q1.49-.25 3-.66a34.13 34.13 0 0 0 24.19-41.91c-.26-1-.56-1.94-.9-2.89a34.2 34.2 0 0 0 26.26-45.47 34.2 34.2 0 0 0 23.76-16.6 34.71 34.71 0 0 0 2.27-4.73c4.94-2.39 9.5-6.46 13.95-10.43 3.1-2.77 8.3-7.41 10.32-7.74a8 8 0 0 0 4.17-1.06l59-34.08a11.31 11.31 0 0 0 4.09-15.43z" opacity="1" data-original="#242222" class=""></path></g></g></svg>