<svg xmlns="http://www.w3.org/2000/svg" version="1.1" xmlns:xlink="http://www.w3.org/1999/xlink" width="512" height="512" x="0" y="0" viewBox="0 0 64 64" style="enable-background:new 0 0 512 512" xml:space="preserve" class=""><g><g fill="#ff6768"><circle cx="53" cy="53" r="8" fill="#d9b489" opacity="1" data-original="#ff6768" class=""></circle><circle cx="32" cy="53" r="8" fill="#d9b489" opacity="1" data-original="#ff6768" class=""></circle><circle cx="11" cy="53" r="8" fill="#d9b489" opacity="1" data-original="#ff6768" class=""></circle></g><path fill="#ffffff" d="M15 59.94a8 8 0 0 1-8 0C7.67 57.77 9.22 56 11 56s3.37 1.77 4 3.94zM36 59.94a8 8 0 0 1-8 0c.63-2.17 2.18-3.94 4-3.94s3.37 1.77 4 3.94zM57 59.94a8 8 0 0 1-8 0c.63-2.17 2.18-3.94 4-3.94s3.37 1.77 4 3.94z" opacity="1" data-original="#263859" class=""></path><circle cx="53" cy="50.6" r="2" fill="#f9ca79" opacity="1" data-original="#f9ca79" class=""></circle><circle cx="11" cy="50.6" r="2" fill="#f9ca79" opacity="1" data-original="#f9ca79" class=""></circle><circle cx="32" cy="50.6" r="2" fill="#f9ca79" opacity="1" data-original="#f9ca79" class=""></circle><path fill="#d9b489" d="M50 17.63h-1.7a3.38 3.38 0 0 1-2.39-5.77l1.2-1.2-4.77-4.77-1.2 1.2a3.37 3.37 0 0 1-5.76-2.39V3h-6.75v1.7a3.38 3.38 0 0 1-5.77 2.39l-1.2-1.2-4.77 4.77 1.2 1.2a3.38 3.38 0 0 1-2.39 5.77H14v6.75h1.7a3.37 3.37 0 0 1 2.39 5.76l-1.2 1.2 4.77 4.77 1.2-1.2a3.38 3.38 0 0 1 5.77 2.39V39h6.75v-1.7a3.37 3.37 0 0 1 5.76-2.39l1.2 1.2 4.77-4.77-1.2-1.2a3.37 3.37 0 0 1 2.39-5.76H50z" opacity="1" data-original="#31464f" class=""></path><circle cx="32" cy="21" r="10" fill="#ffffff" opacity="1" data-original="#7ca2a1" class=""></circle><path d="M53 44a9 9 0 1 0 9 9 9 9 0 0 0-9-9zm0 16a7 7 0 0 1-2.74-.56C50.89 58 52 57 53 57s2.11 1 2.74 2.44A7 7 0 0 1 53 60zm4.45-1.6c-1-2.07-2.64-3.4-4.45-3.4s-3.48 1.33-4.45 3.4a7 7 0 1 1 8.9 0z" fill="#000000" opacity="1" data-original="#000000" class=""></path><path d="M53 47.6a3 3 0 1 0 3 3 3 3 0 0 0-3-3zm0 4a1 1 0 1 1 1-1 1 1 0 0 1-1 1zM11 62a9 9 0 1 0-9-9 9 9 0 0 0 9 9zm0-2a7 7 0 0 1-2.74-.56C8.89 58 10 57 11 57s2.11 1 2.74 2.44A7 7 0 0 1 11 60zm0-14a7 7 0 0 1 4.45 12.4c-1-2.07-2.64-3.4-4.45-3.4s-3.48 1.33-4.45 3.4A7 7 0 0 1 11 46z" fill="#000000" opacity="1" data-original="#000000" class=""></path><path d="M11 53.6a3 3 0 1 0-3-3 3 3 0 0 0 3 3zm0-4a1 1 0 1 1-1 1 1 1 0 0 1 1-1zM32 44a9 9 0 1 0 9 9 9 9 0 0 0-9-9zm0 16a7 7 0 0 1-2.74-.56C29.89 58 31 57 32 57s2.11 1 2.74 2.44A7 7 0 0 1 32 60zm4.45-1.6c-1-2.07-2.64-3.4-4.45-3.4s-3.48 1.33-4.45 3.4a7 7 0 1 1 8.9 0z" fill="#000000" opacity="1" data-original="#000000" class=""></path><path d="M32 47.6a3 3 0 1 0 3 3 3 3 0 0 0-3-3zm0 4a1 1 0 1 1 1-1 1 1 0 0 1-1 1zM48.3 25.38H50a1 1 0 0 0 1-1v-6.75a1 1 0 0 0-1-1h-1.7a2.38 2.38 0 0 1-1.68-4.06l1.2-1.2a1 1 0 0 0 .29-.71 1 1 0 0 0-.29-.71l-4.77-4.77a1 1 0 0 0-1.42 0l-1.2 1.2a2.37 2.37 0 0 1-4-1.68V3a1 1 0 0 0-1-1h-6.8a1 1 0 0 0-1 1v1.7a2.38 2.38 0 0 1-4.06 1.68l-1.2-1.2a1 1 0 0 0-1.42 0L16.18 10a1 1 0 0 0-.29.71 1 1 0 0 0 .29.71l1.2 1.2a2.38 2.38 0 0 1-1.68 4.06H14a1 1 0 0 0-1 1v6.75a1 1 0 0 0 1 1h1.7a2.37 2.37 0 0 1 1.68 4.05l-1.2 1.2a1 1 0 0 0-.29.71 1 1 0 0 0 .29.71L21 36.82a1 1 0 0 0 1.42 0l1.2-1.2a2.38 2.38 0 0 1 4.06 1.68V39a1 1 0 0 0 1 1h6.75a1 1 0 0 0 1-1v-1.7a2.37 2.37 0 0 1 4-1.68l1.2 1.2a1 1 0 0 0 1.42 0l4.77-4.77a1 1 0 0 0 .29-.71 1 1 0 0 0-.29-.71l-1.2-1.2a2.37 2.37 0 0 1 1.68-4.05zm-3.1 5.46.5.5-3.36 3.36-.5-.5a4.37 4.37 0 0 0-7.46 3.1v.7h-4.75v-.7a4.38 4.38 0 0 0-7.47-3.1l-.5.5-3.36-3.36.5-.5a4.37 4.37 0 0 0-3.1-7.46H15v-4.75h.7a4.38 4.38 0 0 0 3.1-7.47l-.5-.5 3.36-3.36.5.5a4.38 4.38 0 0 0 7.47-3.1V4h4.75v.7a4.37 4.37 0 0 0 7.46 3.1l.5-.5 3.36 3.36-.5.5a4.38 4.38 0 0 0 3.1 7.47h.7v4.75h-.7a4.37 4.37 0 0 0-3.1 7.46z" fill="#000000" opacity="1" data-original="#000000" class=""></path><path d="M32 10a11 11 0 1 0 11 11 11 11 0 0 0-11-11zm0 20a9 9 0 1 1 9-9 9 9 0 0 1-9 9z" fill="#000000" opacity="1" data-original="#000000" class=""></path><path d="m28.9 23.57-2.12-2.63-1.56 1.26L28 25.63a1 1 0 0 0 .69.37h.09a1 1 0 0 0 .65-.24l9.24-8-1.32-1.52z" fill="#000000" opacity="1" data-original="#000000" class=""></path></g></svg>