<svg xmlns="http://www.w3.org/2000/svg" version="1.1" xmlns:xlink="http://www.w3.org/1999/xlink" width="512" height="512" x="0" y="0" viewBox="0 0 512 512" style="enable-background:new 0 0 512 512" xml:space="preserve" class=""><g><clipPath id="a"><path d="M318.3 918.6H64.9c-13.6 0-24.8-11.1-24.8-24.8V561.5c0-13.6 11.1-24.8 24.8-24.8H277l66.1 66.1v291.1c-.1 13.6-11.2 24.7-24.8 24.7z" fill="#000000" opacity="1" data-original="#000000" class=""></path></clipPath><clipPath id="b"><path d="M213.2 403H60.6c0-10.8.7-70.2 2.1-80.5 8.3-61.7 40.4-64.6 84.2-90.9-43.8-26.4-75.9-29.2-84.2-90.9-1.4-10.3-2.1-69.7-2.1-80.5h305.2c0 10.8-.7 70.2-2.1 80.5-8.3 61.7-40.4 64.5-84.2 90.9 43.8 26.4 75.9 29.2 84.2 90.9 1.4 10.3 2.1 69.7 2.1 80.5z" fill="#000000" opacity="1" data-original="#000000" class=""></path></clipPath><clipPath id="c"><path d="M99.4 403h227.7c-.1-8.7-.2-20-.5-36.8-.6-30.5-78.3-62.2-115-62.2-36.8 0-111.1 31.7-111.7 62.2-.4 16.7-.3 28-.5 36.8z" fill="#000000" opacity="1" data-original="#000000" class=""></path></clipPath><clipPath id="d"><path d="M55.2 403h316.1c15.2 0 27.7 12.4 27.7 27.7 0 15.2-12.4 27.7-27.7 27.7H55.2c-36.4-1-36.6-54.4 0-55.4z" fill="#000000" opacity="1" data-original="#000000" class=""></path></clipPath><clipPath id="e"><path d="M413.3 507.3H284.5c-39.2 0-71.2-32.1-71.2-71.2 0-39.2 32.1-71.2 71.2-71.2h128.9c39.2 0 71.2 32.1 71.2 71.2-.1 39.1-32.1 71.2-71.3 71.2z" fill="#000000" opacity="1" data-original="#000000" class=""></path></clipPath><clipPath id="f"><path d="M55.2 4.7h316.1c15.2 0 27.7 12.4 27.7 27.7 0 15.2-12.4 27.7-27.7 27.7H55.2c-36.4-1-36.6-54.4 0-55.4z" fill="#000000" opacity="1" data-original="#000000" class=""></path></clipPath><g clip-path="url(#a)"><path fill="#e9ebef" fill-rule="evenodd" d="M290.4 918.6H37c-13.6 0-24.8-12.7-24.8-28.3V509.9c0-15.6 11.1-28.3 24.8-28.3h212l66.1 75.6v333.1c0 15.6-11.1 28.3-24.7 28.3z" clip-rule="evenodd" opacity="1" data-original="#e9ebef" class=""></path></g><path fill="#e9ebef" fill-rule="evenodd" d="M213.2 403H60.6c0-10.8.7-70.2 2.1-80.5 8.3-61.7 40.4-64.6 84.2-90.9-43.8-26.4-75.9-29.2-84.2-90.9-1.4-10.3-2.1-69.7-2.1-80.5h305.2c0 10.8-.7 70.2-2.1 80.5-8.3 61.7-40.4 64.5-84.2 90.9 43.8 26.4 75.9 29.2 84.2 90.9 1.4 10.3 2.1 69.7 2.1 80.5z" clip-rule="evenodd" opacity="1" data-original="#e9ebef" class=""></path><g clip-path="url(#b)"><path fill="#d5d6db" fill-rule="evenodd" d="M55.2 25.5h316.1c15.2 0 27.7 12.4 27.7 27.7 0 15.2-12.4 27.7-27.7 27.7H55.2c-36.4-1.1-36.6-54.4 0-55.4zM55.2 437.6h316.1c15.2 0 27.7-12.4 27.7-27.7 0-15.2-12.4-27.7-27.7-27.7H55.2c-36.4 1-36.6 54.4 0 55.4z" clip-rule="evenodd" opacity="1" data-original="#d5d6db" class=""></path></g><path fill="#1d1d27" fill-rule="evenodd" d="M213.2 407.4H60.6c-2.4 0-4.4-2-4.4-4.4 0-6.5.3-31.9.8-53.2-.5-77 27.1-90.7 81.1-118.3-54-27.6-81.6-41.3-81.1-118.3-.6-21.3-.8-46.6-.8-53.2 0-2.4 2-4.4 4.4-4.4h305.2c2.4 0 4.4 2 4.4 4.4 0 6.5-.3 31.9-.8 53.2.5 77-27 90.6-81.1 118.3 54.1 27.7 81.6 41.3 81.1 118.3.6 21.3.8 46.6.8 53.2 0 2.4-2 4.4-4.4 4.4zm-148.1-8.9h296.3c-2.3-68.3 10.1-119.4-59.5-149.7-35.4-18.6-35.5-16.1 0-34.7 69.6-30.2 57.2-81.7 59.5-149.7H65.1c2.3 68.3-10.1 119.4 59.5 149.7 35.4 18.6 35.5 16.1 0 34.7-69.6 30.3-57.2 81.8-59.5 149.7z" clip-rule="evenodd" opacity="1" data-original="#1d1d27" class=""></path><path fill="#d9b485" fill-rule="evenodd" d="M99.4 403h227.7c-.1-8.7-.2-20-.5-36.8-.6-30.5-78.3-62.2-115-62.2-36.8 0-111.1 31.7-111.7 62.2-.4 16.7-.3 28-.5 36.8z" clip-rule="evenodd" opacity="1" data-original="#89bbe9" class=""></path><g clip-path="url(#c)"><path fill="#ebebeb" fill-rule="evenodd" d="M46.1 296.8h334.2c-.2 6.2-.2 14.3-.7 26.3-.9 21.7-114.9 44.4-168.9 44.4-53.9 0-163.1-22.6-164-44.4-.4-12-.3-20.1-.6-26.3z" clip-rule="evenodd" opacity="1" data-original="#95ccff" class=""></path></g><path fill="#1d1d27" fill-rule="evenodd" d="M103.9 398.5h218.7c-.1-10.9-.1-19.3-.4-32.3-6.2-33.9-82.9-57.7-110.6-57.8-27.9 0-101.6 24.1-107.3 57.8-.3 13.1-.3 21.4-.4 32.3zm223.2 8.9H99.3c-3 0-4.8-2.9-4.3-5.7.1-3.1.1-7 .1-11.5.1-6.7.1-14.8.3-24.2 4.4-39.6 83.8-66.2 116.1-66.5 32.1.3 114.8 26.6 119.5 66.5.2 9.3.3 17.4.3 24.1 0 4.6.1 8.4.1 11.6.5 2.8-1.3 5.8-4.3 5.7z" clip-rule="evenodd" opacity="1" data-original="#1d1d27" class=""></path><path fill="#d9b485" fill-rule="evenodd" d="M55.2 403h316.1c15.2 0 27.7 12.4 27.7 27.7 0 15.2-12.4 27.7-27.7 27.7H55.2c-36.4-1-36.6-54.4 0-55.4z" clip-rule="evenodd" opacity="1" data-original="#fcb214" class=""></path><g clip-path="url(#d)"><path fill="#d9b485" fill-rule="evenodd" d="M41.3 403h343.8c18.1.3 18.3 27.3 0 27.7H41.3c-18-.4-18.2-27.4 0-27.7z" clip-rule="evenodd" opacity="1" data-original="#ffc023" class=""></path></g><path fill="#1d1d27" fill-rule="evenodd" d="M55.2 398.6h316.1c42.2 1.1 42.4 63 0 64.2H55.2c-8.8 0-16.8-3.6-22.7-9.4-20.1-19.2-5.4-55.4 22.7-54.8zm316.1 8.8H55.2c-30.5.8-30.7 45.6 0 46.5h316.1c30.5-.8 30.7-45.6 0-46.5zM208.8 217.8c0-5.8 8.8-5.8 8.9 0v30.5c0 5.8-8.8 5.8-8.9 0z" clip-rule="evenodd" opacity="1" data-original="#1d1d27" class=""></path><path fill="#d9b485" fill-rule="evenodd" d="M413.3 507.3H284.5c-39.2 0-71.2-32.1-71.2-71.2 0-39.2 32.1-71.2 71.2-71.2h128.9c39.2 0 71.2 32.1 71.2 71.2-.1 39.1-32.1 71.2-71.3 71.2z" clip-rule="evenodd" opacity="1" data-original="#5adb7a" class=""></path><g clip-path="url(#e)"><path fill="#d9b485" fill-rule="evenodd" d="M369.4 507.3H282c-50.6 0-92-41.4-92-92s41.4-92 92-92h87.4c50.6 0 92 41.4 92 92s-41.4 92-92 92z" clip-rule="evenodd" opacity="1" data-original="#6ff292" class=""></path></g><path fill="#1d1d27" fill-rule="evenodd" d="M413.3 511.7H284.5c-66.5.8-101-83.4-53.4-129.1 13.7-13.7 32.6-22.2 53.4-22.2h128.9c20.8 0 39.7 8.5 53.4 22.2 47.4 45.8 13.1 129.9-53.5 129.1zm-128.8-8.8h128.9c36.7 0 66.8-30.1 66.8-66.8s-30.1-66.8-66.8-66.8H284.5c-18.4 0-35.1 7.5-47.2 19.6-42 40.4-11.6 114.7 47.2 114z" clip-rule="evenodd" opacity="1" data-original="#1d1d27" class=""></path><path fill="#e9ebef" fill-rule="evenodd" d="M279.3 454.9c24.9-.7 24.9-37.1 0-37.7-24.9.6-24.9 37.1 0 37.7z" clip-rule="evenodd" opacity="1" data-original="#e9ebef" class=""></path><path fill="#1d1d27" fill-rule="evenodd" d="M279.3 412.7c30.7.8 30.7 45.8 0 46.6-30.7-.7-30.7-45.8 0-46.6zm10.2 13.1c-13.6-13.2-33.6 6.8-20.4 20.4 13.6 13.3 33.6-6.7 20.4-20.4z" clip-rule="evenodd" opacity="1" data-original="#1d1d27" class=""></path><path fill="#e9ebef" fill-rule="evenodd" d="M348.9 454.9c24.9-.7 24.9-37.1 0-37.7-24.9.6-24.9 37.1 0 37.7z" clip-rule="evenodd" opacity="1" data-original="#e9ebef" class=""></path><path fill="#1d1d27" fill-rule="evenodd" d="M348.9 412.7c30.7.8 30.7 45.8 0 46.6-30.8-.7-30.7-45.8 0-46.6zm10.2 13.1c-13.6-13.2-33.6 6.8-20.4 20.4 13.6 13.3 33.6-6.7 20.4-20.4z" clip-rule="evenodd" opacity="1" data-original="#1d1d27" class=""></path><path fill="#e9ebef" fill-rule="evenodd" d="M418.4 454.9c24.9-.7 24.9-37.1 0-37.7-24.8.6-24.8 37.1 0 37.7z" clip-rule="evenodd" opacity="1" data-original="#e9ebef" class=""></path><path fill="#1d1d27" fill-rule="evenodd" d="M418.4 412.7c30.7.8 30.7 45.8 0 46.6-30.7-.7-30.7-45.8 0-46.6zm10.3 13.1c-13.6-13.2-33.6 6.8-20.4 20.4 13.6 13.3 33.6-6.7 20.4-20.4z" clip-rule="evenodd" opacity="1" data-original="#1d1d27" class=""></path><path fill="#d9b485" fill-rule="evenodd" d="M141 191.7c-5-3-8.8-7.1-11.1-12 65 8.1 75.8 15.5 129.8-26.1 12.6-12.6 28.4-7.1 34.7 0 8.8 9.9 8.7 28-8.5 37.9-17.5 10.1-52.8 35.4-71.4 35.4-20.1 1.3-55-24.3-73.5-35.2z" clip-rule="evenodd" opacity="1" data-original="#89bbe9" class=""></path><path fill="#1d1d27" fill-rule="evenodd" d="M138.7 195.5c-5.1-3.1-18.5-14.6-10.7-19.8 6.8-.9 14.5 1.7 21.7 2.2 46.9 6.7 62.5 7.6 108.4-28.7 19.3-18 50.5-.9 46.3 23.9-1.6 15.4-16.6 22.7-29.3 30.4-19 11.9-44.6 27.9-60.4 27.9-21.8.9-53.8-22.7-76-35.9zm1.1-10c21.3 13.2 54.6 37.6 74.8 37.1 13.4 0 37.7-15.2 55.8-26.5 7.2-4.8 12.6-7.1 18.3-11.7 8.6-7.4 9.6-19.6 2.5-27.7-7.2-7.7-20.6-8.3-28.7.6-51.6 40.7-69.8 35.5-122.7 28.2z" clip-rule="evenodd" opacity="1" data-original="#1d1d27" class=""></path><path fill="#ebebeb" fill-rule="evenodd" d="M286.1 191.7c5-3 8.8-7.1 11.1-12-65 8.1-75.8 15.5-129.8-26.1-12.6-12.6-28.4-7.1-34.7 0-8.8 9.9-8.7 28 8.5 37.9 17.5 10.1 52.8 35.4 71.4 35.4 20 1.3 54.9-24.3 73.5-35.2z" clip-rule="evenodd" opacity="1" data-original="#95ccff" class=""></path><path fill="#1d1d27" fill-rule="evenodd" d="M283.8 187.9c1.2-.7 2.4-1.6 3.4-2.4-52.9 7.3-71.1 12.5-122.6-28.3-8.1-8.9-21.6-8.3-28.7-.6-7 8.1-6 20.3 2.5 27.7 5.7 4.6 11.1 6.9 18.3 11.7 18 11.3 42.4 26.5 55.8 26.5 19 1 50.4-22.3 71.3-34.6zm12 1.5c-5.4 5.7-11.5 8.1-18.6 13-20.3 12.6-46.6 30-64.8 29-22.2-1.1-57.9-26.2-79.9-40.5-18.6-15.6-10.1-46.7 14.5-49 7.4-1 16.5 1.6 23.3 8.5 46.6 35.7 60 33.9 107.1 27.5 11.9-1.3 34.9-8.2 18.4 11.5z" clip-rule="evenodd" opacity="1" data-original="#1d1d27" class=""></path><path fill="#d9b485" fill-rule="evenodd" d="M55.2 4.7h316.1c15.2 0 27.7 12.4 27.7 27.7 0 15.2-12.4 27.7-27.7 27.7H55.2c-36.4-1-36.6-54.4 0-55.4z" clip-rule="evenodd" opacity="1" data-original="#fcb214" class=""></path><g clip-path="url(#f)"><path fill="#d9b485" fill-rule="evenodd" d="M41.3 4.7h329.9c18.1.3 18.3 27.3 0 27.7H41.3c-18-.3-18.2-27.3 0-27.7z" clip-rule="evenodd" opacity="1" data-original="#ffc023" class=""></path></g><path fill="#1d1d27" fill-rule="evenodd" d="M55.2.3h316.1c42.2 1.1 42.4 63 0 64.2H55.2c-8.8 0-16.8-3.6-22.7-9.4C12.4 35.9 27.1-.3 55.2.3zm316.1 8.9H55.2c-30.5.8-30.7 45.6 0 46.5h316.1c30.5-.9 30.7-45.7 0-46.5z" clip-rule="evenodd" opacity="1" data-original="#1d1d27" class=""></path></g></svg>