<svg xmlns="http://www.w3.org/2000/svg" version="1.1" xmlns:xlink="http://www.w3.org/1999/xlink" width="512" height="512" x="0" y="0" viewBox="0 0 6.827 6.827" style="enable-background:new 0 0 512 512" xml:space="preserve" fill-rule="evenodd" class=""><g><g fill="none"><path d="M0 0h6.827v6.827H0z" fill="" opacity="1"></path><path d="M.853.853h5.12v5.12H.853z" fill="" opacity="1"></path></g><path fill="#d9b485" d="m1.527 1.836-.469-.4L2.314 1.4l-.136 1.327-.345-.593a2.226 2.226 0 0 0-.226.308 2.233 2.233 0 0 0 .218 2.625l.069.081-.323.278-.07-.08a2.886 2.886 0 0 1-.259-.357 2.657 2.657 0 0 1-.33-.833 2.657 2.657 0 0 1 .615-2.32zM5.3 4.991l.468.4-1.255.035.135-1.327.346.594a2.226 2.226 0 0 0 .226-.309 2.233 2.233 0 0 0-.218-2.625l-.07-.08.324-.279.07.082a2.886 2.886 0 0 1 .258.355 2.657 2.657 0 0 1 .33.833A2.657 2.657 0 0 1 5.3 4.991z" opacity="1" data-original="#f50057" class=""></path><path fill="#727272" d="m2.805 4.034 1.833-1.833.302.302-2.135 2.134-.15-.15-.866-.866.302-.301z" opacity="1" data-original="#00897b" class=""></path></g></svg>