<svg xmlns="http://www.w3.org/2000/svg" version="1.1" xmlns:xlink="http://www.w3.org/1999/xlink" width="512" height="512" x="0" y="0" viewBox="0 0 512 512" style="enable-background:new 0 0 512 512" xml:space="preserve" fill-rule="evenodd" class=""><g><path d="M215 164c-2 0-4-1-5-3l-15-25c-1-3 0-7 2-9 3-1 7 0 9 3l14 25c2 3 1 6-2 8-1 1-2 1-3 1zm41 348c-68 0-133-27-181-75S0 324 0 256 27 123 75 75 188 0 256 0s133 27 181 75 75 113 75 181-27 133-75 181-113 75-181 75zm0-500C121 12 12 121 12 256s109 244 244 244 244-109 244-244S391 12 256 12zm0 469c-60 0-117-23-159-66-43-42-66-99-66-159 0-58 22-112 61-154v-1h1v-1l2-1c1-1 1-2 2-2 1-1 2-2 3-4h1v-1h1c42-39 96-61 154-61 60 0 117 23 159 66 43 42 66 99 66 159 0 58-22 113-62 155v1l-2 1c-1 1-1 2-2 2 0 1-1 1-2 2l-1 2c-42 40-98 62-156 62zm0-438c-51 0-98 18-135 48l96 95c10-10 24-15 39-15 28 0 51 19 57 45h76c9 0 17 8 17 18v76c0 2 0 4-1 5h17c4 0 6 3 6 6v41c0 3-2 6-6 6h-24l23 23c30-37 48-84 48-135 0-117-96-213-213-213zM112 99l-13 13 109 110 96 95 40 40 56 56 13-13-30-31-4-3-40-40-53-53v-1l-56-56h-1zm-21 22c-30 37-48 84-48 135 0 117 96 213 213 213 51 0 98-18 135-48l-21-21h-53c-4 0-6-2-6-6v-26H201v26c0 4-2 6-6 6h-70c-3 0-6-2-6-6v-26H90c-4 0-6-3-6-6v-41c0-3 2-6 6-6h17c-1-1-1-3-1-5v-76c0-10 8-18 17-18h63zm267 267-21-20h-14v20zm-33-32-28-29H96v29zm-40-41-28-28h-10c0-1-1-1-1-1h-3c-1 0-1-1-2-1h-2c-1-1-1-1-2-1h-1c0-1-1-1-1-1h-2c0-1-1-1-1-1s-1 0-1-1h-2c-1 0 0-1-1-1s-1 0-1-1h-1l-1-1c-1 0-1-1-2-1l-1-1c-1-1 0 0-1 0 0-1-1-1-1-1 0-1-1-1-1-1l-1-1-1-1c-1 0-1-1-1-1-1 0-1-1-1-1-1 0-1-1-1-1-1 0-1-1-1-1l-1-1-1-1-1-1c0-1 0-1-1-1 0-1 0-1-1-1v-2c-1 0-1 0-1-1l-1-1s0-1-1-1v-1c0-1-1-1-1-2s0 0-1-1v-1c0-1-1-1-1-1v-2c0-1-1-1-1-1v-1c0-1-1-1-1-2v-3c-1 0-1 0-1-1v-3l-1-1v-10h-75c-3 0-5 3-5 6v76c0 3 2 5 5 5h80v-18c0-3 3-6 6-6 4 0 6 3 6 6v18zm-42-42-31-31c3 12 11 21 21 27 0 0 1 0 1 1h1s1 0 1 1h1s1 0 1 1h2c0 1 1 1 1 1h1zm-18-79 9 9c6-5 14-8 22-8 3 0 6 3 6 6s-3 6-6 6c-5 0-10 2-14 5l48 48c4-4 7-9 9-14 2-6 3-11 3-17v-6c-3-23-23-40-46-40-11 0-22 4-31 11zm74 74 25 25c1-1 3-2 4-2h46c3 0 6 2 6 6 0 3-3 6-6 6h-41l13 12h43c3 0 5-2 5-5v-76c0-3-2-6-5-6h-75v4c0 3 0 6-1 9-1 7-4 14-8 20l-1 1c-1 2-2 3-4 5l-1 1zm59 59 28 29h30v-29zm-174-74h-46c-3 0-6-3-6-6s3-6 6-6h46c3 0 6 3 6 6s-3 6-6 6zm0 25h-46c-3 0-6-3-6-6 0-4 3-6 6-6h46c3 0 6 2 6 6 0 3-3 6-6 6zm0 25h-46c-3 0-6-3-6-6 0-4 3-6 6-6h46c3 0 6 2 6 6 0 3-3 6-6 6zm190-50h-46c-3 0-6-3-6-6s3-6 6-6h46c3 0 6 3 6 6s-3 6-6 6zm0 25h-46c-3 0-6-3-6-6 0-4 3-6 6-6h46c3 0 6 2 6 6 0 3-3 6-6 6zM131 388h58v-20h-58zm125-235c-3 0-6-3-6-6v-29c0-4 3-6 6-6s6 2 6 6v29c0 3-3 6-6 6zm41 11c-1 0-2 0-3-1-3-2-4-5-2-8l14-25c2-3 6-4 9-3 2 2 3 6 2 9l-15 25c-1 2-3 3-5 3zm30 30c-2 0-4-1-5-3-2-3-1-7 2-8l25-15c3-2 7-1 8 2 2 3 1 7-2 9l-25 14c-1 1-2 1-3 1z" fill="#000000" opacity="1" data-original="#000000" class=""></path><path fill="#ffffff" d="M217 186c33-30 86-14 96 30h76c9 0 17 8 17 18v76c0 2 0 4-1 5h17c4 0 6 3 6 6v41c0 3-2 6-6 6h-24l23 23c30-37 48-84 48-135 0-117-96-213-213-213-51 0-98 18-135 48zm138-7-25 14c-1 1-2 1-3 1-6 0-8-8-3-11l25-15c7-4 13 7 6 11zm-93-61v29c0 3-3 6-6 6s-6-3-6-6v-29c0-8 12-8 12 0zm-47 46c-2 0-4-1-5-3l-15-25c-4-7 7-13 11-6l14 25c3 4 0 9-5 9zm82 0c-5 0-8-5-5-9l14-25c4-7 15-1 11 6l-15 25c-1 2-3 3-5 3z" opacity="1" data-original="#ffffff" class=""></path><path fill="#90d8f9" d="M299 246c11-29-9-63-43-63-11 0-22 4-31 11l9 9c9-8 28-13 28-2 0 3-3 6-6 6-5 0-10 2-14 5l48 48c4-4 7-9 9-14z" opacity="1" data-original="#90d8f9" class=""></path><path fill="#ffffff" d="m186 216-95-95c-30 37-48 84-48 135 0 117 96 213 213 213 51 0 98-18 135-48l-21-21h-53c-4 0-6-2-6-6v-26H201v26c0 4-2 6-6 6h-70c-3 0-6-2-6-6v-26H90c-4 0-6-3-6-6v-41c0-3 2-6 6-6h17c-1-1-1-3-1-5v-76c0-10 8-18 17-18z" opacity="1" data-original="#ffffff" class=""></path><path fill="#ded8d0" d="M31 256C31 132 132 31 256 31s225 101 225 225-101 225-225 225S31 380 31 256zm-19 0c0 135 109 244 244 244s244-109 244-244S391 12 256 12 12 121 12 256z" opacity="1" data-original="#dd352e" class=""></path><path fill="#ded8d0" d="m99 112 301 301 13-13L112 99l-13 13z" opacity="1" data-original="#dd352e" class=""></path><path fill="#ffffff" d="M297 327H96v29h229z" opacity="1" data-original="#407093" class=""></path><path fill="#d9b485" d="M189 368h-58v20h58z" opacity="1" data-original="#5766cb" class=""></path><path fill="#d9b485" d="M215 315h70l-28-28h-10l-1-1h-3l-2-1h-2l-2-1h-1l-1-1h-2l-1-1-1-1h-2l-1-1-1-1h-1l-1-1-3-2h-1l-1-1-2-2-1-1c-4-4-8-8-11-13-6-9-8-20-8-31h-75c-3 0-5 3-5 6v76c0 3 2 5 5 5h80v-18c0-8 12-8 12 0zm-31-62h-46c-8 0-8-12 0-12h46c7 0 7 12 0 12zm0 25h-46c-8 0-8-12 0-12h46c7 0 7 12 0 12zm0 25h-46c-8 0-8-12 0-12h46c7 0 7 12 0 12zM299 268l25 25c1-1 3-2 4-2h46c8 0 8 12 0 12h-41l13 12h43c3 0 5-2 5-5v-76c0-3-2-6-5-6h-75v4c0 3 0 6-1 9-1 7-4 14-8 20l-1 1c-1 2-2 3-4 5zm75-15h-46c-7 0-7-12 0-12h46c8 0 8 12 0 12zm-46 25c-7 0-7-12 0-12h46c8 0 8 12 0 12z" opacity="1" data-original="#707dd3" class=""></path><path fill="#ffffff" d="M416 327h-58l28 29h30z" opacity="1" data-original="#407093" class=""></path><path fill="#d9b485" d="m358 388-21-20h-14v20z" opacity="1" data-original="#5766cb" class=""></path><path fill="#90d8f9" d="m233 269 10 4-31-31c3 12 11 21 21 27z" opacity="1" data-original="#90d8f9" class=""></path></g></svg>