<svg xmlns="http://www.w3.org/2000/svg" version="1.1" xmlns:xlink="http://www.w3.org/1999/xlink" width="512" height="512" x="0" y="0" viewBox="0 0 512 512" style="enable-background:new 0 0 512 512" xml:space="preserve" class=""><g><g fill-rule="evenodd" clip-rule="evenodd"><path fill="#ffffff" d="M155.317 356.607c-17.138-82.188-77.251-100.052-118.809-103.726 7.181-93.999 7.266-127.309 6.24-138.684-.366-4.058 195.775.323 235.297 1.234 4.462.102-122.689 241.179-122.728 241.176z" opacity="1" data-original="#ffd6bd" class=""></path><path fill="#d9b485" d="M349.615 134.888v29.86c75.987 70.898 142.553 173.367 77.413 258.673-26.106 34.19-63.124 52.5-106.142 52.5h-91.461c-43.025 0-80.047-18.316-106.152-52.514-65.121-85.312 1.44-187.767 77.425-258.659v-29.86c-4.616-12.333-7.014-16.945-19.894-35.33-22.372-31.932-17.837-42.749 36.809-22.551 22.938 8.478 13.28-32.919 57.544-32.919 44.265 0 34.606 41.397 57.545 32.919 54.646-20.198 59.18-9.38 36.809 22.551-12.882 18.385-15.28 22.997-19.896 35.33z" opacity="1" data-original="#da8c36" class=""></path><path fill="#d9b485" d="M349.614 134.888v29.86c75.988 70.898 142.554 173.366 77.413 258.673-26.106 34.19-63.124 52.5-106.142 52.5h-22.02c43.019 0 80.036-18.31 106.142-52.5 65.14-85.307-1.426-187.775-77.413-258.673v-29.86c4.616-12.333 7.014-16.945 19.895-35.33 11.051-15.773 15.532-26.391 10.653-30.666 29.956-7.326 29.576 4.675 11.367 30.666-12.88 18.385-15.278 22.997-19.895 35.33zM170.149 68.892c4.475-3.924 16.836-2.503 39.237 5.181-3.27 3.668-7.174 5.381-13.795 2.934-10.166-3.758-18.595-6.44-25.442-8.115zm93.996-23.804c31.74 6.263 25.728 39.61 46.534 31.919a366.7 366.7 0 0 1 8.225-2.934c-8.059-9.041-12.262-29.985-43.749-29.985-4.113 0-7.758.358-11.01 1z" opacity="1" data-original="#c97629" class=""></path><path fill="#ffda2d" d="M193.204 131.421h163.903c10.118 0 18.397 8.278 18.397 18.397 0 10.118-8.28 18.396-18.397 18.396H193.204c-10.117 0-18.397-8.278-18.397-18.396s8.278-18.397 18.397-18.397z" opacity="1" data-original="#ffda2d" class=""></path><path fill="#ffc700" d="M193.204 131.421h163.903c7.917 0 14.707 5.067 17.287 12.119a18.244 18.244 0 0 0-6.277-1.11H204.214c-10.118 0-18.396 8.278-18.396 18.397 0 2.201.392 4.316 1.11 6.277-7.051-2.58-12.12-9.37-12.12-17.286-.001-10.118 8.277-18.397 18.396-18.397z" opacity="1" data-original="#ffc700" class=""></path><ellipse cx="275.155" cy="320.334" fill="#fdb800" rx="105.759" ry="105.756" opacity="1" data-original="#fdb800" class=""></ellipse><path fill="#f4a40e" d="M343.706 239.808c22.766 19.398 37.208 48.274 37.208 80.526 0 58.408-47.35 105.756-105.759 105.756-32.253 0-61.13-14.442-80.528-37.207 18.461 15.73 42.395 25.23 68.55 25.23 58.409 0 105.759-47.349 105.759-105.756 0-26.155-9.499-50.088-25.23-68.549z" opacity="1" data-original="#f4a40e" class=""></path><circle cx="275.155" cy="320.334" r="73.817" fill="#ffda2d" opacity="1" data-original="#ffda2d" class=""></circle><g fill="#ffc700"><path d="M275.156 246.518c21.345 0 40.57 9.064 54.048 23.547-12.243-9.021-27.368-14.355-43.742-14.355-40.769 0-73.818 33.049-73.818 73.816 0 19.423 7.506 37.09 19.77 50.27-18.24-13.44-30.076-35.067-30.076-59.462 0-40.767 33.049-73.816 73.818-73.816z" fill="#ffc700" opacity="1" data-original="#ffc700" class=""></path><path d="M259.88 282.512a8.263 8.263 0 0 1 16.526 0v5.451a23.775 23.775 0 0 1 5.579 2.04c3.374 1.733 6.263 4.213 8.422 7.2a8.251 8.251 0 0 1-13.363 9.683c-.692-.957-1.566-1.725-2.548-2.229-.932-.478-2.03-.749-3.233-.749h-4.839c-1.946 0-3.721.802-5.013 2.094s-2.094 3.068-2.094 5.013c0 1.946.802 3.722 2.094 5.014s3.068 2.095 5.013 2.095h3.436c6.508 0 12.419 2.657 16.698 6.936 4.28 4.28 6.936 10.19 6.936 16.698s-2.656 12.419-6.936 16.698a23.681 23.681 0 0 1-10.153 6.011v5.794a8.263 8.263 0 0 1-16.526 0v-5.451a23.791 23.791 0 0 1-5.579-2.04c-3.374-1.732-6.263-4.213-8.423-7.2a8.251 8.251 0 0 1 13.363-9.683c.691.956 1.566 1.725 2.548 2.229.932.478 2.03.749 3.233.749h4.839c1.945 0 3.721-.802 5.013-2.094s2.094-3.068 2.094-5.014-.802-3.721-2.094-5.013-3.068-2.095-5.013-2.095h-3.436c-6.508 0-12.418-2.656-16.698-6.936-4.279-4.28-6.936-10.191-6.936-16.698 0-6.508 2.657-12.418 6.936-16.698a23.687 23.687 0 0 1 10.153-6.011v-5.794z" fill="#ffc700" opacity="1" data-original="#ffc700" class=""></path></g><path fill="#ffffff" d="M39.063 100.513c70.496-2.399 86.434-31.68 130.098-47.935 14.937-5.561 30.237-7.462 44.299.04 36.284 19.358 68.525 39.007 104.06 59.71 16.77 9.77 22.514 31.556 12.744 48.326-9.785 16.793-31.531 22.527-48.324 12.744-17.567-10.234-48.96-27.795-68.587-39.122-54.626 62.227-153.379 50.512-174.29-33.763z" opacity="1" data-original="#ffd6bd" class=""></path><path fill="#f9c6aa" d="M122.317 155.876c30.698 1.101 63.225-11.953 87.232-39.301 19.628 11.327 51.021 28.888 68.587 39.122 16.793 9.783 38.54 4.049 48.324-12.744a34.964 34.964 0 0 0 4.728-16.088c5.226 10.358 5.306 23.093-.925 33.789-9.785 16.793-31.531 22.527-48.324 12.744-17.566-10.234-48.959-27.795-68.587-39.122-25 28.479-59.242 41.46-91.035 39.096-4.832 0-8.748-3.916-8.748-8.748s3.916-8.748 8.748-8.748z" opacity="1" data-original="#f9c6aa" class=""></path><path fill="#986729" d="M59.341 87.917v177.044c0 4.49-3.673 8.163-8.161 8.163H17.161c-4.488 0-8.161-3.672-8.161-8.163V87.917c0-4.49 3.673-8.163 8.161-8.163H51.18c4.488 0 8.161 3.673 8.161 8.163z" opacity="1" data-original="#64b5f6" class=""></path><path fill="#ebd6bc" d="M59.341 87.917v177.044c0 4.49-3.673 8.162-8.161 8.162H17.161c-4.489 0-8.161-3.672-8.161-8.162v-1.862h32.155c4.488 0 8.161-3.672 8.161-8.162V79.754h1.864c4.488 0 8.161 3.673 8.161 8.163z" opacity="1" data-original="#42a5f5" class=""></path><circle cx="419.011" cy="294.029" r="83.989" fill="#ffffff" opacity="1" data-original="#fc685b" class=""></circle><g fill="#f35244"><path d="M473.186 229.853C491.418 245.26 503 268.29 503 294.029c0 46.386-37.603 83.989-83.989 83.989-25.739 0-48.769-11.582-64.176-29.814 14.625 12.359 33.529 19.814 54.175 19.814 46.386 0 83.989-37.604 83.989-83.989.001-20.648-7.454-39.551-19.813-54.176z" fill="#d9b485" opacity="1" data-original="#f35244" class=""></path><path d="M436.586 260.248a8 8 0 0 1 11.312 11.312l-63.496 63.496a8 8 0 0 1-11.313-11.312zm1.15 39.844a24.723 24.723 0 0 0-17.537 7.265c-4.488 4.489-7.265 10.689-7.265 17.537s2.777 13.049 7.265 17.537 10.689 7.265 17.537 7.265 13.049-2.777 17.537-7.265 7.265-10.689 7.265-17.537-2.777-13.049-7.265-17.537-10.689-7.265-17.537-7.265zm6.225 18.578c-1.592-1.592-3.794-2.578-6.225-2.578s-4.632.986-6.225 2.578a8.776 8.776 0 0 0-2.577 6.225 8.78 8.78 0 0 0 2.577 6.225 8.776 8.776 0 0 0 6.225 2.578 8.776 8.776 0 0 0 6.225-2.578 8.776 8.776 0 0 0 2.578-6.225 8.78 8.78 0 0 0-2.578-6.225zm-60.706-73.06a24.726 24.726 0 0 0-17.537 7.265 24.727 24.727 0 0 0-7.265 17.537h.031c0 6.869 2.765 13.068 7.234 17.537 4.488 4.488 10.689 7.265 17.537 7.265s13.049-2.776 17.537-7.265c4.488-4.488 7.265-10.689 7.265-17.537s-2.777-13.049-7.265-17.537a24.721 24.721 0 0 0-17.537-7.265zm6.224 18.577c-1.592-1.592-3.793-2.577-6.225-2.577s-4.633.986-6.225 2.577a8.776 8.776 0 0 0-2.577 6.225h-.031c0 2.41.997 4.613 2.609 6.225a8.776 8.776 0 0 0 6.225 2.578 8.776 8.776 0 0 0 6.225-2.578 8.778 8.778 0 0 0 2.578-6.225 8.777 8.777 0 0 0-2.579-6.225z" fill="#d9b485" opacity="1" data-original="#f35244" class=""></path></g><path fill="#986729" d="M448.628 102.175h-16.38c-3.623.001-5.841-4.173-3.523-7.173l33.141-42.888a4.449 4.449 0 0 1 7.044 0l33.141 42.888c2.318 2.999.099 7.174-3.525 7.173h-16.379v80.963a5.845 5.845 0 0 1-5.833 5.833H454.46a5.845 5.845 0 0 1-5.833-5.833v-80.963z" opacity="1" data-original="#64b5f6" class=""></path><path fill="#ebd6bc" d="m459.136 55.648 2.731-3.534a4.449 4.449 0 0 1 7.044 0l33.141 42.888c2.318 2.999.099 7.174-3.525 7.173h-12.505c3.624.002 5.843-4.173 3.525-7.173zm23.012 46.527h-12.505v80.963a5.845 5.845 0 0 1-5.833 5.833h12.505a5.844 5.844 0 0 0 5.833-5.833z" opacity="1" data-original="#42a5f5" class=""></path><path d="M439.469 90.173h9.15c4.433 0 8.018 3.58 8.018 7.999v78.802h17.498V98.172c0-4.419 3.585-7.999 8.018-7.999h9.15l-25.94-33.529zm-18.441 9.018c-2.075-4.278-1.557-9.287 1.368-13.079l33.157-42.886a12.272 12.272 0 0 1 9.81-4.839c3.915 0 7.499 1.759 9.857 4.839l33.156 42.886c2.924 3.792 3.443 8.801 1.368 13.079-2.122 4.315-6.414 6.985-11.225 6.985h-8.395v72.958c0 7.631-6.178 13.838-13.819 13.838h-21.837c-7.641 0-13.866-6.207-13.866-13.838v-72.958h-8.348c-4.812 0-9.104-2.67-11.226-6.985zm34.005 218.073c0-4.848-3.915-8.801-8.773-8.801s-8.82 3.952-8.82 8.801c0 4.858 3.962 8.81 8.82 8.81 4.859 0 8.773-3.952 8.773-8.81zm16.036 0c0 13.678-11.13 24.809-24.808 24.809s-24.809-11.131-24.809-24.809c0-13.673 11.131-24.799 24.809-24.799 13.677 0 24.808 11.126 24.808 24.799zm-79.283-45.679c4.858 0 8.773-3.943 8.773-8.801 0-4.849-3.915-8.801-8.773-8.801s-8.82 3.952-8.82 8.801c0 4.859 3.962 8.801 8.82 8.801zm0 15.999c-13.678 0-24.809-11.121-24.809-24.799 0-13.673 11.131-24.804 24.809-24.804s24.809 11.131 24.809 24.804c-.001 13.677-11.131 24.799-24.809 24.799zm64.615-34.959c3.113 3.118 3.113 8.188 0 11.305l-63.483 63.502a7.924 7.924 0 0 1-5.66 2.339 8.007 8.007 0 0 1-5.66-2.339 8.028 8.028 0 0 1 0-11.32l63.483-63.488c3.161-3.13 8.207-3.13 11.32.001zm38.58 37.397c0 41.901-34.053 75.991-75.982 75.991-41.882 0-75.982-34.09-75.982-75.991s34.1-75.986 75.982-75.986c41.93 0 75.982 34.085 75.982 75.986zm-155.076-46.919c-17.875-15.861-40.656-24.53-64.756-24.53-53.909 0-97.772 43.849-97.772 97.762 0 53.899 43.863 97.748 97.772 97.748 36.411 0 69.661-20.29 86.499-52.188-4.386-3.495-8.395-7.372-12.074-11.593-5.282 11.551-13.253 21.86-23.252 29.879-14.432 11.584-32.638 17.965-51.173 17.965-45.089 0-81.83-36.703-81.83-81.811 0-45.122 36.741-81.821 81.83-81.821 21.79 0 42.401 8.641 57.54 23.667a95.062 95.062 0 0 1 7.216-15.078zm-12.876 46.919c0 16.092 4.151 31.223 11.414 44.382-8.018 28.261-33.628 47.74-63.294 47.74-36.27 0-65.794-29.52-65.794-65.808 0-36.302 29.525-65.823 65.794-65.823 20.894 0 40.372 9.862 52.777 26.511-.567 4.249-.897 8.588-.897 12.998zm112.487 89.683c-4.103 12.159-10.423 23.842-18.866 34.859-24.62 32.289-59.144 49.362-99.753 49.362h-91.499c-40.609 0-75.133-17.083-99.753-49.372-27.78-36.401-32.213-79.104-13.159-126.933 19.149-47.966 57.588-90.768 87.396-118.878h60.889c4.858 2.769 9.338 5.348 13.159 7.561a43.024 43.024 0 0 0 21.743 5.881 43.46 43.46 0 0 0 31.411-13.442h15.328c12.923 12.169 24.809 24.61 35.515 37.109-12.593 5.57-23.724 13.899-32.638 24.21-20.611-17.79-46.598-27.488-74.142-27.488-62.729 0-113.761 51.032-113.761 113.76 0 62.719 51.032 113.751 113.761 113.751 41.788 0 80.085-22.993 99.894-59.281 13.065 7.15 28.063 11.207 43.957 11.207 7.076 0 13.915-.797 20.518-2.306zM208.694 152.741h27.921a4658.105 4658.105 0 0 1-21.648-12.329 181.962 181.962 0 0 1-6.273 6.433zm-99.375 111.793c-12.216-8.24-26.27-14.451-41.976-18.54V101.855c31.27-5.103 50.23-16.404 68.577-27.374 11.414-6.82 22.215-13.267 36.034-18.418 15.47-5.759 27.45-5.881 37.731-.401 27.119 14.461 51.692 28.94 77.727 44.264a5807.032 5807.032 0 0 0 26.082 15.309c6.273 3.646 10.753 9.57 12.64 16.658 1.839 7.098.849 14.461-2.783 20.719-7.593 13.032-24.337 17.451-37.401 9.862-9.527-5.551-23.252-13.352-36.6-20.894-11.32-6.419-23.016-13.046-31.977-18.248a8.048 8.048 0 0 0-10.046 1.66c-34.477 39.26-56.691 38.477-90.178 33.958-4.386-.599-8.395 2.481-9.008 6.853-.566 4.377 2.499 8.41 6.886 8.999 24.384 3.297 45.372 4.429 68.152-8.329-25.47 25.301-54.759 59.509-73.86 98.061zM51.354 83.905c0-.071-.094-.16-.189-.16H17.16c-.047 0-.142.09-.142.16v177.05c0 .071.094.16.142.16h34.005c.094 0 .189-.09.189-.16zm197.43-24.96c15.659 8.891 30.94 17.889 46.74 27.2 8.443 4.971 17.168 10.117 26.035 15.257 8.442 4.933 14.857 12.442 18.394 21.483h4.198c4.056-10.103 7.735-16.154 18.819-31.921 8.584-12.281 10.612-17.922 11.036-20.139-2.971-.382-12.31-.023-38.533 9.678-16.319 6.018-23.582-5.721-28.44-13.503-5.754-9.296-11.697-18.927-31.883-18.927-14.056.001-21.084 4.392-26.366 10.872zm112.109 79.939h-17.875a41.944 41.944 0 0 1-2.217 13.857h20.092c3.82 0 6.933-3.108 6.933-6.928 0-3.821-3.112-6.929-6.933-6.929zm97.112 234.439c-4.245 18.003-12.546 35.119-24.62 50.947-27.827 36.401-66.69 55.654-112.487 55.654h-91.499c-45.796 0-84.707-19.252-112.487-55.668-31.411-41.184-36.552-89.141-15.281-142.554.33-.788.66-1.566.991-2.358-10.188-7.292-22.026-12.899-35.373-16.781-.802 8.159-7.688 14.55-16.083 14.55H17.16c-8.914 0-16.177-7.249-16.177-16.158V83.905c0-8.91 7.263-16.159 16.177-16.159h34.005c8.914 0 16.177 7.249 16.177 16.159v1.722c26.742-4.783 43.108-14.574 60.37-24.875 11.508-6.895 23.441-14.032 38.675-19.677 19.762-7.372 36.411-7.221 50.843.477 5.895 3.15 11.697 6.31 17.404 9.471 6.414-8.669 17.639-18.946 40.514-18.946 29.053 0 38.958 15.946 45.513 26.497 5.188 8.423 5.566 8.282 9.244 6.924 34.147-12.612 50.23-13.942 57.305-4.735 7.593 9.801-.896 24.724-11.131 39.382-7.924 11.291-11.697 17.121-14.479 22.747 12.31.373 22.261 10.513 22.261 22.922 0 10.102-6.603 18.691-15.659 21.743 10.848 10.82 20.894 21.818 30.044 32.84a92.31 92.31 0 0 1 20.752-2.363c50.749 0 92.018 41.274 92.018 91.989.001 36.792-21.742 68.599-53.011 83.3zM300.24 331.706c0 10.707-7.216 19.757-17.073 22.507v5.99c0 4.419-3.584 8.004-8.018 8.004s-8.018-3.585-8.018-8.004v-5.65c-5.565-1.207-10.612-4.457-14.055-9.188-2.594-3.58-1.792-8.588 1.792-11.173a8.01 8.01 0 0 1 11.178 1.792c1.415 1.929 3.632 3.09 5.99 3.09h4.858c4.056 0 7.358-3.311 7.358-7.367 0-4.07-3.301-7.372-7.358-7.372h-3.443c-12.876 0-23.393-10.489-23.393-23.379 0-10.711 7.263-19.762 17.073-22.512v-5.99c0-4.42 3.584-7.999 8.018-7.999 4.433 0 8.018 3.58 8.018 7.999v5.66c5.565 1.198 10.612 4.452 14.055 9.188a7.994 7.994 0 0 1-1.792 11.173 8.019 8.019 0 0 1-11.178-1.802c-1.415-1.929-3.632-3.089-5.99-3.089h-4.811c-4.056 0-7.405 3.311-7.405 7.372 0 4.07 3.349 7.377 7.405 7.377h3.443c12.876-.002 23.346 10.478 23.346 23.373z" fill="#000000" opacity="1" data-original="#000000" class=""></path></g></g></svg>