<svg xmlns="http://www.w3.org/2000/svg" version="1.1" xmlns:xlink="http://www.w3.org/1999/xlink" width="512" height="512" x="0" y="0" viewBox="0 0 60 60" style="enable-background:new 0 0 512 512" xml:space="preserve" class=""><g><path fill="#d9b485" d="M43 26.14h4V32h-4zM50.879 32.29l1.166-1.79a2 2 0 0 1 2.767-.586 2 2 0 0 1 .587 2.767l-1.167 1.794z" opacity="1" data-original="#385a74" class=""></path><path fill="#d9dde3" d="M15 27V9h-1.94a1.055 1.055 0 0 1-.75-1.8l5.94-5.89a1.067 1.067 0 0 1 1.5 0l5.94 5.89a1.055 1.055 0 0 1-.75 1.8H23v18z" opacity="1" data-original="#d9dde3" class=""></path><path fill="#d9b485" d="M37 49H3a2 2 0 0 1-2-2V27a2 2 0 0 1 2-2h32a2 2 0 0 1 2 2z" opacity="1" data-original="#9dcf65" class=""></path><path fill="#8b7252" d="M32.88 37.99A3.949 3.949 0 0 0 33 37c0-1.66-.9-3-2-3s-2 1.34-2 3 .9 3 2 3a1.579 1.579 0 0 0 1.14-.54z" opacity="1" data-original="#8abd47" class=""></path><circle cx="45" cy="45" r="14" fill="#d9b485" opacity="1" data-original="#477492" class=""></circle><circle cx="45" cy="45" r="10" fill="#ffffff" opacity="1" data-original="#ffffff"></circle><ellipse cx="19" cy="37" fill="#8b7252" rx="6" ry="7" opacity="1" data-original="#8abd47" class=""></ellipse><ellipse cx="7" cy="37" fill="#8b7252" rx="2" ry="3" opacity="1" data-original="#8abd47" class=""></ellipse><rect width="8" height="4" x="41" y="23" fill="#bdc2cc" rx="2" opacity="1" data-original="#bdc2cc" class=""></rect><circle cx="45" cy="45" r="2" fill="#bdc2cc" opacity="1" data-original="#bdc2cc" class=""></circle><path fill="#8b7252" d="M37 27v3a5 5 0 0 1-5-5h3a2.006 2.006 0 0 1 2 2zM6 25a5 5 0 0 1-5 5v-3a2.006 2.006 0 0 1 2-2zM6 49H3a2.006 2.006 0 0 1-2-2v-3a5 5 0 0 1 5 5z" opacity="1" data-original="#8abd47" class=""></path><g fill="#373737"><path d="m55.521 34.324.715-1.1a3 3 0 1 0-5.028-3.272l-.718 1.1A14.836 14.836 0 0 0 48 30.3v-2.484A2.993 2.993 0 0 0 47 22h-4a2.993 2.993 0 0 0-1 5.816V30.3a14.9 14.9 0 0 0-4 1.441V27a3 3 0 0 0-3-3h-8a1 1 0 0 0 0 2h4.09A6.008 6.008 0 0 0 36 30.91v2.118a15.114 15.114 0 0 0-2.326 2.172A3 3 0 0 0 31 33c-1.683 0-3 1.757-3 4 0 2.047 1.1 3.673 2.572 3.944A14.827 14.827 0 0 0 30.3 48H6.91A6.008 6.008 0 0 0 2 43.09V30.91A6.008 6.008 0 0 0 6.91 26H23a1 1 0 0 0 1-1V10h.94a2.054 2.054 0 0 0 1.46-3.512L20.457.6a2.06 2.06 0 0 0-2.911 0l-5.939 5.886A2.054 2.054 0 0 0 13.06 10H14v14H3a3 3 0 0 0-3 3v20a3 3 0 0 0 3 3h27.875a14.99 14.99 0 1 0 24.646-15.676zM33.142 26H35a1 1 0 0 1 1 1v1.858A3.991 3.991 0 0 1 33.142 26zM15 8h-1.94l-.046-.09 6.032-5.89 5.94 5.89-.046.09H23a1 1 0 0 0-1 1v15h-6V9a1 1 0 0 0-1-1zM3 26h1.86A3.991 3.991 0 0 1 2 28.858V27a1 1 0 0 1 1-1zM2 47v-1.858A3.991 3.991 0 0 1 4.858 48H3a1 1 0 0 1-1-1zm50.885-15.959a1 1 0 0 1 1.675 1.091l-.576.885a14.978 14.978 0 0 0-1.669-1.1zM43 24h4a1 1 0 0 1 0 2h-4a1 1 0 0 1 0-2zm1 4h2v2.051c-.332-.022-.662-.051-1-.051s-.668.029-1 .051zM31 39c-.4 0-1-.8-1-2s.6-2 1-2 1 .8 1 2a2.918 2.918 0 0 1-.082.683c-.209.372-.4.756-.575 1.146A.569.569 0 0 1 31 39zm14 19a13 13 0 1 1 13-13 13.015 13.015 0 0 1-13 13z" fill="#373737" opacity="1" data-original="#373737" class=""></path><path d="M19 29c-3.859 0-7 3.589-7 8s3.141 8 7 8 7-3.589 7-8-3.141-8-7-8zm0 14c-2.757 0-5-2.691-5-6s2.243-6 5-6 5 2.691 5 6-2.243 6-5 6zM4 37c0 2.243 1.317 4 3 4s3-1.757 3-4-1.317-4-3-4-3 1.757-3 4zm4 0c0 1.221-.592 2-1 2s-1-.779-1-2 .592-2 1-2 1 .779 1 2zM52.778 37.222c-.008-.009-.02-.012-.029-.02a10.977 10.977 0 0 0-15.5 0c-.009.008-.021.011-.029.02s-.012.02-.02.029a10.977 10.977 0 0 0 0 15.5c.008.009.011.021.02.029s.02.012.029.02a10.977 10.977 0 0 0 15.5 0c.009-.008.021-.011.029-.02s.012-.02.02-.029a10.977 10.977 0 0 0 0-15.5c-.008-.009-.011-.021-.02-.029zM53 46h.941a8.956 8.956 0 0 1-1.916 4.611l-.661-.661a1 1 0 1 0-1.414 1.414l.661.661A8.956 8.956 0 0 1 46 53.941V53a1 1 0 0 0-2 0v.941a8.956 8.956 0 0 1-4.611-1.916l.661-.661a1 1 0 1 0-1.414-1.414l-.661.661A8.956 8.956 0 0 1 36.059 46H37a1 1 0 0 0 0-2h-.941a8.956 8.956 0 0 1 1.916-4.611l.661.661a1 1 0 1 0 1.414-1.414l-.661-.661A8.956 8.956 0 0 1 44 36.059V37a1 1 0 0 0 2 0v-.941a8.956 8.956 0 0 1 4.611 1.916l-.661.661a1 1 0 1 0 1.414 1.414l.661-.661A8.956 8.956 0 0 1 53.941 44H53a1 1 0 0 0 0 2z" fill="#373737" opacity="1" data-original="#373737" class=""></path><path d="M49 44h-1.184a2.994 2.994 0 0 0-.842-1.241l.955-2.388a1 1 0 1 0-1.858-.742l-.953 2.383c-.04 0-.077-.012-.118-.012a3 3 0 1 0 2.816 4H49a1 1 0 0 0 0-2zm-4 2a1 1 0 0 1 0-2 .979.979 0 0 1 .359.073l.01.006c.009 0 .019 0 .029.006A1 1 0 0 1 45 46zM8 22a1 1 0 0 0 1-1v-5.586l.293.293a1 1 0 0 0 1.414-1.414l-2-2a1 1 0 0 0-1.414 0l-2 2a1 1 0 0 0 1.414 1.414L7 15.414V21a1 1 0 0 0 1 1zM30 22a1 1 0 0 0 1-1v-5.586l.293.293a1 1 0 0 0 1.414-1.414l-2-2a1 1 0 0 0-1.414 0l-2 2a1 1 0 0 0 1.414 1.414l.293-.293V21a1 1 0 0 0 1 1z" fill="#373737" opacity="1" data-original="#373737" class=""></path></g></g></svg>