<svg xmlns="http://www.w3.org/2000/svg" version="1.1" xmlns:xlink="http://www.w3.org/1999/xlink" width="512" height="512" x="0" y="0" viewBox="0 0 682.667 682.667" style="enable-background:new 0 0 512 512" xml:space="preserve" class=""><g><defs><clipPath id="a" clipPathUnits="userSpaceOnUse"><path d="M0 512h512V0H0Z" fill="#000000" opacity="1" data-original="#000000" class=""></path></clipPath></defs><g clip-path="url(#a)" transform="matrix(1.33333 0 0 -1.33333 0 682.667)"><path d="M0 0v131.515c0 41.842-31.601 76.927-73.215 81.287l-74.027 7.757h-184.453l-74.028-7.757c-41.614-4.36-73.214-39.445-73.214-81.287V0z" style="fill-opacity:1;fill-rule:nonzero;stroke:none" transform="translate(495.469 10)" fill="#d9b485" data-original="#ffcf5c" class="" opacity="1"></path><path d="m0 0-71.317-217.703h-56.302L-198.936 0Z" style="fill-opacity:1;fill-rule:nonzero;stroke:none" transform="translate(355.64 227.703)" fill="#ffffff" data-original="#ffffff" class=""></path><path d="m0 0-22.396 134.858h-31.583L-76.373 0l10.035-29.979h56.302z" style="fill-opacity:1;fill-rule:nonzero;stroke:none" transform="translate(294.358 39.98)" fill="#d6d6d6" data-original="#7aa9bf" class="" opacity="1"></path><path d="m0 0-38.101-38.101L-76.201 0l38.1 36.147z" style="fill-opacity:1;fill-rule:nonzero;stroke:none" transform="translate(294.272 197.147)" fill="#d6d6d6" data-original="#7aa9bf" class="" opacity="1"></path><path d="m0 0-38.101-36.147L-86.085-.273l36.288 36.249zM0 0l38.1-36.147L86.085-.273 49.796 35.976Z" style="fill-opacity:1;fill-rule:nonzero;stroke:none" transform="translate(256.086 233.38)" fill="#ffffff" data-original="#ffffff" class=""></path><path d="M0 0h-225.949l-56.488-94.804H56.487Z" style="fill-opacity:1;fill-rule:nonzero;stroke:none" transform="translate(368.975 502)" fill="#d9b485" data-original="#66e1f8" class="" opacity="1"></path><path d="m0 0-56.487-94.804L-112.975 0Z" style="fill-opacity:1;fill-rule:nonzero;stroke:none" transform="translate(256 502)" fill="#95999a" data-original="#ccf5fd" class="" opacity="1"></path><path d="m0 0-56.487-94.804L-112.975 0Z" style="fill-opacity:1;fill-rule:nonzero;stroke:none" transform="translate(368.975 502)" fill="#95999a" data-original="#ccf5fd" class="" opacity="1"></path><path d="m0 0-56.487 94.804L-112.975 0Z" style="fill-opacity:1;fill-rule:nonzero;stroke:none" transform="translate(312.487 407.196)" fill="#efefef" data-original="#99ebfa" class="" opacity="1"></path><path d="M0 0h-338.924l169.462-173.902z" style="fill-opacity:1;fill-rule:nonzero;stroke:none" transform="translate(425.462 407.196)" fill="#fffcf8" data-original="#33d7f6" class="" opacity="1"></path><path d="m0 0 56.487-172.38L112.975 0Z" style="fill-opacity:1;fill-rule:nonzero;stroke:none" transform="translate(199.513 407.196)" fill="#d9b485" data-original="#66e1f8" class="" opacity="1"></path><path d="m0 0-74.027-7.757c-41.615-4.359-73.215-39.444-73.215-81.287v-131.515h478.937v131.515c0 41.843-31.6 76.928-73.215 81.287L184.453 0" style="stroke-width:20;stroke-linecap:round;stroke-linejoin:round;stroke-miterlimit:10;stroke-dasharray:none;stroke-opacity:1" transform="translate(163.773 230.559)" fill="none" stroke="#000000" stroke-width="20" stroke-linecap="round" stroke-linejoin="round" stroke-miterlimit="10" stroke-dasharray="none" stroke-opacity="" data-original="#000000" class=""></path><path d="m0 0 68.711-209.748" style="stroke-width:20;stroke-linecap:round;stroke-linejoin:round;stroke-miterlimit:10;stroke-dasharray:none;stroke-opacity:1" transform="translate(156.704 227.703)" fill="none" stroke="#000000" stroke-width="20" stroke-linecap="round" stroke-linejoin="round" stroke-miterlimit="10" stroke-dasharray="none" stroke-opacity="" data-original="#000000" class=""></path><path d="M0 0v-91.392" style="stroke-width:20;stroke-linecap:round;stroke-linejoin:round;stroke-miterlimit:10;stroke-dasharray:none;stroke-opacity:1" transform="translate(424.945 103.417)" fill="none" stroke="#000000" stroke-width="20" stroke-linecap="round" stroke-linejoin="round" stroke-miterlimit="10" stroke-dasharray="none" stroke-opacity="" data-original="#000000" class=""></path><path d="M0 0v-91.392" style="stroke-width:20;stroke-linecap:round;stroke-linejoin:round;stroke-miterlimit:10;stroke-dasharray:none;stroke-opacity:1" transform="translate(87.398 103.417)" fill="none" stroke="#000000" stroke-width="20" stroke-linecap="round" stroke-linejoin="round" stroke-miterlimit="10" stroke-dasharray="none" stroke-opacity="" data-original="#000000" class=""></path><path d="m0 0-22.121-133.215" style="stroke-width:20;stroke-linecap:round;stroke-linejoin:round;stroke-miterlimit:10;stroke-dasharray:none;stroke-opacity:1" transform="translate(240.38 174.838)" fill="none" stroke="#000000" stroke-width="20" stroke-linecap="round" stroke-linejoin="round" stroke-miterlimit="10" stroke-dasharray="none" stroke-opacity="" data-original="#000000" class=""></path><path d="m0 0-38.101-38.101L-76.201 0l38.1 36.147z" style="stroke-width:20;stroke-linecap:round;stroke-linejoin:round;stroke-miterlimit:10;stroke-dasharray:none;stroke-opacity:1" transform="translate(294.272 197.147)" fill="none" stroke="#000000" stroke-width="20" stroke-linecap="round" stroke-linejoin="round" stroke-miterlimit="10" stroke-dasharray="none" stroke-opacity="" data-original="#000000" class=""></path><path d="m0 0-38.101-36.147L-86.085-.273l36.288 36.249zM0 0l38.1-36.147L86.085-.273 49.796 35.976Z" style="stroke-width:20;stroke-linecap:round;stroke-linejoin:round;stroke-miterlimit:10;stroke-dasharray:none;stroke-opacity:1" transform="translate(256.086 233.38)" fill="none" stroke="#000000" stroke-width="20" stroke-linecap="round" stroke-linejoin="round" stroke-miterlimit="10" stroke-dasharray="none" stroke-opacity="" data-original="#000000" class=""></path><path d="m0 0-68.217-208.238" style="stroke-width:20;stroke-linecap:round;stroke-linejoin:round;stroke-miterlimit:10;stroke-dasharray:none;stroke-opacity:1" transform="translate(355.64 227.703)" fill="none" stroke="#000000" stroke-width="20" stroke-linecap="round" stroke-linejoin="round" stroke-miterlimit="10" stroke-dasharray="none" stroke-opacity="" data-original="#000000" class=""></path><path d="m0 0 22.122-133.215" style="stroke-width:20;stroke-linecap:round;stroke-linejoin:round;stroke-miterlimit:10;stroke-dasharray:none;stroke-opacity:1" transform="translate(271.963 174.838)" fill="none" stroke="#000000" stroke-width="20" stroke-linecap="round" stroke-linejoin="round" stroke-miterlimit="10" stroke-dasharray="none" stroke-opacity="" data-original="#000000" class=""></path><path d="m0 0-78.597-80.656-169.462 173.902 56.488 94.804H34.378l56.487-94.804-28.06-28.795" style="stroke-width:20;stroke-linecap:round;stroke-linejoin:round;stroke-miterlimit:10;stroke-dasharray:none;stroke-opacity:1" transform="translate(334.597 313.95)" fill="none" stroke="#000000" stroke-width="20" stroke-linecap="round" stroke-linejoin="round" stroke-miterlimit="10" stroke-dasharray="none" stroke-opacity="" data-original="#000000" class=""></path><path d="m0 0 56.487 94.804" style="stroke-width:20;stroke-linecap:round;stroke-linejoin:round;stroke-miterlimit:10;stroke-dasharray:none;stroke-opacity:1" transform="translate(86.538 407.196)" fill="none" stroke="#000000" stroke-width="20" stroke-linecap="round" stroke-linejoin="round" stroke-miterlimit="10" stroke-dasharray="none" stroke-opacity="" data-original="#000000" class=""></path><path d="m0 0-56.487 94.804M0 0l56.487 94.804" style="stroke-width:20;stroke-linecap:round;stroke-linejoin:round;stroke-miterlimit:10;stroke-dasharray:none;stroke-opacity:1" transform="translate(199.513 407.196)" fill="none" stroke="#000000" stroke-width="20" stroke-linecap="round" stroke-linejoin="round" stroke-miterlimit="10" stroke-dasharray="none" stroke-opacity="" data-original="#000000" class=""></path><path d="m0 0-56.487 94.804M0 0l56.487 94.804" style="stroke-width:20;stroke-linecap:round;stroke-linejoin:round;stroke-miterlimit:10;stroke-dasharray:none;stroke-opacity:1" transform="translate(312.487 407.196)" fill="none" stroke="#000000" stroke-width="20" stroke-linecap="round" stroke-linejoin="round" stroke-miterlimit="10" stroke-dasharray="none" stroke-opacity="" data-original="#000000" class=""></path><path d="m0 0 56.487-172.38L112.975 0" style="stroke-width:20;stroke-linecap:round;stroke-linejoin:round;stroke-miterlimit:10;stroke-dasharray:none;stroke-opacity:1" transform="translate(199.513 407.196)" fill="none" stroke="#000000" stroke-width="20" stroke-linecap="round" stroke-linejoin="round" stroke-miterlimit="10" stroke-dasharray="none" stroke-opacity="" data-original="#000000" class=""></path><path d="M0 0h329.127" style="stroke-width:20;stroke-linecap:round;stroke-linejoin:round;stroke-miterlimit:10;stroke-dasharray:none;stroke-opacity:1" transform="translate(91.436 407.196)" fill="none" stroke="#000000" stroke-width="20" stroke-linecap="round" stroke-linejoin="round" stroke-miterlimit="10" stroke-dasharray="none" stroke-opacity="" data-original="#000000" class=""></path><path d="M0 0v0" style="stroke-width:20;stroke-linecap:round;stroke-linejoin:round;stroke-miterlimit:10;stroke-dasharray:none;stroke-opacity:1" transform="translate(366 346.176)" fill="none" stroke="#000000" stroke-width="20" stroke-linecap="round" stroke-linejoin="round" stroke-miterlimit="10" stroke-dasharray="none" stroke-opacity="" data-original="#000000" class=""></path></g></g></svg>