<svg xmlns="http://www.w3.org/2000/svg" version="1.1" xmlns:xlink="http://www.w3.org/1999/xlink" width="512" height="512" x="0" y="0" viewBox="0 0 64 64" style="enable-background:new 0 0 512 512" xml:space="preserve" class=""><g><path fill="#d9b485" d="M57 16h1a4 4 0 0 1 4 4v38a4 4 0 0 1-4 4H6a4 4 0 0 1-4-4V20a4 4 0 0 1 4-4h7z" opacity="1" data-original="#ffc239" class=""></path><path fill="#bc925c" d="M62 58V20a4 4 0 0 0-4-4H11a4 4 0 0 0-4 4v38a4 4 0 0 0 4 4h47a4 4 0 0 0 4-4z" opacity="1" data-original="#f4ac1c" class=""></path><path fill="#e2e7f7" d="M17 33V6h4v27z" opacity="1" data-original="#e2e7f7" class=""></path><path fill="#ced4e0" d="M13 33V8h4v25z" opacity="1" data-original="#ced4e0" class=""></path><path fill="#d9b485" d="M7 62a4 4 0 0 0 4-4V36a4 4 0 0 1 4-4h6v30z" opacity="1" data-original="#ffc239" class=""></path><path fill="#b09574" d="M58 32H21a4 4 0 0 0-4 4v22a4 4 0 0 1-4 4h45a4 4 0 0 0 4-4V36a4 4 0 0 0-4-4z" opacity="1" data-original="#ffd55d" class=""></path><path fill="#f6f8ff" d="M21 2h36v30H21zM46 54h12v4H46zM43 57h2v2h-2z" opacity="1" data-original="#f6f8ff" class=""></path><ellipse cx="55.153" cy="39.091" fill="#fff7df" rx="3.187" ry="6.362" transform="rotate(-47.31 55.158 39.096)" opacity="1" data-original="#fff7df" class=""></ellipse><g fill="#c64635"><path d="M27 20h4v9h-4zM34 12h4v17h-4zM41 15h4v14h-4zM48 6h4v23h-4z" fill="#d9b485" opacity="1" data-original="#c64635" class=""></path></g><path fill="#b4936a" d="M23 4h6v2h-6zM31 4h6v2h-6zM23 7h14v2H23z" opacity="1" data-original="#5490f5" class=""></path></g></svg>