<svg xmlns="http://www.w3.org/2000/svg" version="1.1" xmlns:xlink="http://www.w3.org/1999/xlink" width="512" height="512" x="0" y="0" viewBox="0 0 510 510" style="enable-background:new 0 0 512 512" xml:space="preserve" fill-rule="evenodd" class=""><g><path fill="#d9b485" d="m63.056 364.61 89.972-52.117c16.893-9.789 34.058-16.731 52.632-10.711 20.69 6.724 54.477 21.123 88.942 27.333 12.798 4.149 20.771 16.947 17.3 29.936-3.498 12.989-14.453 19.687-29.964 17.3l12.067 1.926c13.802 2.223 26.465.325 38.559-6.725l86.501-50.382c67.248-39.156 77.119 21.096 54.775 34.871l-157.003 96.67c-14.426 8.867-30.235 10.955-46.613 6.562l-113.861-30.506-42.193 24.35c-8.108 4.664-18.52 1.871-23.211-6.236l-34.112-59.06c-4.664-8.107-1.871-18.52 6.209-23.211z" opacity="1" data-original="#f6dccd" class=""></path><path fill="#be925a" d="M309.841 364.447c-4.8 9.41-14.724 13.938-27.903 11.904-18.629-4.935-37.284-9.978-55.913-14.968-4.99-1.356-7.945-6.481-6.617-11.47 1.329-4.989 6.481-7.945 11.47-6.616zM63.056 364.61l89.972-52.117c16.893-9.789 34.058-16.731 52.632-10.711 11.064 3.579 25.896 9.382 42.546 14.941L73.903 417.378l-17.056-29.557c-4.664-8.107-1.871-18.52 6.209-23.211z" opacity="1" data-original="#f1cbbc" class=""></path><path fill="#d1d1d6" d="m73.496 338.687 71.37 126.09c3.444 6.101 1.274 13.911-4.8 17.355L115.77 495.88c-6.074 3.443-13.883 1.274-17.354-4.827L27.073 364.962c-3.471-6.101-1.302-13.91 4.799-17.354l24.27-13.748c6.101-3.444 13.91-1.274 17.354 4.827z" opacity="1" data-original="#d1d1d6" class=""></path><path fill="#b1b1b5" d="m111.052 425.323 12.609 22.317 12.5 22.072c3.444 6.074 1.302 13.857-4.772 17.328l8.677-4.908c6.074-3.444 8.244-11.254 4.8-17.355l-12.528-22.154-25.164-44.47-25.191-44.498-8.487-14.968c-2.983-5.288-9.247-7.62-14.833-5.911l14.67 25.923 25.164 44.47 12.528 22.127z" opacity="1" data-original="#b1b1b5" class=""></path><path fill="#685e68" d="M55.708 355.065c-4.719.678-8 5.098-7.322 9.816.705 4.745 5.098 8.027 9.843 7.322 4.719-.678 8-5.071 7.322-9.817-.705-4.745-5.098-8.026-9.843-7.321z" opacity="1" data-original="#685e68" class=""></path><path fill="#ecba78" d="M399.594 12.484v243.405a8.454 8.454 0 0 1-8.454 8.454H174.048a8.454 8.454 0 0 1-8.454-8.454V12.484z" opacity="1" data-original="#ecba78" class=""></path><path fill="#d9b485" d="M386.159 12.484h13.435v243.405a8.454 8.454 0 0 1-8.454 8.454h-13.435a8.454 8.454 0 0 0 8.454-8.454zM320.771 12.484v93.501a4.478 4.478 0 0 1-4.478 4.478h-67.398a4.478 4.478 0 0 1-4.478-4.478V12.484z" opacity="1" data-original="#e3a76f" class=""></path><path fill="#c48958" d="M311.815 12.484h8.956v93.501a4.478 4.478 0 0 1-4.478 4.478h-8.956a4.478 4.478 0 0 0 4.478-4.478z" opacity="1" data-original="#c48958" class=""></path><path fill="#ffc338" d="M399.587 294.608c-45.706 0-82.979-37.273-82.979-82.979s37.273-82.979 82.979-82.979 82.992 37.273 82.992 82.979-37.286 82.979-82.992 82.979z" opacity="1" data-original="#ffc338" class=""></path><path fill="#d6a42f" d="M472.671 211.629c0-44.166-34.501-80.271-78.025-82.838 1.63-.09 3.286-.141 4.941-.141 45.835 0 82.992 37.145 82.992 82.979s-37.157 82.979-82.992 82.979c-1.655 0-3.311-.051-4.941-.141 43.524-2.567 78.025-38.672 78.025-82.838z" opacity="1" data-original="#f5b829" class=""></path><path fill="#ffffff" fill-rule="nonzero" d="M431.239 183.392c1.668 3.991-.206 8.574-4.184 10.242-3.979 1.669-8.562-.205-10.243-4.184-2.362-5.648-6.867-8.908-11.795-10.153a21.622 21.622 0 0 0-9.498-.231c-2.965.604-5.686 1.81-7.83 3.543-2.657 2.156-4.338 5.275-4.158 9.138.166 3.517 2.015 5.943 4.582 7.612 3.465 2.271 8.253 3.529 12.809 4.274 6.546 1.078 13.682 2.862 19.651 6.469 6.892 4.158 12.09 10.422 13.258 20.035.09.745.142 1.63.167 2.644.219 8.805-3.799 15.364-9.831 19.946-4.775 3.62-10.795 5.853-16.75 6.854v4.557a7.814 7.814 0 0 1-7.817 7.816c-4.325 0-7.829-3.491-7.829-7.816v-4.698c-4.839-.95-9.46-2.747-13.464-5.417-6.174-4.12-10.91-10.178-12.912-18.213a7.795 7.795 0 0 1 5.711-9.433c4.184-1.027 8.42 1.527 9.447 5.711.975 3.902 3.311 6.88 6.366 8.921 3.786 2.515 8.651 3.722 13.58 3.606a33.065 33.065 0 0 0 2.977-.244c4.185-.5 8.343-1.822 11.282-4.055 2.247-1.695 3.735-4.069 3.658-7.175 0-.219-.038-.604-.102-1.168-.488-3.979-2.76-6.649-5.802-8.484-3.94-2.388-9.177-3.658-14.093-4.454-6.327-1.04-13.181-2.939-18.803-6.597-6.52-4.262-11.205-10.564-11.667-19.959-.449-9.331 3.568-16.814 9.908-21.974 3.928-3.196 8.767-5.429 13.914-6.571v-4.813c0-4.326 3.504-7.817 7.829-7.817a7.814 7.814 0 0 1 7.817 7.817v4.697c.462.103.924.206 1.386.321 9.395 2.387 17.943 8.561 22.436 19.253z" opacity="1" data-original="#ffe177" class=""></path></g></svg>