<svg xmlns="http://www.w3.org/2000/svg" version="1.1" xmlns:xlink="http://www.w3.org/1999/xlink" width="512" height="512" x="0" y="0" viewBox="0 0 64 64" style="enable-background:new 0 0 512 512" xml:space="preserve" class=""><g><g data-name="Layer 2"><path fill="#d9b485" d="M3 19h54v4H3z" opacity="1" data-original="#e8e4da" class=""></path><path fill="#f6f6f6" d="M3 23v28a6 6 0 0 0 6 6h42a6 6 0 0 0 6-6V23z" opacity="1" data-original="#f6f6f6" class=""></path><path fill="#d9b485" d="M9 51V23H3v28a6 6 0 0 0 6 6h6a6 6 0 0 1-6-6z" opacity="1" data-original="#e8e4da" class=""></path><path fill="#e0dbcc" d="M3 19h6v4H3z" opacity="1" data-original="#e0dbcc" class=""></path><path fill="#ede7df" d="M48 10a2 2 0 1 0 2 2 2.006 2.006 0 0 0-2-2zm-9 0a2 2 0 1 0 2 2 2.006 2.006 0 0 0-2-2zm-9 0a2 2 0 1 0 2 2 2.006 2.006 0 0 0-2-2zm-9 0a2 2 0 1 0 2 2 2.006 2.006 0 0 0-2-2zm30-4a6 6 0 0 1 6 6v7H3v-7a6 6 0 0 1 6-6zm-39 4a2 2 0 1 0 2 2 2.006 2.006 0 0 0-2-2z" opacity="1" data-original="#c7ffd8" class=""></path><path fill="#d9b485" d="M12 16a4 4 0 0 1-4-4V9a5.959 5.959 0 0 1 .8-2.99A6 6 0 0 0 3 12v7h54v-3z" opacity="1" data-original="#a6edbc" class=""></path><path fill="#d6a363" d="M60.71 58.99 57 52.85 46.78 35.94a2.1 2.1 0 0 0-3.56 0L30.49 57l-1.2 1.99A2 2 0 0 0 31.07 62h27.86a2 2 0 0 0 1.78-3.01z" opacity="1" data-original="#ff8c8c" class=""></path><path fill="#d6c1a6" d="m33.291 58.99 1.2-1.99L47 36.305l-.221-.365a2.1 2.1 0 0 0-3.56 0L30.49 57l-1.2 1.99A2 2 0 0 0 31.07 62h4a2 2 0 0 1-1.779-3.01z" opacity="1" data-original="#f57d7d" class=""></path><circle cx="45" cy="57" r="1" fill="#000000" opacity="1" data-original="#000000" class=""></circle><rect width="6" height="6" x="8" y="27" fill="#d9b485" rx="1" opacity="1" data-original="#98ded9" class=""></rect><path fill="#e9fffd" d="M11 32v-4a1 1 0 0 1 1-1H9a1 1 0 0 0-1 1v4a1 1 0 0 0 1 1h3a1 1 0 0 1-1-1z" opacity="1" data-original="#87d4ce" class=""></path><rect width="6" height="6" x="19" y="27" fill="#d9b485" rx="1" opacity="1" data-original="#98ded9" class=""></rect><path fill="#e9fffd" d="M22 32v-4a1 1 0 0 1 1-1h-3a1 1 0 0 0-1 1v4a1 1 0 0 0 1 1h3a1 1 0 0 1-1-1z" opacity="1" data-original="#87d4ce" class=""></path><rect width="6" height="6" x="8" y="37" fill="#d9b485" rx="1" opacity="1" data-original="#98ded9" class=""></rect><path fill="#e9fffd" d="M11 42v-4a1 1 0 0 1 1-1H9a1 1 0 0 0-1 1v4a1 1 0 0 0 1 1h3a1 1 0 0 1-1-1z" opacity="1" data-original="#87d4ce" class=""></path><rect width="6" height="6" x="19" y="37" fill="#d9b485" rx="1" opacity="1" data-original="#98ded9" class=""></rect><path fill="#e9fffd" d="M22 42v-4a1 1 0 0 1 1-1h-3a1 1 0 0 0-1 1v4a1 1 0 0 0 1 1h3a1 1 0 0 1-1-1z" opacity="1" data-original="#87d4ce" class=""></path><rect width="6" height="6" x="8" y="47" fill="#d9b485" rx="1" opacity="1" data-original="#98ded9" class=""></rect><path fill="#e9fffd" d="M11 52v-4a1 1 0 0 1 1-1H9a1 1 0 0 0-1 1v4a1 1 0 0 0 1 1h3a1 1 0 0 1-1-1z" opacity="1" data-original="#87d4ce" class=""></path><rect width="6" height="6" x="19" y="47" fill="#d9b485" rx="1" opacity="1" data-original="#98ded9" class=""></rect><path fill="#e9fffd" d="M22 52v-4a1 1 0 0 1 1-1h-3a1 1 0 0 0-1 1v4a1 1 0 0 0 1 1h3a1 1 0 0 1-1-1z" opacity="1" data-original="#87d4ce" class=""></path><rect width="6" height="6" x="30" y="27" fill="#d9b485" rx="1" opacity="1" data-original="#98ded9" class=""></rect><path fill="#e9fffd" d="M33 32v-4a1 1 0 0 1 1-1h-3a1 1 0 0 0-1 1v4a1 1 0 0 0 1 1h3a1 1 0 0 1-1-1z" opacity="1" data-original="#87d4ce" class=""></path></g><g data-name="Layer 1"><path d="M9 58h17a1 1 0 0 0 0-2H9a5.006 5.006 0 0 1-5-5V20h49a1 1 0 0 0 0-2H3a1 1 0 0 0-1 1v32a7.009 7.009 0 0 0 7 7z" fill="#000000" opacity="1" data-original="#000000" class=""></path><path d="M3 16a1 1 0 0 0 1-1v-3a5.006 5.006 0 0 1 5-5h2v2.184a3 3 0 1 0 2 0V7h7v2.184a3 3 0 1 0 2 0V7h7v2.184a3 3 0 1 0 2 0V7h7v2.184a3 3 0 1 0 2 0V7h7v2.184a3 3 0 1 0 2 0V7h2a5.006 5.006 0 0 1 5 5v10H7a1 1 0 0 0 0 2h49v21a1 1 0 0 0 2 0V12a7.008 7.008 0 0 0-7-7h-2V2a1 1 0 0 0-2 0v3h-7V2a1 1 0 0 0-2 0v3h-7V2a1 1 0 0 0-2 0v3h-7V2a1 1 0 0 0-2 0v3h-7V2a1 1 0 0 0-2 0v3H9a7.008 7.008 0 0 0-7 7v3a1 1 0 0 0 1 1zm9-3a1 1 0 1 1 1-1 1 1 0 0 1-1 1zm9 0a1 1 0 1 1 1-1 1 1 0 0 1-1 1zm9 0a1 1 0 1 1 1-1 1 1 0 0 1-1 1zm9 0a1 1 0 1 1 1-1 1 1 0 0 1-1 1zm9 0a1 1 0 1 1 1-1 1 1 0 0 1-1 1z" fill="#000000" opacity="1" data-original="#000000" class=""></path><path d="M26 28a2 2 0 0 0-2-2h-4a2 2 0 0 0-2 2v4a2 2 0 0 0 2 2h4a2 2 0 0 0 2-2zm-6 4v-4h4v4zM35 34a2 2 0 0 0 2-2v-4a2 2 0 0 0-2-2h-4a2 2 0 0 0-2 2v4a2 2 0 0 0 2 2zm-4-6h4v4h-4zM15 28a2 2 0 0 0-2-2H9a2 2 0 0 0-2 2v4a2 2 0 0 0 2 2h4a2 2 0 0 0 2-2zm-6 4v-4h4v4zM26 38a2 2 0 0 0-2-2h-4a2 2 0 0 0-2 2v4a2 2 0 0 0 2 2h4a2 2 0 0 0 2-2zm-6 4v-4h4v4zM15 38a2 2 0 0 0-2-2H9a2 2 0 0 0-2 2v4a2 2 0 0 0 2 2h4a2 2 0 0 0 2-2zm-6 4v-4h4v4zM24 46h-4a2 2 0 0 0-2 2v4a2 2 0 0 0 2 2h4a2 2 0 0 0 2-2v-4a2 2 0 0 0-2-2zm-4 6v-4h4v4zM13 46H9a2 2 0 0 0-2 2v4a2 2 0 0 0 2 2h4a2 2 0 0 0 2-2v-4a2 2 0 0 0-2-2zm-4 6v-4h4v4zM28.385 61.45A3.035 3.035 0 0 0 31.066 63h27.868a3.035 3.035 0 0 0 2.681-1.55 2.916 2.916 0 0 0-.046-2.979L47.635 35.426a3.1 3.1 0 0 0-5.27 0L28.43 58.472a2.917 2.917 0 0 0-.045 2.978zm1.757-1.944 13.934-23.045a1.1 1.1 0 0 1 1.848 0l13.934 23.044A1.011 1.011 0 0 1 58.934 61H31.066a1.014 1.014 0 0 1-.924-1.494z" fill="#000000" opacity="1" data-original="#000000" class=""></path><path d="M45 54a1 1 0 0 0 1-1v-8a1 1 0 0 0-2 0v8a1 1 0 0 0 1 1z" fill="#000000" opacity="1" data-original="#000000" class=""></path><circle cx="45" cy="57" r="1" fill="#000000" opacity="1" data-original="#000000" class=""></circle></g></g></svg>