<svg xmlns="http://www.w3.org/2000/svg" version="1.1" xmlns:xlink="http://www.w3.org/1999/xlink" width="512" height="512" x="0" y="0" viewBox="0 0 64 64" style="enable-background:new 0 0 512 512" xml:space="preserve" class=""><g><path fill="#c5b3b3" d="M14 23v-5l-8 5V10H2v24h20V18z" opacity="1" data-original="#999999" class=""></path><path fill="#a98f6f" d="M22 56h6v6h-6z" opacity="1" data-original="#ccbd66" class=""></path><path fill="#d9b485" d="M28 56h6v6h-6z" opacity="1" data-original="#f0de78" class=""></path><path fill="#1d1c15" d="M25 50h6v6h-6z" opacity="1" data-original="#ffed80" class=""></path><path fill="#cccccc" d="M5 7H3c0-2.757 2.243-5 5-5h7v2H8C6.346 4 5 5.346 5 7zM17 2h4v2h-4z" opacity="1" data-original="#cccccc" class=""></path><path fill="#b67f39" d="m38.707 32.707 3-3a.999.999 0 0 0 0-1.414l-3-3-1.414 1.414L38.586 28H32V14h6.586l-1.293 1.293 1.414 1.414 3-3a.999.999 0 0 0 0-1.414l-3-3-1.414 1.414L38.586 12H31a1 1 0 0 0-1 1v34h8.586l-1.293 1.293 1.414 1.414 3-3a.999.999 0 0 0 0-1.414l-3-3-1.414 1.414L38.586 45H32V30h6.586l-1.293 1.293z" opacity="1" data-original="#ef476f" class=""></path><g fill="#e8e8e8"><path d="M6 26h2v2H6zM11 26h2v2h-2zM16 26h2v2h-2z" fill="#e8e8e8" opacity="1" data-original="#e8e8e8" class=""></path></g><circle cx="54" cy="12" r="8" fill="#d9b485" opacity="1" data-original="#99e1ff" class=""></circle><path fill="#fcfeff" d="M56 14h-4c-1.1 0-2 .9-2 2v2.921a7.955 7.955 0 0 0 8 0V16c0-1.1-.9-2-2-2z" opacity="1" data-original="#204866" class=""></path><circle cx="54" cy="11" r="3" fill="#fcfeff" opacity="1" data-original="#204866" class=""></circle><circle cx="54" cy="32" r="8" fill="#d9b485" opacity="1" data-original="#99e1ff" class=""></circle><path fill="#fcfeff" d="M56 34h-4c-1.1 0-2 .9-2 2v2.921a7.955 7.955 0 0 0 8 0V36c0-1.1-.9-2-2-2z" opacity="1" data-original="#204866" class=""></path><circle cx="54" cy="31" r="3" fill="#fcfeff" opacity="1" data-original="#204866" class=""></circle><circle cx="54" cy="52" r="8" fill="#d9b485" opacity="1" data-original="#99e1ff" class=""></circle><path fill="#fcfeff" d="M56 54h-4c-1.1 0-2 .9-2 2v2.921a7.955 7.955 0 0 0 8 0V56c0-1.1-.9-2-2-2z" opacity="1" data-original="#204866" class=""></path><circle cx="54" cy="51" r="3" fill="#fcfeff" opacity="1" data-original="#204866" class=""></circle><path fill="#06253d" d="M15.979 43.065 8.015 43A3.985 3.985 0 0 0 4 46.987V62h16V47.647c-.071-2.784-1.834-4.564-4.021-4.582z" opacity="1" data-original="#2e6893" class=""></path><path fill="#e8e8e8" d="m12 43-2 9 2 4 2-4z" opacity="1" data-original="#e8e8e8" class=""></path><circle cx="11.985" cy="37" r="6" fill="#ffcd94" opacity="1" data-original="#ffcd94" class=""></circle><path fill="#3f3f3f" d="M12.011 35c1.12 1.23 2.71 2 4.46 2A5.54 5.54 0 0 0 18 36.79 5.996 5.996 0 0 0 12.011 31a5.994 5.994 0 0 0-5.989 5.79c.49.14 1 .21 1.529.21 1.75 0 3.34-.77 4.46-2z" opacity="1" data-original="#3f3f3f" class=""></path></g></svg>