<svg xmlns="http://www.w3.org/2000/svg" version="1.1" xmlns:xlink="http://www.w3.org/1999/xlink" width="512" height="512" x="0" y="0" viewBox="0 0 512 512" style="enable-background:new 0 0 512 512" xml:space="preserve" class=""><g><path fill="#d9b489" d="m336 26-40 23.5L256 26H106v250.57L299.17 406H486V26z" opacity="1" data-original="#ffd396" class=""></path><circle cx="186" cy="366" r="120" fill="#ffffff" opacity="1" data-original="#b9e600" class=""></circle><circle cx="186" cy="366" r="80" fill="#d9b489" opacity="1" data-original="#77cc00" class=""></circle><path fill="#ffffff" d="M346 246h100v120H346zM336 26v100l-40-20-40 20V26z" opacity="1" data-original="#ffbf80" class=""></path><path d="M116 276.57H96V16h160v20H116zM496 416H299.17v-20H476V36H336V16h160z" fill="#000000" opacity="1" data-original="#000000" class=""></path><path d="M186 496c-31.712 0-62.247-11.544-85.98-32.505-57.974-51.078-59.155-142.075-.692-194.373C123.168 247.763 153.949 236 186 236c71.683 0 130 58.317 130 130 0 14.853-2.49 29.432-7.401 43.331C290.281 461.171 241.013 496 186 496zm0-240c-43.175 0-82.146 25.227-100.032 64.173-19.79 43.09-9.886 95.576 27.282 128.324C133.335 466.235 159.168 476 186 476c60.1 0 110-48.67 110-110 0-60.654-49.346-110-110-110z" fill="#000000" opacity="1" data-original="#000000" class=""></path><path d="M36 306h40.88v20H36zM16 356h50v20H16zM46 406h30.88v20H46zM26 446h80.64v20H26zM346 142.18l-50-25-50 25V16h100zm-50-47.36 30 15V36h-60v73.82zM456 376H336V236h120zm-100-20h80V256h-80z" fill="#000000" opacity="1" data-original="#000000" class=""></path><path d="M376 316h40v20h-40zM376 276h40v20h-40zM136 56h70v20h-70zM136 96h70v20h-70zM136 136h70v20h-70zM186 456c-49.626 0-90-40.374-90-90s40.374-90 90-90 90 40.374 90 90-40.374 90-90 90zm0-160c-38.598 0-70 31.402-70 70s31.402 70 70 70 70-31.402 70-70-31.402-70-70-70z" fill="#000000" opacity="1" data-original="#000000" class=""></path><path d="M196 376h-50v-20h30v-30h20z" fill="#000000" opacity="1" data-original="#000000" class=""></path></g></svg>