<svg xmlns="http://www.w3.org/2000/svg" version="1.1" xmlns:xlink="http://www.w3.org/1999/xlink" width="512" height="512" x="0" y="0" viewBox="0 0 64 64" style="enable-background:new 0 0 512 512" xml:space="preserve" class=""><g><path fill="#d9b489" d="M33 2.25a.75.75 0 0 0 0 1.5h22.8v-1.5zM63 7.75H33a.75.75 0 0 1 0-1.5h30a.75.75 0 0 1 0 1.5zM63 11.75H33a.75.75 0 0 1 0-1.5h30a.75.75 0 0 1 0 1.5zM63 15.75H33a.75.75 0 0 1 0-1.5h30a.75.75 0 0 1 0 1.5zM63 19.75H35a.75.75 0 0 1 0-1.5h28a.75.75 0 0 1 0 1.5zM63 23.75H33a.75.75 0 0 1 0-1.5h30a.75.75 0 0 1 0 1.5zM63 27.75H33a.75.75 0 0 1 0-1.5h30a.75.75 0 0 1 0 1.5zM63 31.75H33a.75.75 0 0 1 0-1.5h30a.75.75 0 0 1 0 1.5z" opacity="1" data-original="#46465a" class=""></path><path fill="#505069" d="M61 40.75a.75.75 0 0 1-.75-.75V1a.75.75 0 0 1 1.5 0v39a.75.75 0 0 1-.75.75zM55.8 40.75a.75.75 0 0 1-.75-.75V1a.75.75 0 0 1 1.5 0v39a.75.75 0 0 1-.75.75zM50.6 32a.75.75 0 0 1-.75-.75V1a.75.75 0 0 1 1.5 0v30.25a.75.75 0 0 1-.75.75zM45.4 40.75a.75.75 0 0 1-.75-.75V1a.75.75 0 0 1 1.5 0v39a.75.75 0 0 1-.75.75zM40.2 40.75a.75.75 0 0 1-.75-.75V1a.75.75 0 0 1 1.5 0v39a.75.75 0 0 1-.75.75zM35 40.75a.75.75 0 0 1-.75-.75V1a.75.75 0 0 1 1.5 0v39a.75.75 0 0 1-.75.75z" opacity="1" data-original="#505069" class=""></path><path fill="#f0f0f0" d="M22 18h4v12h-4z" opacity="1" data-original="#f0f0f0"></path><path fill="#c8c8c8" d="M63 60H19V29l16-11 5.2 1 3.8 8h6l3 6 6 2 4 5z" opacity="1" data-original="#c8c8c8"></path><path fill="#d9b489" d="m57.211 37.565-6.339-2.112L48.146 30h-6.042l-3.962-8.341-2.476-.476L22 30.578V60h41V44.804z" opacity="1" data-original="#b4b4b4" class=""></path><rect width="6" height="1.5" x="21" y="17.25" fill="#d9b489" rx=".75" opacity="1" data-original="#b4b4b4" class=""></rect><path fill="#aafabe" d="M1 60h62v3H1z" opacity="1" data-original="#aafabe" class=""></path><path fill="#8cf0a0" d="M4 61.5h59V63H4z" opacity="1" data-original="#8cf0a0" class=""></path><path fill="#f4963c" d="M36 46h10v14H36z" opacity="1" data-original="#f4963c" class=""></path><path fill="#ffffff" d="M45.25 60V46.75h-8.5V60h-1.5V46a.75.75 0 0 1 .75-.75h10a.75.75 0 0 1 .75.75v14z" opacity="1" data-original="#ffffff" class=""></path><path fill="#e67d32" d="M43 54.75a.75.75 0 0 1-.75-.75v-2a.75.75 0 0 1 1.5 0v2a.75.75 0 0 1-.75.75z" opacity="1" data-original="#e67d32"></path><path fill="#abe9ff" d="M49.667 46h3v5h-3zM56.333 46h3v5h-3zM49.583 37h3v5h-3zM42.833 37h3v5h-3zM36.083 37h3v5h-3zM32.334 51h-3v-5h3zM32.334 42h-3v-5h3z" opacity="1" data-original="#abe9ff" class=""></path><rect width="24" height="24" x="1" y="35.25" fill="#f0f0f0" rx="12" opacity="1" data-original="#f0f0f0"></rect><path fill="#ffffff" d="M25 47.25a11.994 11.994 0 0 0-.2-2.124 11.246 11.246 0 1 0-13.924 13.925A11.952 11.952 0 0 0 25 47.25z" opacity="1" data-original="#ffffff" class=""></path><path fill="#505069" d="M13 60a12.75 12.75 0 1 1 12.75-12.75A12.765 12.765 0 0 1 13 60zm0-24a11.25 11.25 0 1 0 11.25 11.25A11.263 11.263 0 0 0 13 36z" opacity="1" data-original="#505069" class=""></path><g fill="#f06478"><rect width="2.5" height="1.5" x="20.25" y="46.5" rx=".75" fill="#d9b489" opacity="1" data-original="#f06478" class=""></rect><rect width="2.5" height="1.5" x="19.111" y="42.25" rx=".75" transform="rotate(-30 20.363 43.005)" fill="#d9b489" opacity="1" data-original="#f06478" class=""></rect><rect width="2.5" height="1.5" x="16" y="39.139" rx=".75" transform="rotate(-60 17.248 39.889)" fill="#d9b489" opacity="1" data-original="#f06478" class=""></rect><rect width="2.5" height="1.5" x="7.5" y="53.861" rx=".75" transform="rotate(-60 8.747 54.61)" fill="#d9b489" opacity="1" data-original="#f06478" class=""></rect><rect width="1.5" height="2.5" x="12.25" y="54.5" rx=".75" fill="#d9b489" opacity="1" data-original="#f06478" class=""></rect><rect width="1.5" height="2.5" x="16.5" y="53.361" rx=".75" transform="rotate(-30 17.248 54.612)" fill="#d9b489" opacity="1" data-original="#f06478" class=""></rect><rect width="1.5" height="2.5" x="19.611" y="50.25" rx=".75" transform="rotate(-60 20.36 51.501)" fill="#d9b489" opacity="1" data-original="#f06478" class=""></rect><rect width="2.5" height="1.5" x="4.389" y="50.75" rx=".75" transform="rotate(-30 5.639 51.505)" fill="#d9b489" opacity="1" data-original="#f06478" class=""></rect><path d="M4 47.25h9v-9a9 9 0 0 0-9 9z" fill="#d9b489" opacity="1" data-original="#f06478" class=""></path></g></g></svg>