<svg xmlns="http://www.w3.org/2000/svg" version="1.1" xmlns:xlink="http://www.w3.org/1999/xlink" width="70" height="70" x="0" y="0" viewBox="0 0 512 512" style="enable-background:new 0 0 512 512" xml:space="preserve" class=""><g><path d="M390.971 440.026c-5.086 2.771-10.243 5.631-15.465 8.526-44.189 24.5-94.274 52.27-142.411 47.971L62.623 481.305a7.447 7.447 0 0 0-.668-.03H15.029v-84.363h46.925c1.777 0 3.497-.63 4.853-1.777.133-.112 13.562-11.395 34.006-22.015a7.515 7.515 0 1 0-6.928-13.337c-17.238 8.955-29.743 18.28-34.589 22.1H7.515A7.516 7.516 0 0 0 0 389.398v99.392a7.515 7.515 0 0 0 7.515 7.515h54.104l170.139 15.189c3.843.343 7.677.507 11.512.507 48.792 0 96.803-26.618 139.523-50.303 5.19-2.877 10.315-5.719 15.369-8.474a7.515 7.515 0 0 0 3.003-10.194 7.512 7.512 0 0 0-10.194-3.004z" fill="#d2b57f" opacity="1" data-original="#000000" class=""></path><path d="M506.199 356.787c-7.99-10.591-21.911-14.249-33.926-9.219a26.041 26.041 0 0 0-4.784-13.478c-7.514-10.519-21.799-13.908-33.228-7.884l-17.872 9.419a25.864 25.864 0 0 0-3.674-11.974c-7.13-11.787-22.197-15.88-34.302-9.319l-13.358 7.242a26.617 26.617 0 0 0-5.139-14.528c-7.833-10.659-22.015-13.938-33.722-7.797l-96.438 50.58c-10.845-4.164-45.417-15.425-85.81-7.905-6.968 1.298-14.147 3.174-21.339 5.579a7.515 7.515 0 0 0 4.765 14.254c6.536-2.185 13.037-3.886 19.324-5.057 43.12-8.029 80.021 8.101 80.378 8.26.969.435 2.018.66 3.08.66h100.38c7.132 0 12.934 5.819 12.934 12.971 0 6.519-4.864 12.051-11.313 12.868L204.93 407.573a7.514 7.514 0 0 0 .045 14.915l54.033 6.513c52.341 6.307 104.369-3.902 150.463-29.526l67.521-37.535c5.94-3.095 13.166-1.461 17.208 3.898 5.05 6.374 2.855 16.596-4.377 20.319l-72.447 39.48c-8.662 4.552-1.238 17.996 7.192 13.197l72.447-39.48a28.71 28.71 0 0 0 14.334-19.166 28.745 28.745 0 0 0-5.15-23.401zm-173.024-44.229c5.078-2.663 11.23-1.239 14.631 3.388 4.178 5.388 2.281 13.935-3.793 17.036l-32.48 17.609h-50.871zm6.835 39.69 45.566-24.704a10.707 10.707 0 0 1 14.28 3.887c3.237 5.084 1.211 12.425-4.184 15.113l-39.522 20.83c-3.07-7.001-8.916-12.513-16.14-15.126zm62.159 34.091c-41.333 22.978-87.747 32.765-134.641 28.454l66.516-8.425c12.34-1.562 21.988-11.1 24.043-23.027l83.181-43.84c4.81-2.535 10.825-1.107 13.991 3.324 3.833 5.093 2.053 13.041-3.595 15.999zM174.991 204.184c8.487 0 16.652-1.836 24.266-5.457a7.514 7.514 0 0 0 3.559-10.014 7.514 7.514 0 0 0-10.014-3.559c-5.581 2.654-11.574 4-17.811 4-22.901 0-41.533-18.632-41.533-41.533s18.632-41.532 41.533-41.532 41.533 18.631 41.533 41.532a41.56 41.56 0 0 1-5.141 20.033 7.514 7.514 0 1 0 13.158 7.262c4.587-8.312 7.012-17.75 7.012-27.296 0-31.189-25.374-56.562-56.562-56.562s-56.562 25.373-56.562 56.562 25.374 56.564 56.562 56.564z" fill="#d2b57f" opacity="1" data-original="#000000" class=""></path><path d="m57.647 169.964 15.575 2.341a103.344 103.344 0 0 0 12.358 29.819l-9.363 12.675c-4.424 5.99-3.813 14.158 1.453 19.422l10.722 10.723c5.265 5.265 13.434 5.876 19.423 1.452l12.674-9.362a103.335 103.335 0 0 0 29.819 12.359l2.342 15.575c1.107 7.363 7.315 12.707 14.76 12.707h15.163c7.446 0 13.654-5.344 14.76-12.708l2.341-15.574a103.335 103.335 0 0 0 29.819-12.359l12.675 9.363c5.989 4.423 14.158 3.813 19.422-1.452l10.722-10.722c5.266-5.264 5.877-13.433 1.453-19.423l-9.362-12.674a103.304 103.304 0 0 0 12.358-29.819l15.574-2.341c7.363-1.107 12.708-7.314 12.708-14.761v-.068h44.596v95.782c0 9.663 7.862 17.525 17.525 17.525h32.104c3.437 15.318 17.137 26.801 33.477 26.801 18.922 0 34.317-15.394 34.317-34.317 0-18.922-15.394-34.317-34.317-34.317-16.341 0-30.041 11.484-33.478 26.803h-32.104a2.498 2.498 0 0 1-2.495-2.495v-95.782h34.599c3.437 15.319 17.137 26.803 33.478 26.803 18.922 0 34.317-15.394 34.317-34.317s-15.394-34.317-34.317-34.317c-16.34 0-30.04 11.483-33.478 26.801H364.67v-95.78a2.498 2.498 0 0 1 2.495-2.495h32.104c3.437 15.319 17.137 26.802 33.478 26.802 18.922 0 34.317-15.394 34.317-34.317S451.668 0 432.746 0c-16.34 0-30.04 11.483-33.478 26.802h-32.104c-9.663 0-17.525 7.861-17.525 17.524v95.78h-44.596v-.066c0-7.445-5.344-13.653-12.707-14.76l-15.575-2.341a103.332 103.332 0 0 0-12.358-29.819l9.362-12.674c4.424-5.99 3.814-14.159-1.452-19.423L261.591 50.3c-5.264-5.265-13.433-5.875-19.423-1.452l-12.674 9.362a103.327 103.327 0 0 0-29.819-12.358l-2.341-15.575c-1.106-7.363-7.314-12.708-14.76-12.708H167.41c-7.445 0-13.653 5.344-14.76 12.708l-2.342 15.575a103.355 103.355 0 0 0-29.819 12.358l-12.674-9.362c-5.988-4.424-14.158-3.814-19.423 1.452L77.67 61.021c-5.266 5.265-5.877 13.434-1.453 19.423l9.362 12.674a103.316 103.316 0 0 0-12.358 29.819l-15.575 2.341c-7.363 1.107-12.707 7.315-12.707 14.76v15.163c0 7.449 5.345 13.656 12.708 14.763zm375.099 71.675c10.635 0 19.287 8.652 19.287 19.287s-8.652 19.287-19.287 19.287-19.287-8.652-19.287-19.287 8.652-19.287 19.287-19.287zm0-113.305c10.635 0 19.287 8.652 19.287 19.287s-8.652 19.287-19.287 19.287-19.287-8.652-19.287-19.287 8.652-19.287 19.287-19.287zm0-113.305c10.635 0 19.287 8.652 19.287 19.287s-8.652 19.287-19.287 19.287-19.287-8.652-19.287-19.287c0-10.634 8.652-19.287 19.287-19.287zM59.968 140.128l20.627-3.101a7.513 7.513 0 0 0 6.269-6.046c2.29-12.213 7.018-23.62 14.05-33.905a7.515 7.515 0 0 0-.159-8.707L88.359 71.586 98.956 60.99l16.783 12.397a7.515 7.515 0 0 0 8.706.159c10.286-7.033 21.693-11.76 33.905-14.051a7.514 7.514 0 0 0 6.046-6.269l3.101-20.627h14.986l3.101 20.627a7.514 7.514 0 0 0 6.046 6.269c12.212 2.29 23.62 7.018 33.905 14.051a7.515 7.515 0 0 0 8.707-.159l16.783-12.397 10.597 10.596-12.396 16.784a7.517 7.517 0 0 0-.159 8.707c7.033 10.285 11.76 21.692 14.051 33.906a7.517 7.517 0 0 0 6.269 6.046l20.627 3.101v14.986l-20.627 3.101a7.515 7.515 0 0 0-6.269 6.046c-2.291 12.214-7.018 23.621-14.051 33.906a7.513 7.513 0 0 0 .159 8.706l12.397 16.783-10.597 10.597-16.783-12.397a7.515 7.515 0 0 0-8.707-.158c-10.285 7.033-21.692 11.76-33.906 14.051a7.517 7.517 0 0 0-6.046 6.269l-3.101 20.627h-14.986l-3.101-20.627a7.517 7.517 0 0 0-6.046-6.269c-12.214-2.291-23.621-7.018-33.906-14.051a7.515 7.515 0 0 0-8.706.158l-16.783 12.397-10.597-10.597 12.397-16.783a7.515 7.515 0 0 0 .159-8.706c-7.033-10.285-11.76-21.692-14.05-33.905a7.514 7.514 0 0 0-6.269-6.046l-20.627-3.101z" fill="#d2b57f" opacity="1" data-original="#000000" class=""></path></g></svg>