<svg xmlns="http://www.w3.org/2000/svg" version="1.1" xmlns:xlink="http://www.w3.org/1999/xlink" width="70" height="70" x="0" y="0" viewBox="0 0 512 512" style="enable-background:new 0 0 512 512" xml:space="preserve" class=""><g><linearGradient id="a" x1="256" x2="256" y1=".5" y2="511.5" gradientUnits="userSpaceOnUse"><stop stop-opacity="1" stop-color="#d2b57f" offset="0"></stop><stop stop-opacity="1" stop-color="#d2b57f" offset="0.062"></stop><stop stop-opacity="1" stop-color="#d2b57f" offset="0.186"></stop><stop stop-opacity="1" stop-color="#d2b57f" offset="0.265"></stop><stop stop-opacity="1" stop-color="#d2b57f" offset="1"></stop></linearGradient><path fill="url(#a)" d="M327.664.5C264.874.5 213.79 50.556 213.79 112.082c0 37.494 14.297 54.523 25.786 68.204 8.449 10.063 15.123 18.012 15.123 32.315 0 8.206 5.37 15.182 12.817 17.734v20.346c0 11.544 9.875 20.936 22.011 20.936h1.923v2.065c0 18.797 16.246 34.091 36.214 34.091 19.952 0 36.184-15.293 36.184-34.091v-2.065h1.953c12.136 0 22.011-9.392 22.011-20.936v-20.353c7.448-2.557 12.817-9.528 12.817-17.727 0-14.305 6.668-22.254 15.113-32.316 11.479-13.682 25.767-30.71 25.767-68.203C441.508 50.556 390.438.5 327.664.5zm22.207 273.182c0 11.091-9.962 20.114-22.208 20.114-12.261 0-22.237-9.023-22.237-20.114v-2.065h44.445zm23.963-23.001c0 3.772-3.68 6.959-8.034 6.959h-76.273c-4.355 0-8.034-3.187-8.034-6.959v-19.294h92.342v19.294zm31.2-79.379c-9.038 10.77-18.383 21.907-18.383 41.3 0 2.652-2.285 4.809-5.093 4.809H273.74c-2.792 0-5.064-2.157-5.064-4.809 0-19.393-9.352-30.531-18.396-41.302-11.068-13.182-22.513-26.812-22.513-59.218 0-53.82 44.813-97.605 99.896-97.605 55.067 0 99.868 43.785 99.868 97.605.001 32.406-11.436 46.037-22.497 59.22zm3.571-59.22a6.988 6.988 0 1 1-13.976 0c0-35.677-30.04-64.702-66.965-64.702a6.989 6.989 0 1 1 0-13.976c44.631-.001 80.941 35.294 80.941 78.678zm-287.894 41.136v-20.766a6.989 6.989 0 0 1 13.977 0v20.766a6.988 6.988 0 0 1-13.977 0zm24.352-1.131 13.749-17.994a6.988 6.988 0 0 1 11.105 8.485l-13.749 17.994a6.977 6.977 0 0 1-5.558 2.746 6.99 6.99 0 0 1-5.547-11.231zM288.76 314.928c-7.018-4.136-15.839-5.845-24.189-4.437 1.32-12.035-4.332-24.309-15.41-30.838-8.056-4.735-17.367-5.506-25.648-2.898a32.39 32.39 0 0 0-.917-5.349c-2.129-8.224-7.314-15.111-14.591-19.39a31.535 31.535 0 0 0-18.063-4.314l28.994-49.207c4.29-7.279 5.479-15.817 3.349-24.043-2.128-8.224-7.313-15.112-14.591-19.391-15.069-8.88-34.554-3.85-43.434 11.218-5.096 8.653-11.478 18.504-18.235 28.934l-.255.394c-12.678-13.49-30.457-21.313-49.244-21.313-2.438 0-4.868.129-7.206.378-8.049.842-14.567 5.88-17.445 13.497-2.833 7.567-1.249 15.638 4.252 21.604 11.981 12.912 20.692 30.454 24.523 49.381a114.2 114.2 0 0 1 1.667 11.235c-17.369 37.667-25.873 76.94-6.77 110.444 8.171 14.326 17.642 20.774 25.252 25.954 9.96 6.782 15.446 10.518 15.446 29.005v4.101h-1.16c-11.31 0-20.512 9.202-20.512 20.512v44.107a6.988 6.988 0 0 0 13.976 0v-44.107a6.543 6.543 0 0 1 6.535-6.535h123.152a6.542 6.542 0 0 1 6.535 6.535v44.107a6.989 6.989 0 0 0 13.977 0v-44.107c0-11.31-9.202-20.512-20.512-20.512h-1.159v-14.346l40.451-68.028c11.302-19.189 3.74-35.217-8.768-42.591zM86.383 200.282c-1.891-2.051-2.396-4.613-1.43-7.194.991-2.624 3.058-4.227 5.834-4.518 1.863-.2 3.792-.3 5.735-.3 16.08 0 31.217 7.244 41.359 19.553-8.443 13.173-17.197 27.266-25.111 41.824-4.919-18.838-14.146-36.175-26.387-49.365zM285.5 350.401l-41.417 69.654a6.97 6.97 0 0 0-.982 3.571v16.267h-92.88v-4.101c0-25.88-10.96-33.341-21.559-40.558-7.083-4.822-14.408-9.809-20.977-21.325C79.229 324 124.612 253.956 157.751 202.813c6.841-10.559 13.302-20.531 18.548-29.44 4.965-8.428 15.867-11.239 24.302-6.266 4.064 2.389 6.959 6.242 8.152 10.849 1.193 4.609.533 9.383-1.86 13.444l-42.324 71.832c-.047.081-.084.165-.129.247l-25.899 43.974a6.99 6.99 0 0 0 12.043 7.094l26.027-44.191c.025-.043.044-.087.068-.13 5.016-8.331 15.851-11.104 24.234-6.162 4.063 2.389 6.958 6.242 8.151 10.848 1.194 4.607.534 9.38-1.869 13.46l-26.02 44.177a6.99 6.99 0 0 0 12.043 7.094l24.456-41.521c.033-.052.069-.099.1-.152 4.96-8.417 15.86-11.23 24.297-6.269 8.417 4.96 11.228 15.863 6.27 24.295l-5.487 9.308a6.968 6.968 0 0 0-.749 1.825l-23.189 39.369a6.989 6.989 0 0 0 12.043 7.093l25.64-43.53c6.157-7.183 17.391-7.615 25.064-3.092 3.936 2.32 12.189 9.251 3.837 23.432zM85.453 142.578a6.988 6.988 0 0 1 11.106-8.485l13.75 17.994a6.988 6.988 0 0 1-11.106 8.485z" opacity="1" data-original="url(#a)" class=""></path></g></svg>