<svg xmlns="http://www.w3.org/2000/svg" version="1.1" xmlns:xlink="http://www.w3.org/1999/xlink" width="70" height="70" x="0" y="0" viewBox="0 0 512 512" style="enable-background:new 0 0 512 512" xml:space="preserve" class=""><g><path d="M228.45 311.21c-3.88 0-7-3.15-7-7 0-3.88 3.12-7 7-7h58.96c3.85 0 7 3.12 7 7v23.95l3.74-2.15c3.34-1.93 7.6-.79 9.52 2.55 1.96 3.32.79 7.6-2.52 9.52l-13.83 7.99c-2.58 1.62-5.24 1.62-7.82 0l-13.83-7.99c-3.32-1.93-4.45-6.21-2.52-9.52 1.93-3.34 6.21-4.48 9.52-2.55l3.74 2.15v-16.95zm162.96-108.74c25.71 0 46.6 20.86 46.6 46.57 0 25.74-20.89 46.6-46.6 46.6-25.74 0-46.6-20.86-46.6-46.6 0-25.71 20.86-46.57 46.6-46.57zM414.46 226c-12.73-12.73-33.36-12.73-46.12 0-12.73 12.73-12.73 33.39 0 46.12 12.76 12.73 33.39 12.73 46.12 0s12.73-33.39 0-46.12zm-19.62-66.9c4.96 0 8.79-.11 12.87 3.97 4.34 4.34 3.94 8.62 3.94 13.89a73.29 73.29 0 0 1 17.12 7.11c3.8-3.8 6.55-7.06 12.64-7.06 3.37 0 6.94 1.33 9.52 3.97l8.65 8.62c5.27 5.27 5.22 13.92-.03 19.05l.03.03-3.09 3.09a73.84 73.84 0 0 1 7.09 17.12c5.33 0 9.58-.4 13.89 3.97 2.44 2.44 3.97 5.81 3.97 9.52v12.19c0 3.71-1.53 7.06-3.97 9.52v.03c-4.34 4.34-8.56 3.94-13.89 3.94l-3 8.79a75.517 75.517 0 0 1-4.08 8.33c3.77 3.77 7.03 6.49 7.03 12.61 0 3.4-1.33 6.94-3.97 9.52l.03.03-8.65 8.62c-5.27 5.3-13.92 5.24-19.05 0h-.03l-3.09-3.09a73.469 73.469 0 0 1-17.12 7.11c0 5.33.4 9.55-3.94 13.89a13.423 13.423 0 0 1-9.52 3.94h-12.22c-7.43 0-13.49-6.04-13.49-13.46V320l-8.79-3.03v.03c-2.83-1.19-5.64-2.55-8.33-4.11-3.77 3.8-6.43 7.03-12.61 7.03v.03c-3.4 0-6.94-1.33-9.52-3.97h-.03l-9.13-9.18c-3.54-4.14-4.42-9.47-2.32-14.31-14.23 2.3-32.85-2.07-36.91-17.04l-2.92-10.74h-1.81c-9.64 0-17.52-7.85-17.52-17.49v-4.62c0-5.44 2.52-10.37 6.55-13.63-4.62-10.71-10.37-20.66-15.85-30.08-10.54-18.2-20.1-34.67-20.1-53.38 0-45.1 36.57-81.67 81.67-81.67s81.67 36.57 81.67 81.67c-.01 4.55-.61 9.11-1.69 13.59zm-70.98 118.49-3.32-9.52h-4.37c-3.4 0-6.52-1.28-8.9-3.37h-10.86c.65 2.41 1.73 7.63 2.95 9.21 4.49 5.86 17.25 6.09 24.5 3.68zm-21.14-26.87c0-3.03-.26-9.01.4-11.62H280.1c-1.93 0-3.51 1.59-3.51 3.49v4.62c0 1.9 1.59 3.51 3.51 3.51zm31.8-70.9a13.455 13.455 0 0 1 17.74 1.16l3.09 3.09c2.66-1.53 5.44-2.89 8.33-4.08v-.03c2.86-1.19 5.81-2.18 8.79-3 0-5.33-.4-9.55 3.97-13.89 1.02-1.02 2.18-1.87 3.49-2.52 1.62-4.93 2.58-9.84 2.58-15.05 0-37.36-30.3-67.66-67.66-67.66-37.39 0-67.66 30.3-67.66 67.66 0 15.02 8.62 29.91 18.2 46.38 5.92 10.26 12.22 21.09 17.29 33.22h12.5v-57.69a7.725 7.725 0 0 0-4-3.49c-4-1.5-8.99.03-10.69 4.51-1.36 3.6-5.41 5.41-9.01 4.05-3.63-1.39-5.44-5.41-4.05-9.01 7.14-18.77 34.13-18.77 41.27 0 .31.79.45 1.64.45 2.47v59.16h11.37v-59.16c0-.82.17-1.67.48-2.47 7.11-18.77 34.13-18.77 41.27 0 1.36 3.6-.45 7.63-4.05 9.01-3.6 1.36-7.65-.45-9.01-4.05-1.73-4.48-6.69-6.01-10.69-4.51a7.681 7.681 0 0 0-4 3.49zm63.13-6.72h-11.17c0 4.76.4 8.33-2.78 12.44a13.38 13.38 0 0 1-7.23 4.82c-2.55.68-5.05 1.53-7.43 2.52v-.03l-7.03 3.49c-5.3 3.06-11.99 2.18-16.3-2.13l-2.98-2.98-7.91 7.91 2.98 2.98v.03c4.34 4.34 5.22 10.94 2.13 16.24a61.623 61.623 0 0 0-3.46 7.06c-1.76 4.17-1.96 6.09-3.03 8.99-1.9 4.99-7 8.45-12.5 8.45h-4.22v11.17c4.76 0 8.31-.37 12.42 2.78a13.49 13.49 0 0 1 4.82 7.23c1.36 5.1 3.37 9.95 5.98 14.46 3.09 5.33 2.21 11.99-2.13 16.3l-2.98 2.98 7.91 7.91 2.98-2.98h.03c4.34-4.34 10.94-5.19 16.27-2.13 2.24 1.28 4.59 2.44 7.03 3.46v.03c2.35.96 4.82 1.79 7.43 2.49 5.92 1.59 10.01 6.89 10.01 13.01v4.25h11.17c0-4.76-.37-8.33 2.78-12.44 1.79-2.3 4.28-4.03 7.23-4.82 5.1-1.36 9.98-3.37 14.49-5.98a13.41 13.41 0 0 1 16.27 2.13l3 2.98 7.91-7.91-3-2.98v-.03a13.464 13.464 0 0 1-2.13-16.27c1.3-2.21 2.47-4.56 3.49-7.03.96-2.35 1.81-4.82 2.49-7.43 1.59-5.9 6.89-10.01 13.04-10.01h4.22v-11.17c-4.76 0-8.31.37-12.44-2.78-5.13-3.97-4.65-8.56-7.17-14.34l-3.63-7.37a13.464 13.464 0 0 1 2.13-16.27l3-2.98-7.91-7.91c-3.37 3.37-5.61 6.12-10.8 6.8-2.86.4-5.84-.17-8.48-1.7a59.425 59.425 0 0 0-14.49-5.98c-5.9-1.59-10.01-6.89-10.01-13.01zM142.62 444.98c-3.34 1.93-7.63.79-9.55-2.55-1.93-3.34-.79-7.63 2.55-9.55l13.8-7.97c2.58-1.62 5.27-1.62 7.85 0l13.8 7.97c3.34 1.93 4.48 6.21 2.55 9.55s-6.21 4.48-9.55 2.55l-3.74-2.15v16.95h55.98c3.86 0 7 3.15 7 7 0 3.86-3.15 7-7 7h-62.99c-3.85 0-7-3.15-7-7v-23.95zm267.79-84.59c26.39 0 42.46 28.89 29 51.25 14.37 5.58 24.29 19.53 24.29 35.38v30.95c0 3.86-3.15 7-7 7h-92.55c-3.88 0-7-3.15-7-7v-30.95c0-15.85 9.92-29.79 24.26-35.38-13.47-22.37 2.63-51.25 29-51.25zm17.57 62.73c-5.1 3.12-11.14 4.93-17.57 4.93s-12.44-1.81-17.57-4.93c-5.73.54-10.89 3.15-14.74 7.03a23.827 23.827 0 0 0-6.94 16.87v23.95h78.55v-23.95c-.02-12.42-9.57-22.74-21.73-23.9zm-3.54-42.92c-12.47-12.47-33.85-3.6-33.85 14 0 17.63 21.37 26.48 33.85 14.03 7.74-7.73 7.74-20.29 0-28.03zm-134.22-19.81c26.36 0 42.46 28.89 29 51.25 14.34 5.58 24.26 19.53 24.26 35.38v30.95c0 3.86-3.15 7-7 7h-92.55c-3.86 0-7-3.15-7-7v-30.95c0-15.85 9.92-29.79 24.26-35.38-13.44-22.37 2.64-51.25 29.03-51.25zm17.57 62.73a33.704 33.704 0 0 1-17.57 4.93c-6.46 0-12.47-1.81-17.6-4.93-5.7.54-10.89 3.15-14.74 7.03-4.28 4.34-6.94 10.29-6.94 16.87v23.95h78.55v-23.95c-.01-12.42-9.57-22.74-21.7-23.9zm-3.57-42.92c-12.44-12.47-33.85-3.6-33.85 14 0 17.63 21.4 26.48 33.85 14.03 7.74-7.73 7.74-20.29 0-28.03zm8.33-352.48c.14-3.83 3.37-6.86 7.23-6.72s6.86 3.37 6.72 7.23l-.79 21.4c-.14 3.85-3.37 6.86-7.23 6.75a6.976 6.976 0 0 1-6.72-7.23zm-121.6 126.19c-3.85-.14-6.86-3.37-6.75-7.23a6.976 6.976 0 0 1 7.23-6.72l21.43.82c3.83.11 6.86 3.35 6.72 7.2s-3.37 6.86-7.23 6.72zm15.42-62.27c-3.26-2.04-4.22-6.35-2.18-9.61 2.07-3.26 6.38-4.25 9.64-2.21l18.14 11.42c3.26 2.04 4.22 6.38 2.18 9.64s-6.38 4.22-9.64 2.18zm44.53-46.21c-1.79-3.4-.48-7.63 2.92-9.41a6.983 6.983 0 0 1 9.44 2.92l10.01 18.96c1.79 3.4.48 7.62-2.92 9.41a6.983 6.983 0 0 1-9.44-2.92zm187.85 103.92c3.85.14 6.86 3.37 6.72 7.23a6.976 6.976 0 0 1-7.23 6.72l-21.4-.82c-3.86-.11-6.86-3.34-6.72-7.2.11-3.86 3.37-6.86 7.2-6.75zM421.04 87.7c3.4-1.81 7.63-.51 9.44 2.92 1.79 3.4.48 7.63-2.95 9.44l-18.94 10.01c-3.43 1.79-7.65.48-9.44-2.95-1.79-3.4-.48-7.63 2.92-9.41zm-46.21-44.54c2.07-3.26 6.38-4.22 9.64-2.18s4.22 6.35 2.18 9.64l-11.42 18.11c-2.04 3.29-6.35 4.25-9.61 2.21-3.26-2.07-4.25-6.38-2.21-9.64zM71.61 373.29c0-3.88 3.12-7 7-7 3.86 0 7 3.12 7 7v26.02h91.5v-26.02c0-3.88 3.15-7 7-7 3.88 0 7 3.12 7 7v26.02h26.96V363c0-23.16-16.13-43.11-38.13-48.47v37.62h-.03c0 5.33-5.81 8.76-10.49 6.04l-35.69-20.78-35.69 20.78c-4.68 2.72-10.49-.71-10.49-6.04h-.03V313.6c-24.29 3.46-42.89 24.49-42.89 49.41v36.31h26.96v-26.03zm76-43.97 18.34 10.66v-21.34zm-13.87-8.08 16.13-9.41c.6-.65 1.45-4.68 1.53-6.07l.06-5.78c-10.8 4.88-24.77 5.02-35.72.28 0 2.89-.2 5.87.54 8.67.26.94.57 1.81.94 2.66zm-23.1 13.44 9.24-5.36-18.34-10.69v21.34zm64.97-111.32c8.19-9.35 8.96-23.95 6.46-38.35-1.39-7.99-21.29.88-33.87-.28-18.43-1.7-20.27-10.77-36.96-.25-1.67 1.05-3.6 1.3-5.39.88-23.81-5.92-26.56 18.23-17.35 37.3 6.15-7.99 14.8-13.86 26.22-14.63 2.07-.14 3.97.62 5.33 1.98 14.97 14.17 38.64 15.79 55.56 13.35zm20.33-11c-1.22 5.58-3.15 10.29-5.5 14.26 9.38.45 14.91 8.87 12.7 18.23l-3.23 13.72c-2.04 8.67-10.15 16.47-18.94 17.55l-6.83.82c-2.38 4.56-5.22 8.9-8.67 12.7v9.47h2.69c35.18 0 63.92 28.74 63.92 63.89v43.31c0 3.88-3.15 7-7 7H37.65c-3.85 0-7-3.12-7-7V363c0-35.15 28.74-63.89 63.92-63.89h7.17v-8.76c-1.53-1.59-2.92-3.29-4.22-5.05a60.996 60.996 0 0 1-5.19-8.36c-7.57-.94-12.59-.91-18.88-6.8-3.32-3.09-5.87-7.2-6.89-11.57l-3.23-13.72c-2.1-8.84 2.75-17.09 11.65-18.14-5.87-13.29-7.8-29.17-1.3-41.41 10.32-19.42 31.97-14.03 32.6-14.14 14.71-8.62 21.83-6.26 31.12-3.15 10.49 3.49 12.98 3.57 24.94 1.36 15-2.78 30.25-5.61 33.51 13.29 2.07 11.96 1.82 21.74.09 29.7zm-25.12 25.6c-19.16 1.53-41.07-1.64-57.88-15.62-4.14.82-7.48 2.81-10.2 5.33-3.06 2.86-5.39 6.41-7.11 9.81.74 7.14 2.61 18.54 7.11 28.91 2.13 4.34 2.89 6.38 5.98 10.6 5.44 7.34 13.27 12.7 24.52 12.7 15.19 0 24.35-9.92 29.85-21.66.2-.79.54-1.5.96-2.13 4.25-10 6.03-20.91 6.77-27.94zm13.64 3.23c-.71 5.67-2.01 13.1-4.37 20.83 2.72-.82 5.56-3.86 6.21-6.63.45-1.96 3.4-13.8 3.34-14.83zm-98.11 20.84c-2.35-7.74-3.66-15.17-4.34-20.83l-5.19-.62c-.06 1.02 2.89 12.87 3.34 14.83.66 2.76 3.47 5.8 6.19 6.62z" fill="#d2b57f" opacity="1" data-original="#000000" class=""></path></g></svg>