<svg xmlns="http://www.w3.org/2000/svg" version="1.1" xmlns:xlink="http://www.w3.org/1999/xlink" width="512" height="512" x="0" y="0" viewBox="0 0 64 64" style="enable-background:new 0 0 512 512" xml:space="preserve" class=""><g><path fill="#dab581" d="M1 15h62v48H4a3 3 0 0 1-3-3V15z" opacity="1" data-original="#a2e983" class=""></path><path fill="#cfd8ca" d="M1 60a3 3 0 0 1 3-3h6V9H4a3 3 0 0 0-3 3z" opacity="1" data-original="#b4f491" class=""></path><path fill="#ffec96" d="M31 31h28V3zm23-5H43.071L54 15.071z" opacity="1" data-original="#ffec96" class=""></path><path fill="#fae169" d="M59 5.828 33.828 31H59zM54 26H43.071L54 15.071z" opacity="1" data-original="#fae169" class=""></path><path fill="#ffec96" d="M13 3v2a2 2 0 0 0 2 2h3V1h-3a2 2 0 0 0-2 2z" opacity="1" data-original="#ffec96" class=""></path><path fill="#dab581" d="M18 1h26v6H18z" opacity="1" data-original="#f788a7" class=""></path><path fill="#ffe3d6" d="M44 1v6l9-3z" opacity="1" data-original="#ffe3d6"></path><path fill="#fae169" d="M15 4v3h3V3h-2a1 1 0 0 0-1 1z" opacity="1" data-original="#fae169" class=""></path><path fill="#c59859" d="M18 3h26v4H18z" opacity="1" data-original="#f3698c" class=""></path><path fill="#ffd0bb" d="M44 3v4l6-2z" opacity="1" data-original="#ffd0bb" class=""></path><path fill="#fafcff" d="M57 49h-8v-3l2-2h6z" opacity="1" data-original="#fafcff" class=""></path><path fill="#f0f6ff" d="M57 49h-6v-2l1-1h5z" opacity="1" data-original="#f0f6ff" class=""></path><rect width="10" height="10" x="48" y="49" fill="#82788c" rx="1" opacity="1" data-original="#82788c"></rect><rect width="8" height="8" x="50" y="51" fill="#6e5f78" rx="1" opacity="1" data-original="#6e5f78"></rect><path d="M15 17.25h-2a.75.75 0 0 0 0 1.5h2a.75.75 0 0 0 0-1.5zM15 20.25h-2a.75.75 0 0 0 0 1.5h2a.75.75 0 0 0 0-1.5zM15 23.25h-2a.75.75 0 0 0 0 1.5h2a.75.75 0 0 0 0-1.5zM18 18.75h8a.75.75 0 0 0 0-1.5h-8a.75.75 0 0 0 0 1.5zM18 21.75h8a.75.75 0 0 0 0-1.5h-8a.75.75 0 0 0 0 1.5zM18 24.75h8a.75.75 0 0 0 0-1.5h-8a.75.75 0 0 0 0 1.5zM57.75 48.426V44a.75.75 0 0 0-.75-.75h-6a.747.747 0 0 0-.53.22l-2 2a.747.747 0 0 0-.22.53v2.426a1.748 1.748 0 0 0-1 1.574v8A1.752 1.752 0 0 0 49 59.75h8A1.752 1.752 0 0 0 58.75 58v-8a1.748 1.748 0 0 0-1-1.574zm-8-2.115 1.561-1.561h4.939v3.5h-6.5zM57.25 58a.25.25 0 0 1-.25.25h-8a.25.25 0 0 1-.25-.25v-8a.25.25 0 0 1 .25-.25h8a.25.25 0 0 1 .25.25z" fill="#000000" opacity="1" data-original="#000000" class=""></path><path d="M63 14.25h-3.25V3a.75.75 0 0 0-1.28-.53L46.689 14.25H10.75V9a.75.75 0 0 0-.75-.75H4A3.755 3.755 0 0 0 .25 12v48A3.755 3.755 0 0 0 4 63.75h59a.75.75 0 0 0 .75-.75V15a.75.75 0 0 0-.75-.75zm-4.75-9.439V30.25H32.811zM1.75 12A2.253 2.253 0 0 1 4 9.75h5.25v46.5H4a3.728 3.728 0 0 0-2.25.75zm60.5 50.25H4a2.25 2.25 0 0 1 0-4.5h6a.75.75 0 0 0 .75-.75V15.75h34.439L30.47 30.47a.75.75 0 0 0 .53 1.28h28a.75.75 0 0 0 .75-.75V15.75h2.5z" fill="#000000" opacity="1" data-original="#000000" class=""></path><path d="M43.071 26.75H54a.75.75 0 0 0 .75-.75V15.071a.75.75 0 0 0-1.28-.53L42.541 25.47a.75.75 0 0 0 .53 1.28zm10.179-9.868v8.368h-8.368zM30 54.75h6a.75.75 0 0 0 .75-.75v-6a.75.75 0 0 0-.75-.75h-6a.75.75 0 0 0-.75.75v6a.75.75 0 0 0 .75.75zm.75-6h4.5v4.5h-4.5z" fill="#000000" opacity="1" data-original="#000000" class=""></path><path d="M28.441 34.394a.747.747 0 0 0-.882 0l-11 8a.748.748 0 0 0-.309.606v16a.75.75 0 0 0 .75.75h22a.75.75 0 0 0 .75-.75V43a.748.748 0 0 0-.309-.606zM28 35.928l8.694 6.322H19.306zM25.25 58.25h-4.5v-9.5h4.5zm13 0h-11.5V48a.75.75 0 0 0-.75-.75h-6a.75.75 0 0 0-.75.75v10.25h-1.5v-14.5h20.5zM15 7.75h29a.742.742 0 0 0 .238-.039l9-3a.75.75 0 0 0 0-1.423l-9-3A.77.77 0 0 0 44 .25H15A2.75 2.75 0 0 0 12.25 3v2A2.75 2.75 0 0 0 15 7.75zm29.75-5.709L50.628 4 44.75 5.959zm-26-.291h24.5v4.5h-24.5zm-5 1.25A1.252 1.252 0 0 1 15 1.75h2.25v4.5H15A1.252 1.252 0 0 1 13.75 5z" fill="#000000" opacity="1" data-original="#000000" class=""></path></g></svg>