<svg xmlns="http://www.w3.org/2000/svg" version="1.1" xmlns:xlink="http://www.w3.org/1999/xlink" width="512" height="512" x="0" y="0" viewBox="0 0 510 510" style="enable-background:new 0 0 512 512" xml:space="preserve" fill-rule="evenodd" class=""><g><path fill="#dab581" d="M160.383 137.413v121.894c0 12.543 10.277 22.821 22.82 22.821H421.65c12.543 0 22.821-10.278 22.821-22.821V137.413z" opacity="1" data-original="#ecba78" class=""></path><path fill="#dab581" d="M160.383 137.413v121.894c0 12.543 10.277 22.821 22.82 22.821h18.124c-12.561 0-22.821-10.278-22.821-22.821V137.413z" opacity="1" data-original="#e3a76f" class=""></path><path fill="#dab581" d="M437.361 161.799c2.505-1.584 4.899-3.278 7.11-5.102 8.214-6.722 13.906-15.14 13.906-26.191V74.864c0-6.447-5.268-11.696-11.696-11.696H158.172c-6.428 0-11.695 5.249-11.695 11.696v55.642c0 11.033 5.691 19.45 13.906 26.191 2.21 1.824 4.604 3.518 7.109 5.102 47.483 30.041 222.736 29.82 269.869 0z" opacity="1" data-original="#e3a76f" class=""></path><path fill="#c48958" d="M220.998 63.168h162.857v38.034c0 8.049-6.594 14.661-14.661 14.661H235.659c-8.067 0-14.661-6.612-14.661-14.661zM178.506 63.168h-20.334c-6.428 0-11.695 5.249-11.695 11.696v55.642c0 11.033 5.691 19.45 13.906 26.191 2.21 1.824 4.604 3.518 7.109 5.102 3.131 1.971 6.833 3.831 11.014 5.544z" opacity="1" data-original="#c48958" class=""></path><path fill="#837683" d="M273.675 187.935c0 15.877 12.875 28.752 28.752 28.752 15.876 0 28.733-12.875 28.733-28.752 0-15.821-12.801-28.751-28.733-28.751-15.933 0-28.752 12.93-28.752 28.751z" opacity="1" data-original="#837683"></path><path fill="#685e68" d="M273.675 187.935c0 15.877 12.875 28.752 28.752 28.752 1.547 0 3.057-.129 4.531-.369-13.722-2.173-24.221-14.053-24.221-28.383 0-14.293 10.462-26.209 24.221-28.383a28.26 28.26 0 0 0-4.531-.368c-15.933 0-28.752 12.93-28.752 28.751z" opacity="1" data-original="#685e68"></path><path fill="#8ac9fe" d="M146.48 245.311c37.227 0 67.554-30.327 67.554-67.554 0-37.181-30.327-67.553-67.554-67.553-37.181 0-67.553 30.372-67.553 67.553 0 37.227 30.372 67.554 67.553 67.554z" opacity="1" data-original="#8ac9fe"></path><path fill="#60b7ff" d="M141.483 245.127c34.903-2.571 62.551-31.825 62.551-67.37 0-35.501-27.648-64.794-62.551-67.369a67.772 67.772 0 0 1 4.997-.184c37.227 0 67.554 30.372 67.554 67.553 0 37.227-30.327 67.554-67.554 67.554-1.68 0-3.347-.062-4.997-.184z" opacity="1" data-original="#60b7ff" class=""></path><path fill="#f6dccd" d="m84.944 377.953 79.711-46.174c14.967-8.672 30.174-14.822 46.63-9.489 18.33 5.958 48.264 18.714 78.798 24.216 11.339 3.676 18.402 15.015 15.327 26.522-3.099 11.508-12.804 17.441-26.546 15.327l10.691 1.706c12.228 1.97 23.447.288 34.161-5.958l76.636-44.636c59.579-34.69 68.324 18.69 48.528 30.894l-139.097 85.645c-12.781 7.856-26.787 9.706-41.297 5.814L167.61 434.793l-37.381 21.574c-7.183 4.132-16.408 1.657-20.564-5.526l-30.222-52.324c-4.132-7.183-1.658-16.408 5.501-20.564z" opacity="1" data-original="#f6dccd" class=""></path><path fill="#f1cbbc" d="m84.944 377.953 79.711-46.174c14.967-8.672 30.174-14.822 46.63-9.489 9.802 3.171 22.943 8.312 37.693 13.237L94.554 424.703l-15.111-26.186c-4.132-7.183-1.658-16.408 5.501-20.564z" opacity="1" data-original="#f1cbbc"></path><path fill="#d1d1d6" d="m94.193 354.986 63.231 111.711c3.051 5.405 1.129 12.324-4.252 15.375l-21.526 12.18c-5.381 3.051-12.3 1.129-15.375-4.276L53.065 378.265c-3.075-5.405-1.154-12.324 4.252-15.375l21.501-12.18c5.405-3.051 12.324-1.129 15.375 4.276z" opacity="1" data-original="#d1d1d6"></path><path fill="#b1b1b5" d="m127.466 431.742 11.171 19.772 11.075 19.555c3.051 5.381 1.153 12.276-4.228 15.351l7.688-4.348c5.381-3.051 7.303-9.97 4.252-15.375l-11.099-19.628-22.294-39.399-22.318-39.423-7.52-13.261c-2.642-4.684-8.192-6.75-13.141-5.237l12.997 22.967 22.294 39.399 11.099 19.603z" opacity="1" data-original="#b1b1b5"></path><path d="m158.172 451.726 5.897 10.42.011.02c5.193 9.236 1.899 21.023-7.284 26.21l-21.427 12.144-.025.014c-9.236 5.193-21.023 1.9-26.212-7.289L46.123 381.909c-5.241-9.245-1.947-21.042 7.249-26.236l21.452-12.145.006-.004c9.192-5.191 20.983-1.928 26.217 7.263l.01.018 4.749 8.392 55.757-32.281c16.972-9.816 34.32-16.194 52.962-10.141 18.027 5.846 47.457 18.449 77.493 23.877.353.063.701.151 1.042.261 15.376 4.979 24.715 20.529 20.517 36.142a34.31 34.31 0 0 1-2.146 5.863c2.939-.908 5.821-2.174 8.658-3.827l76.402-44.497c27.807-16.2 46.353-14.384 56.846-7.343 9.08 6.091 13.295 16.488 13.024 26.698-.275 10.319-5.203 20.17-13.295 25.153l-138.634 85.356c-14.682 9.061-30.764 11.19-47.425 6.745l-.009-.003-97.363-26.093zm-44.485-78.604 36.604 64.679 14.213-8.207a7.996 7.996 0 0 1 6.071-.8l100.558 26.95c12.256 3.269 24.095 1.764 34.896-4.902l.007-.005 138.64-85.358c3.766-2.32 5.563-7.153 5.69-11.955.151-5.686-2.224-11.709-8.236-14.211-7.891-3.283-20-1.139-37.586 9.106l-76.399 44.496c-12.336 7.188-25.265 9.179-39.355 6.936l-.027-.004-9.471-1.542-.011-.001a8.743 8.743 0 0 1-.323-.06l-.011-.002c-17.25-3.541-33.248-8.751-51.001-13.522-4.264-1.146-6.795-5.538-5.649-9.802s5.538-6.796 9.802-5.65c17.317 4.654 32.928 9.758 49.739 13.234 8.291.912 14.379-2.493 16.286-9.598l.001-.004c1.931-7.176-2.573-14.124-9.539-16.61-30.631-5.628-60.611-18.333-78.999-24.295l-.003-.002c-14.16-4.598-27.118 1.317-40.011 8.773zm-26.546-14.42c-.889-1.558-2.883-2.126-4.441-1.246l-21.446 12.14-.007.004c-1.548.875-2.087 2.864-1.205 4.42l.003.004 63.011 111.341.004.006c.878 1.555 2.876 2.094 4.439 1.218l21.407-12.133.01-.006c1.556-.878 2.095-2.877 1.219-4.44zm-7.686 11.508c4.863-.724 9.379 2.634 10.103 7.497.694 4.863-2.664 9.408-7.527 10.103-4.863.723-9.378-2.664-10.102-7.527-.695-4.863 2.663-9.378 7.526-10.073zm72.94-116.429a76.19 76.19 0 0 1-5.915.229c-41.585 0-75.553-33.918-75.553-75.553 0-38.884 29.699-71.109 67.553-75.131v-27.78c0-10.851 8.859-19.679 19.709-19.679h75.342V39.449c0-17.843 14.603-32.446 32.446-32.446h72.899c17.843 0 32.446 14.603 32.446 32.446v16.418h75.342c10.851 0 19.709 8.828 19.709 19.679v55.659c0 12.218-5.46 21.946-13.915 29.813v98.98c0 16.924-13.865 30.829-30.829 30.829H183.224c-16.964 0-30.829-13.905-30.829-30.829zm2.085-150.456c35.454 3.76 63.698 32.21 67.19 67.705 14.19 2.341 29.913 3.981 46.261 4.93 5.155-14.025 18.624-24.072 34.496-24.072 15.864 0 29.328 10.038 34.488 24.052 41.138-2.385 78.272-8.902 96.171-20.221 2.212-1.405 4.323-2.884 6.275-4.498l.021-.017c6.317-5.185 10.991-11.509 10.991-19.999V75.546c0-2.035-1.674-3.679-3.709-3.679h-54.808v30.037c0 12.463-10.188 22.651-22.65 22.651H235.647c-12.462 0-22.65-10.188-22.65-22.651V71.867h-54.808c-2.035 0-3.709 1.644-3.709 3.679zm67.048 83.889c-3.499 30.14-24.836 54.949-53.133 63.551v9.233c0 8.141 6.669 14.829 14.829 14.829h238.405c8.16 0 14.829-6.688 14.829-14.829v-87.83c-20.565 10.449-57.103 17.196-97.428 19.67-1.622 18.802-17.377 33.533-36.603 33.533-19.218 0-34.967-14.718-36.602-33.508-15.577-.937-30.587-2.488-44.297-4.649zM375.856 71.867H228.997v30.037c0 3.659 2.991 6.651 6.65 6.651h133.559c3.659 0 6.65-2.992 6.65-6.651zm-20.534-16V39.449c0-9.044-7.402-16.446-16.446-16.446h-72.899c-9.044 0-16.446 7.402-16.446 16.446v16.418zM146.48 238.01c32.819 0 59.554-26.735 59.554-59.553 0-32.779-26.735-59.554-59.554-59.554-32.778 0-59.553 26.775-59.553 59.554 0 32.818 26.775 59.553 59.553 59.553zm-37.39-51.99a8.001 8.001 0 0 1 0-11.313 8.001 8.001 0 0 1 11.313 0l13.135 13.134 39.346-35.694a8.005 8.005 0 0 1 11.301.55 8.005 8.005 0 0 1-.55 11.301l-44.991 40.813a8 8 0 0 1-11.032-.268zm172.595 2.61c0 11.464 9.277 20.741 20.742 20.741 11.464 0 20.741-9.277 20.741-20.741 0-11.422-9.256-20.742-20.741-20.742-11.486 0-20.742 9.32-20.742 20.742z" fill="#000000" opacity="1" data-original="#000000" class=""></path></g></svg>