<svg xmlns="http://www.w3.org/2000/svg" version="1.1" xmlns:xlink="http://www.w3.org/1999/xlink" width="512" height="512" x="0" y="0" viewBox="0 0 512 512" style="enable-background:new 0 0 512 512" xml:space="preserve" class=""><g><rect width="192.999" height="230.202" x="197.045" y="68.818" fill="#b6dbff" rx="14.583" opacity="1" data-original="#b6dbff"></rect><rect width="181.805" height="230.202" x="197.045" y="68.818" fill="#e3f1ff" rx="14.583" opacity="1" data-original="#e3f1ff" class=""></rect><path fill="#c86f5c" fill-rule="evenodd" d="M293.544 37.55c-9.858 0-17.85 7.991-17.85 17.849v2.452l-17.696-3.093c-2.659-.465-5.136.201-7.203 1.938s-3.15 4.062-3.15 6.761v19.209h91.796V63.457c0-2.7-1.083-5.024-3.15-6.761s-4.543-2.403-7.203-1.938l-17.696 3.093v-2.452c0-9.858-7.991-17.849-17.85-17.849z" opacity="1" data-original="#c86f5c" class=""></path><path fill="#dab581" fill-rule="evenodd" d="M275.695 55.399v2.452L258 54.758c-2.66-.465-5.136.202-7.203 1.938-2.067 1.737-3.15 4.061-3.15 6.762v19.209h83.783V64.859c0-2.7-1.083-5.024-3.15-6.761s-4.543-2.403-7.203-1.939l-9.683 1.693-4.316.754-2.265.396c.28-24.645-29.118-21.249-29.118-3.602z" opacity="1" data-original="#f29988" class=""></path><path fill="#dab581" fill-rule="evenodd" d="m173.66 75.447-15.585-3.073-6.844-16.499 8.854-13.201-18.249-18.248-13.201 8.853-16.499-6.844-3.073-15.584H83.256l-3.073 15.584-16.499 6.844-13.201-8.853-18.248 18.248 8.853 13.201-6.844 16.499-15.584 3.073v25.807l15.584 3.073 6.844 16.499-8.853 13.201 18.248 18.249 13.201-8.854 16.499 6.844 3.073 15.584h25.807l3.073-15.584 16.499-6.844 13.201 8.854 18.249-18.249-8.854-13.201 6.844-16.499 15.585-3.073z" opacity="1" data-original="#7986bf" class=""></path><path fill="#dab581" fill-rule="evenodd" d="m166.126 101.254-15.584 3.073-6.844 16.499 8.853 13.201-15.224 15.224-11.571-7.759-21.153 8.774-3.073 15.584H83.256l-3.073-15.584-21.153-8.774-11.571 7.759-15.224-15.224 8.853-13.201-6.844-16.499-15.584-3.073V75.447l15.584-3.073 6.844-16.499-8.853-13.201L47.459 27.45l11.571 7.759 21.153-8.774 3.073-15.584h18.274l3.073 15.584 21.153 8.774 11.571-7.759 15.224 15.224-8.853 13.201 6.844 16.499 15.584 3.073z" opacity="1" data-original="#909cd1" class=""></path><circle cx="89.859" cy="88.351" r="39.868" fill="#dab581" transform="rotate(-10.58 89.56 88.205)" opacity="1" data-original="#7986bf" class=""></circle><circle cx="96.16" cy="88.351" r="39.708" fill="#f3f3ff" transform="rotate(-10.58 95.844 88.21)" opacity="1" data-original="#f3f3ff" class=""></circle><path fill="#fdb0a0" fill-rule="evenodd" d="M373.872 161.985c39.623 0 71.744 32.121 71.744 71.744 0 13.379-3.663 25.902-10.04 36.622-2.914 4.899-2.157 10.95 1.873 14.981l12.813 12.813-11.974 11.974-12.813-12.813c-4.03-4.03-10.082-4.787-14.981-1.873-10.72 6.377-23.244 10.04-36.622 10.04-39.623 0-71.744-32.121-71.744-71.744s32.121-71.744 71.743-71.744z" opacity="1" data-original="#fdb0a0" class=""></path><path fill="#dab581" fill-rule="evenodd" d="m445.309 303.099-7.02 7.02-12.813-12.813c-4.031-4.03-10.082-4.787-14.981-1.873-10.72 6.377-23.244 10.039-36.622 10.039-39.623 0-71.744-32.121-71.744-71.743 0-28.876 17.062-53.764 41.653-65.142a71.659 71.659 0 0 1 23.014-3.771c56.011 0 90.598 57.342 59.688 106.35-2.914 4.899-2.158 10.95 1.873 14.981z" opacity="1" data-original="#ffcec0" class=""></path><path fill="#a34f41" fill-rule="evenodd" d="m496.627 334.661-41.582-41.582c-2.899-2.9-7.629-2.9-10.528 0l-11.295 11.295c-2.899 2.899-2.899 7.629 0 10.528l41.582 41.582c6.002 6.002 15.822 6.002 21.823 0 6.002-6.001 6.002-15.821 0-21.823z" opacity="1" data-original="#a34f41" class=""></path><path fill="#c86f5c" fill-rule="evenodd" d="m442.34 295.256-9.118 9.117c-2.9 2.9-2.9 7.629 0 10.529l41.582 41.582c5.79 5.79 15.135 5.993 21.175.611.497-4.505-.971-9.191-4.406-12.627l-48.895-48.895a7.17 7.17 0 0 0-.338-.317z" opacity="1" data-original="#c86f5c" class=""></path><circle cx="368.151" cy="233.729" r="50.994" fill="#fdb0a0" transform="rotate(-10.89 368.41 233.801)" opacity="1" data-original="#fdb0a0" class=""></circle><circle cx="373.872" cy="233.729" r="50.994" fill="#f3f3ff" transform="rotate(-26.57 374.05 233.84)" opacity="1" data-original="#f3f3ff" class=""></circle><g fill-rule="evenodd"><path fill="#fdb0a0" d="M314.307 379.635c8.053-13.551-2.148-30.717-17.9-30.122-129.448 0-129.677-105.257-250.762 50.465l64.077 67.176c28.541-28.782 62.468-30.111 99.888-27.873 20.412 1.221 44.771 4.168 67.119 3.674 31.226-.69 50.364-9.166 77.785-23.691 31.219-16.537 85.477-49.474 94.942-61.916 13.546-17.809-3.942-34.582-24.605-22.653-24.301 14.03-88.644 44.717-121.791 53.961 5.016-2.175 8.934-5.13 11.246-9.022z" opacity="1" data-original="#fdb0a0" class=""></path><path fill="#dab581" d="M314.307 379.635c8.053-13.551-2.148-30.717-17.9-30.122-129.448 0-129.677-105.257-250.762 50.465l49.461 51.853c29.904-29.492 65.357-30.848 104.422-28.511 21.518 1.287 47.198 4.394 70.757 3.873 32.919-.727 53.094-9.663 82.001-24.975 32.586-17.262 88.975-51.469 99.771-64.874-4.479-6.872-15.316-9.513-27.206-2.649-24.301 14.03-88.644 44.717-121.791 53.961 5.016-2.175 8.934-5.13 11.246-9.022z" opacity="1" data-original="#ffcec0" class=""></path><path fill="#fdb0a0" d="M314.307 379.635c6.282-10.571 1.456-23.34-8.448-28.164 7.168 7.851 2.36 18.997-8.882 23.087-6.222 2.264-14.607 3.333-23.719 3.556-23.799.582-51.18-5.001-62.008-10.636a7.79 7.79 0 0 0-7.186 13.824c12.511 6.511 43.312 12.983 69.559 12.341 10.841-.265 21.094-1.77 29.438-4.986 5.016-2.175 8.934-5.13 11.246-9.022z" opacity="1" data-original="#fdb0a0" class=""></path><path fill="#60226e" d="m11.234 409.22 29.665-29.665c5.824-5.823 15.353-5.823 21.176 0l70.526 70.526c5.823 5.823 5.823 15.353 0 21.177l-29.665 29.665z" opacity="1" data-original="#2a92fa" class=""></path><path fill="#4eb1fc" d="m11.234 409.22 29.665-29.665c5.821-5.821 15.344-5.823 21.169-.007l.007.007 55.541 55.541c5.824 5.823 5.823 15.353 0 21.176l-29.665 29.665z" opacity="1" data-original="#4eb1fc" class=""></path><path d="M491.549 351.417c-3.283 3.278-8.613 3.278-11.891 0l-41.54-41.53c-.034-.034-.12-.12-.12-.313 0-.188.087-.279.12-.308l11.279-11.284a.456.456 0 0 1 .308-.116.43.43 0 0 1 .308.116l41.535 41.534c3.278 3.278 3.278 8.618 0 11.901zm-84.664-62.039a19.264 19.264 0 0 1 23.493 2.926l2.449 2.453 2.063-2.063-2.444-2.448a19.252 19.252 0 0 1-2.94-23.488c5.909-9.944 9.042-21.362 9.042-33.003 0-35.649-29.002-64.661-64.661-64.661s-64.661 29.012-64.661 64.661 29.012 64.661 64.661 64.661c11.65 0 23.059-3.133 32.998-9.038zm-195.197 2.579c-4.174 0-7.567-3.393-7.567-7.572V83.534c0-4.169 3.393-7.567 7.567-7.567h28.727v6.97a7.001 7.001 0 0 0 6.999 6.999h92.231c3.861 0 7.004-3.138 7.004-6.999v-6.97h28.718c4.179 0 7.572 3.398 7.572 7.567v72.103a79.083 79.083 0 0 0-9.052-.54 78.15 78.15 0 0 0-37.987 9.809h-95.837c-3.866 0-6.999 3.138-6.999 6.999s3.133 6.999 6.999 6.999h77.525a78.847 78.847 0 0 0-17.029 26.452h-60.496a7.001 7.001 0 0 0 0 14.003h56.515a78.214 78.214 0 0 0-1.35 14.398c0 4.097.318 8.121.93 12.05h-56.096c-3.866 0-6.999 3.128-6.999 6.999s3.133 6.998 6.999 6.998h59.624a78.795 78.795 0 0 0 21.338 32.155H211.686zm42.724-228.32c0-.651.178-1.022.67-1.441.497-.41.897-.52 1.528-.41l17.781 3.109a6.99 6.99 0 0 0 5.707-1.538 7.024 7.024 0 0 0 2.497-5.36v-2.463c0-6.03 4.902-10.932 10.932-10.932s10.942 4.902 10.942 10.932v2.463c0 2.068.911 4.03 2.487 5.36a7.045 7.045 0 0 0 5.712 1.538l17.781-3.109c.641-.111 1.036 0 1.528.41.492.42.67.791.67 1.441v12.296h-78.234V63.637zm189.673 289.419c3.75-4.941 4.41-9.679 1.764-12.691-2.723-3.09-9.303-4.309-17.323.308-23.82 13.761-88.472 44.822-123.132 54.592-9.968 4.179-22.567 5.471-34.237 5.471-2.574 0-5.1-.072-7.543-.173-21.922-.959-46.33-6.078-58.038-12.166a7.005 7.005 0 0 1-2.979-9.443c1.783-3.427 6.015-4.772 9.442-2.979 8.58 4.468 30.443 9.65 52.182 10.599 23.117 1.012 39.606-2.93 44.137-10.551 2.449-4.131 2.449-9.081-.019-13.226-2.473-4.16-6.811-6.541-11.621-6.353h-.26c-45.198 0-75.26-12.469-99.413-22.49-41.26-17.111-64.27-26.65-125.654 45.169l62.516 62.525c24.785-11.274 52.148-10.763 76.084-9.322 6.208.366 12.648.887 19.458 1.427 15.665 1.273 31.865 2.574 47.159 2.232 30.588-.67 49.449-9.5 74.74-22.9 35.707-18.919 85.04-49.912 92.737-60.029zm-316.551 113.31-24.746 24.751-81.892-81.903 24.746-24.736c1.499-1.504 3.504-2.323 5.649-2.323s4.15.819 5.649 2.323l70.594 70.59c1.499 1.499 2.323 3.509 2.323 5.649s-.824 4.15-2.323 5.649zm373.915-136.749-41.534-41.53c-3.687-3.692-8.898-4.941-13.626-3.788l-3.952-3.952c-1.759-1.76-2.077-4.29-.8-6.43 7.201-12.108 11.009-25.999 11.009-40.16 0-35.35-23.45-65.331-55.609-75.207V83.534c0-11.886-9.669-21.57-21.57-21.57h-28.809c-.41-4.097-2.352-7.779-5.572-10.479-3.649-3.07-8.247-4.309-12.947-3.49l-10.242 1.788c-2.598-10.99-12.499-19.179-24.269-19.179s-21.661 8.189-24.264 19.179l-10.243-1.788c-4.699-.819-9.293.419-12.947 3.48-3.22 2.709-5.157 6.392-5.572 10.488h-28.814c-11.891 0-21.57 9.684-21.57 21.57v200.851c0 11.901 9.679 21.57 21.57 21.57h131.019a78.185 78.185 0 0 0 31.181 6.459c14.161 0 28.048-3.808 40.16-11.009 2.14-1.277 4.671-.959 6.44.8l3.928 3.938c-.255 1.113-.419 2.265-.419 3.432 0 3.861 1.499 7.49 4.222 10.209l4.43 4.42c-3.543.742-7.283 2.131-11.12 4.353-18.292 10.561-63.572 32.651-97.76 45.689 1.166-6.28.039-12.807-3.403-18.6-5.1-8.599-14.079-13.52-24.028-13.197-42.334-.024-69.746-11.395-93.928-21.42-22.071-9.153-41.134-17.063-63.73-11.592-22.741 5.51-46.923 24.312-78.089 60.781a21.933 21.933 0 0 0-9.298-2.058c-5.885 0-11.409 2.28-15.55 6.42L6.047 404.266a7.012 7.012 0 0 0-2.048 4.95c0 1.861.737 3.639 2.048 4.95l91.798 91.802a6.995 6.995 0 0 0 9.895 0l29.696-29.701c4.141-4.14 6.425-9.659 6.425-15.549 0-2.622-.477-5.172-1.35-7.563 18.822-7.799 39.828-8.459 66.642-6.859 6.064.362 12.436.882 19.174 1.422 16.017 1.287 32.574 2.627 48.591 2.27 33.668-.742 53.922-10.199 80.981-24.529 27.561-14.59 86.327-49.463 97.331-63.933 2.376-3.118 4.058-6.391 5.08-9.659l9.448 9.452c4.372 4.367 10.108 6.555 15.839 6.555s11.481-2.188 15.853-6.555c8.739-8.743 8.739-22.963 0-31.701zm-127.562-52.192c-24.081 0-43.67-19.589-43.67-43.669s19.589-43.67 43.67-43.67 43.669 19.589 43.669 43.67-19.589 43.669-43.669 43.669zm0-101.341c31.798 0 57.672 25.869 57.672 57.672s-25.874 57.672-57.672 57.672-57.672-25.874-57.672-57.672 25.874-57.672 57.672-57.672zm-140.822-44.619c0 3.861 3.133 7.004 6.999 7.004h106.932c3.871 0 7.004-3.143 7.004-7.004s-3.133-6.999-7.004-6.999H240.064a6.995 6.995 0 0 0-6.999 6.999zM96.146 55.674c18.012 0 32.67 14.663 32.67 32.67s-14.658 32.67-32.67 32.67-32.675-14.648-32.675-32.67 14.658-32.67 32.675-32.67zm0 79.343c-25.739 0-46.672-20.933-46.672-46.672s20.933-46.668 46.672-46.668 46.668 20.938 46.668 46.668-20.933 46.672-46.668 46.672zM25.788 81.225l9.91-1.962a6.976 6.976 0 0 0 5.109-4.179l6.835-16.47a7.005 7.005 0 0 0-.651-6.579l-5.634-8.401 10.078-10.079 8.396 5.64a7.026 7.026 0 0 0 6.579.651l16.47-6.83a7.02 7.02 0 0 0 4.184-5.119l1.952-9.91h14.253l1.952 9.91a7.014 7.014 0 0 0 4.189 5.119l16.465 6.83a6.985 6.985 0 0 0 6.584-.66l8.397-5.63 10.074 10.079-5.63 8.401a6.996 6.996 0 0 0-.651 6.579l6.83 16.47a6.987 6.987 0 0 0 5.114 4.179l9.905 1.962v14.248l-9.91 1.952a6.977 6.977 0 0 0-5.109 4.188l-6.83 16.461a6.992 6.992 0 0 0 .651 6.579l5.63 8.401-10.074 10.079-8.397-5.63a7.02 7.02 0 0 0-6.584-.66l-16.465 6.839a6.992 6.992 0 0 0-4.189 5.109l-1.952 9.915H89.016l-1.952-9.915a6.993 6.993 0 0 0-4.184-5.109l-16.47-6.839a7.012 7.012 0 0 0-6.579.66l-8.396 5.63-10.078-10.079 5.634-8.401a7.006 7.006 0 0 0 .651-6.579l-6.835-16.461a6.968 6.968 0 0 0-5.109-4.188l-9.91-1.952V81.226zm-8.353 26.872a7.01 7.01 0 0 1-5.644-6.873V75.466a7.003 7.003 0 0 1 5.644-6.868l11.877-2.342 3.962-9.539-6.748-10.06a6.993 6.993 0 0 1 .863-8.849l18.215-18.22a7.006 7.006 0 0 1 8.85-.863l10.059 6.753 9.544-3.962L76.4 9.635a7.005 7.005 0 0 1 6.869-5.649h25.758a7 7 0 0 1 6.864 5.649l2.343 11.881 9.544 3.962 10.064-6.753a7 7 0 0 1 8.845.863l18.215 18.22a7 7 0 0 1 .868 8.849l-6.748 10.06 3.957 9.539 11.881 2.342a7.008 7.008 0 0 1 5.644 6.868v25.758a7.013 7.013 0 0 1-5.644 6.873l-11.881 2.338-3.957 9.544 6.748 10.059a7 7 0 0 1-.868 8.849l-18.215 18.22a7.007 7.007 0 0 1-8.845.858l-10.064-6.748-9.544 3.957-2.343 11.881a7 7 0 0 1-6.864 5.649H83.269a7.006 7.006 0 0 1-6.869-5.649l-2.343-11.881-9.544-3.957-10.059 6.748a7.012 7.012 0 0 1-8.85-.858l-18.215-18.22a6.994 6.994 0 0 1-.863-8.849l6.748-10.059-3.962-9.544-11.877-2.338z" fill="#000000" opacity="1" data-original="#000000" class=""></path></g></g></svg>