<svg xmlns="http://www.w3.org/2000/svg" version="1.1" xmlns:xlink="http://www.w3.org/1999/xlink" width="70" height="70" x="0" y="0" viewBox="0 0 510 510" style="enable-background:new 0 0 512 512" xml:space="preserve" fill-rule="evenodd" class="hovered-paths"><g><path d="M151.478 292.013H31.81c-13.675 0-24.81-11.118-24.81-24.73V53.806c0-15.899 12.888-28.787 28.787-28.787h210.608c15.898 0 28.786 12.888 28.786 28.787V166.55a150.854 150.854 0 0 1 12.669-3.995l9.252-23.977a8.001 8.001 0 0 1 7.464-5.12h45.391a7.999 7.999 0 0 1 7.468 5.131l9.209 23.968a150.657 150.657 0 0 1 36.476 15.115l23.455-10.429a8 8 0 0 1 8.907 1.654l32.09 32.089a7.999 7.999 0 0 1 1.657 8.897l-10.391 23.459a150.394 150.394 0 0 1 15.123 36.532l23.922 9.206a8 8 0 0 1 5.127 7.467v45.391a8 8 0 0 1-5.127 7.466l-23.926 9.208c-3.423 12.768-8.526 25.017-15.123 36.475l10.395 23.469a7.999 7.999 0 0 1-1.657 8.897l-32.09 32.089a8 8 0 0 1-8.897 1.658l-23.453-10.389a150.293 150.293 0 0 1-36.49 15.118l-9.208 23.925a8 8 0 0 1-7.467 5.127h-45.391a7.999 7.999 0 0 1-7.466-5.127l-9.207-23.923c-12.805-3.423-25.06-8.527-36.522-15.127L227.902 451.2a8 8 0 0 1-8.897-1.658l-32.089-32.089a8 8 0 0 1-1.653-8.907l10.426-23.449c-6.622-11.432-11.699-23.708-15.147-36.48l-23.938-9.213a7.999 7.999 0 0 1-5.126-7.466zM80.753 41.019H35.787C28.725 41.019 23 46.744 23 53.806v213.477c0 4.82 3.968 8.73 8.81 8.73h132.765l15.964-6.144a151.755 151.755 0 0 1 15.153-36.521l-10.429-23.455a8 8 0 0 1 1.653-8.907l32.089-32.089a8 8 0 0 1 8.907-1.654s23.456 10.429 23.455 10.43a150.83 150.83 0 0 1 7.814-4.216V53.806c0-7.062-5.724-12.787-12.786-12.787H201.43v94.404a8 8 0 0 1-12.274 6.762L141.091 111.8l-48.064 30.385a8 8 0 0 1-12.274-6.762zm104.678 0H96.752v79.882l40.064-25.328a8.001 8.001 0 0 1 8.549 0l40.066 25.328zm167.755 131.147-8.725-22.708h-34.407l-8.767 22.719a8.002 8.002 0 0 1-5.614 4.903 134.72 134.72 0 0 0-39.57 16.398 8 8 0 0 1-7.447.499l-22.223-9.881-24.318 24.318 9.881 22.223a8 8 0 0 1-.499 7.447c-7.555 12.261-13.08 25.602-16.448 39.633a7.996 7.996 0 0 1-4.905 5.599l-22.666 8.724v34.405l22.666 8.723a8.002 8.002 0 0 1 4.904 5.594c3.367 13.985 8.889 27.367 16.442 39.582a8 8 0 0 1 .506 7.458l-9.881 22.223 24.324 24.324 22.227-9.846a8.002 8.002 0 0 1 7.42.493c12.26 7.512 25.598 13.084 39.628 16.408a8 8 0 0 1 5.622 4.911l8.723 22.666h34.405l8.724-22.666a8 8 0 0 1 5.616-4.91c13.977-3.322 27.351-8.842 39.56-16.391a8 8 0 0 1 7.447-.511l22.227 9.846 24.33-24.33-9.845-22.227a7.997 7.997 0 0 1 .493-7.419c7.512-12.261 13.084-25.6 16.408-39.588a8.001 8.001 0 0 1 4.91-5.617L487 326.445V292.04l-22.666-8.724a7.998 7.998 0 0 1-4.911-5.622 134.525 134.525 0 0 0-16.397-39.61 8 8 0 0 1-.503-7.437l9.845-22.227-24.324-24.324-22.222 9.881a8 8 0 0 1-7.447-.499 134.737 134.737 0 0 0-39.571-16.398 8 8 0 0 1-5.618-4.914zm-25.954 26.956c60.829 0 110.15 49.262 110.15 110.091 0 60.827-49.322 110.15-110.15 110.15s-110.091-49.322-110.091-110.15c0-60.83 49.261-110.091 110.091-110.091zm0 16c-51.989 0-94.091 42.102-94.091 94.091 0 51.99 42.101 94.15 94.091 94.15 51.992 0 94.15-42.158 94.15-94.15 0-51.991-42.159-94.091-94.15-94.091zm-45.603 58.827h-16.31c-4.415 0-8-3.585-8-8s3.585-8 8-8h16.31c3.091-7.086 10.162-12.043 18.381-12.043s15.289 4.957 18.381 12.043h70.016c4.415 0 8 3.585 8 8s-3.585 8-8 8h-70.016c-3.092 7.086-10.162 12.043-18.381 12.043s-15.29-4.957-18.381-12.043zm22.424-8a4.045 4.045 0 0 0-4.043-4.043c-2.232 0-4.044 1.811-4.044 4.043s1.812 4.043 4.044 4.043a4.045 4.045 0 0 0 4.043-4.043zm29.404 51.293h-68.138c-4.415 0-8-3.584-8-8 0-4.415 3.585-8 8-8h68.138c3.091-7.085 10.162-12.043 18.381-12.043s15.289 4.958 18.38 12.043h18.189c4.415 0 8 3.585 8 8 0 4.416-3.585 8-8 8h-18.189c-3.091 7.086-10.161 12.044-18.38 12.044s-15.29-4.958-18.381-12.044zm22.424-8a4.045 4.045 0 0 0-4.043-4.043 4.046 4.046 0 0 0-4.044 4.043 4.046 4.046 0 0 0 4.044 4.044 4.046 4.046 0 0 0 4.043-4.044zm-59.044 51.294h-31.518c-4.415 0-8-3.585-8-8 0-4.416 3.585-8 8-8h31.518c3.092-7.086 10.162-12.044 18.381-12.044s15.29 4.958 18.381 12.044h54.808c4.415 0 8 3.584 8 8 0 4.415-3.585 8-8 8h-54.808c-3.091 7.085-10.162 12.043-18.381 12.043s-15.289-4.958-18.381-12.043zm22.425-8a4.046 4.046 0 0 0-4.044-4.044 4.046 4.046 0 0 0-4.043 4.044 4.045 4.045 0 0 0 4.043 4.043 4.046 4.046 0 0 0 4.044-4.043z" fill="#d2b57f" opacity="1" data-original="#000000" class="hovered-path"></path></g></svg>