<svg xmlns="http://www.w3.org/2000/svg" version="1.1" xmlns:xlink="http://www.w3.org/1999/xlink" width="512" height="512" x="0" y="0" viewBox="0 0 512 512" style="enable-background:new 0 0 512 512" xml:space="preserve" class=""><g><path d="M313.806 305.041c0-2.206 1.794-4 4-4h17.045v-6.882c0-10.509 8.55-19.059 19.059-19.059h42.043c6.238 0 11.768 3.026 15.247 7.672v-2.389c0-24.162-19.587-43.75-43.75-43.75H159.633c-24.162 0-43.75 19.587-43.75 43.75v82.914h197.922v-58.256z" style="" fill="#dab581" data-original="#0ed290" class="" opacity="1"></path><path d="M273.605 219.878h-20.129c-5.014 0-9.852-.765-14.404-2.185v18.941l24.468 30.348 24.469-30.348v-18.94a48.324 48.324 0 0 1-14.404 2.184z" style="" fill="#a44f3e" data-original="#a44f3e" class=""></path><path d="M395.952 275.101c6.238 0 11.768 3.026 15.247 7.672v-2.389c0-22.898-17.595-41.675-40-43.579v38.296h24.753z" style="" fill="#00c285" data-original="#00c285"></path><path d="M179.856 320.103h133.949v43.195H179.856z" style="" fill="#ffe177" data-original="#ffe177" class=""></path><path d="M287.226 320.103h26.58v43.195h-26.58z" style="" fill="#ffd15b" data-original="#ffd15b" class=""></path><path d="M437.056 363.298v-58.257a5 5 0 0 0-5-5h-114.25a5 5 0 0 0-5 5v58.257h124.25z" style="" fill="#fea95c" data-original="#fea95c"></path><path d="M432.056 300.041h-20.684v27.573c0 5.523-4.477 10-10 10h-88.566v25.684h124.25v-58.257a5 5 0 0 0-5-5z" style="" fill="#fe9738" data-original="#fe9738" class=""></path><path d="m98.427 124.406-31.712 61.827c-7.745 15.1 3.22 33.048 20.191 33.048h42.118c16.971 0 27.936-17.948 20.191-33.048l-31.712-61.827c-3.984-7.77-15.09-7.77-19.076 0z" style="" fill="#cbc4cc" data-original="#cbc4cc"></path><path d="m149.216 186.233-31.712-61.827c-3.985-7.77-15.091-7.77-19.077 0l-5.643 11.002 30.093 58.672c4.519 8.81 2.661 18.583-3.034 25.201h9.181c16.972 0 27.937-17.948 20.192-33.048z" style="" fill="#b5adb6" data-original="#b5adb6" class=""></path><path d="M104.094 286.346h16.299c.328 0 .652.018.973.048v-27.182c0-2.96-2.4-5.36-5.36-5.36h-16.08a5.36 5.36 0 0 0-5.36 5.36v29.713a18.9 18.9 0 0 1 9.528-2.579z" style="" fill="#ffe177" data-original="#ffe177" class=""></path><path d="M116.005 253.851h-7.84v32.495h12.227c.328 0 .652.018.973.048v-27.182a5.36 5.36 0 0 0-5.36-5.361z" style="" fill="#ffd15b" data-original="#ffd15b" class=""></path><path d="M91.833 363.298h37.528c1.51-1.821 2.459-4.108 2.531-6.635.128-4.501-2.415-8.413-6.154-10.295 3.649-1.837 6.158-5.607 6.158-9.971s-2.509-8.134-6.158-9.971c3.649-1.837 6.158-5.607 6.158-9.971s-2.509-8.134-6.158-9.971c3.739-1.882 6.282-5.794 6.154-10.295-.173-6.096-5.4-10.843-11.499-10.843h-16.299c-11.078 0-20.059 8.98-20.059 20.058v42.043c0 6.455 3.062 12.182 7.798 15.851z" style="" fill="#c96e59" data-original="#c96e59" class=""></path><path d="M131.896 336.397c0-4.364-2.509-8.134-6.158-9.971 3.649-1.837 6.158-5.607 6.158-9.971s-2.509-8.134-6.158-9.971c3.739-1.882 6.282-5.794 6.154-10.295-.173-6.096-5.4-10.843-11.499-10.843h-10.3v50.178c-.173 6.096-5.4 10.843-11.499 10.843H84.035v1.08c0 6.455 3.061 12.181 7.797 15.85h37.528c1.51-1.821 2.459-4.108 2.531-6.635.128-4.501-2.415-8.413-6.154-10.295 3.649-1.836 6.159-5.606 6.159-9.97z" style="" fill="#bb5d4c" data-original="#bb5d4c" class=""></path><path d="M12.5 362.298h119.25v62.257H7.5v-57.257a5 5 0 0 1 5-5z" style="" fill="#fed2a4" data-original="#fed2a4"></path><path d="M131.75 362.298H256v62.257H131.75z" style="" fill="#fea95c" data-original="#fea95c"></path><path d="M256 362.298h124.25v62.257H256z" style="" fill="#fed2a4" data-original="#fed2a4"></path><path d="M380.25 362.298h-25.684v26.573c0 5.523-4.477 10-10 10H256v25.684h124.25v-62.257z" style="" fill="#fdb97e" data-original="#fdb97e" class=""></path><path d="M380.25 362.298H499.5a5 5 0 0 1 5 5v57.257H380.25v-62.257z" style="" fill="#fea95c" data-original="#fea95c"></path><path d="M499.5 362.298h-20.684v26.573c0 5.523-4.477 10-10 10H380.25v25.684H504.5v-57.257a5 5 0 0 0-5-5zM256 362.298h-25.684v26.573c0 5.523-4.477 10-10 10H131.75v25.684H256v-62.257z" style="" fill="#fe9738" data-original="#fe9738" class=""></path><path d="M69.625 424.555h124.25v62.257H69.625z" style="" fill="#fed2a4" data-original="#fed2a4"></path><path d="M69.625 424.555H7.5v57.257a5 5 0 0 0 5 5h57.125v-62.257zM193.875 424.555h124.25v62.257h-124.25z" style="" fill="#dab581" data-original="#fe860a" class="" opacity="1"></path><path d="M318.125 424.555h124.25v62.257h-124.25z" style="" fill="#fed2a4" data-original="#fed2a4"></path><path d="M504.5 424.555h-62.125v62.257H499.5a5 5 0 0 0 5-5v-57.257z" style="" fill="#dab581" data-original="#fe860a" class="" opacity="1"></path><path d="M478.816 424.555v26.573c0 5.523-4.477 10-10 10h-26.441v25.684H499.5a5 5 0 0 0 5-5v-57.257h-25.684z" style="" fill="#f46700" data-original="#f46700" class=""></path><path d="M384.902 321.961c4.364 0 8.134-2.509 9.971-6.158 1.882 3.739 5.794 6.282 10.295 6.154 6.096-.173 10.843-5.4 10.843-11.499V294.16c0-11.078-8.98-20.059-20.058-20.059H353.91c-11.078 0-20.058 8.98-20.058 20.059v16.299c0 6.099 4.747 11.325 10.843 11.499 4.501.128 8.413-2.415 10.295-6.154 1.837 3.649 5.607 6.158 9.971 6.158s8.134-2.509 9.971-6.158c1.836 3.648 5.606 6.157 9.97 6.157z" style="" fill="#c96e59" data-original="#c96e59" class=""></path><path d="M396.008 274.104c0 .019.003.037.003.056v16.299c0 6.099-4.747 11.325-10.843 11.498l-51.317.004v8.498c0 6.099 4.747 11.325 10.843 11.498 4.501.128 8.413-2.415 10.295-6.154 1.837 3.649 5.607 6.158 9.971 6.158s8.134-2.509 9.971-6.158c1.837 3.649 5.607 6.158 9.971 6.158s8.134-2.509 9.971-6.158c1.882 3.739 5.794 6.282 10.295 6.154 6.097-.173 10.843-5.4 10.843-11.498V294.16c0-11.06-8.951-20.026-20.003-20.056z" style="" fill="#bb5d4c" data-original="#bb5d4c" class=""></path><path d="M131.75 362.298h-25.684v26.573c0 5.523-4.477 10-10 10H7.5v25.684h124.25v-62.257zM442.375 424.555h-25.684v26.573c0 5.523-4.477 10-10 10h-88.566v25.684h124.25v-62.257zM193.875 424.555h-25.684v26.573c0 5.523-4.477 10-10 10H69.625v25.684h124.25v-62.257z" style="" fill="#fdb97e" data-original="#fdb97e" class=""></path><path d="M318.125 424.555h-25.684v26.573c0 5.523-4.477 10-10 10h-88.566v25.684h124.25v-62.257zM43.941 424.555v26.573c0 5.523-4.477 10-10 10H7.5v20.684a5 5 0 0 0 5 5h57.125v-62.257H43.941z" style="" fill="#f46700" data-original="#f46700" class=""></path><path d="M204.876 124.423h-15.048c-10.105 2.355-17.636 11.413-17.636 22.235 0 12.613 10.225 22.837 22.837 22.837h9.846v-45.072z" style="" fill="#bb5d4c" data-original="#bb5d4c" class=""></path><path d="M337.254 124.423h-15.048v45.072h9.846c12.613 0 22.837-10.225 22.837-22.837.001-10.823-7.53-19.88-17.635-22.235z" style="" fill="#a44f3e" data-original="#a44f3e" class=""></path><path d="M204.001 124.423v46.98c0 27.325 22.151 49.475 49.475 49.475h20.129c27.325 0 49.475-22.151 49.475-49.475v-46.98H204.001z" style="" fill="#c96e59" data-original="#c96e59" class=""></path><path d="M303.081 124.423v43.886c0 17.988-14.582 32.57-32.57 32.57h-56.77c9.016 12.135 23.457 20 39.736 20h20.129c27.325 0 49.475-22.151 49.475-49.476v-46.98h-20z" style="" fill="#bb5d4c" data-original="#bb5d4c" class=""></path><path d="M343.042 125.297v-14.913c0-44.503-36.077-80.58-80.58-80.58s-80.58 36.077-80.58 80.58v14.913h161.16z" style="" fill="#ffd15b" data-original="#ffd15b" class=""></path><path d="M290.411 34.79c11.906 14.045 19.1 32.209 19.1 52.063 0 8.236-6.677 14.913-14.913 14.913H182.346a81.495 81.495 0 0 0-.464 8.618v14.913h161.16v-14.913c0-34.676-21.906-64.23-52.631-75.594z" style="" fill="#ffc344" data-original="#ffc344" class=""></path><path d="M274.064 83.431h-23.205a5.469 5.469 0 0 1-5.469-5.469V30.657a5.469 5.469 0 0 1 5.469-5.469h23.205a5.469 5.469 0 0 1 5.469 5.469v47.305a5.468 5.468 0 0 1-5.469 5.469z" style="" fill="#fff0ad" data-original="#fff0ad" class=""></path><path d="M274.064 25.189h-9.823v38.528a5.469 5.469 0 0 1-5.469 5.469H245.39v8.777a5.469 5.469 0 0 0 5.469 5.469h23.205a5.469 5.469 0 0 0 5.469-5.469V30.657a5.469 5.469 0 0 0-5.469-5.468z" style="" fill="#ffe177" data-original="#ffe177" class=""></path><path d="M239.073 218.905v17.729l24.468 30.348 24.468-30.348v-17.729M411.199 281.146v-.762c0-24.162-19.587-43.75-43.75-43.75h-32.018M239.073 236.634h-79.44c-16.469 0-30.806 9.104-38.27 22.55l.003.027M300.431 236.634h-12.422M312.806 320.103h-132.95v42.195M333.851 300.041h-16.045a5 5 0 0 0-5 5v57.257h124.25v-57.257a5 5 0 0 0-5-5h-16.045M179.856 320.103v-83.469M347.226 274.101v-37.467M98.427 124.406l-31.712 61.827c-7.745 15.1 3.22 33.048 20.191 33.048h42.118c16.971 0 27.936-17.948 20.191-33.048l-31.712-61.827c-3.984-7.77-15.09-7.77-19.076 0zM107.966 195.137v58.714" style="stroke-width:15;stroke-linecap:round;stroke-linejoin:round;stroke-miterlimit:10;" fill="none" stroke="#000000" stroke-width="15" stroke-linecap="round" stroke-linejoin="round" stroke-miterlimit="10" data-original="#000000" class=""></path><path d="M120.393 285.346c.327 0 .651.02.973.047v-26.182c0-2.96-2.4-5.36-5.36-5.36h-16.08a5.36 5.36 0 0 0-5.36 5.36v28.54" style="stroke-width:15;stroke-linecap:round;stroke-linejoin:round;stroke-miterlimit:10;" fill="none" stroke="#000000" stroke-width="15" stroke-linecap="round" stroke-linejoin="round" stroke-miterlimit="10" data-original="#000000" class=""></path><path d="M90.65 362.298h39.442a10.743 10.743 0 0 0 1.8-5.635c.128-4.501-2.415-8.413-6.154-10.295 3.649-1.837 6.158-5.607 6.158-9.971s-2.509-8.134-6.158-9.971c3.649-1.837 6.158-5.607 6.158-9.971s-2.509-8.134-6.158-9.971c3.739-1.882 6.282-5.794 6.154-10.295-.173-6.096-5.4-10.843-11.499-10.843h-16.299c-11.078 0-20.059 8.98-20.059 20.058v42.043c0 5.898 2.561 11.183 6.615 14.851zM187.01 125.297c-8.651 3.249-14.818 11.574-14.818 21.36v0c0 12.613 10.225 22.837 22.837 22.837h8.972M323.081 169.495h8.972c12.613 0 22.837-10.225 22.837-22.837v0c0-9.786-6.167-18.111-14.817-21.36M204.001 125.297v46.106c0 27.325 22.151 49.476 49.475 49.476h20.129c27.325 0 49.475-22.151 49.475-49.476v-46.106H204.001zM242.051 148.041v7.862M285.032 148.041v7.862" style="stroke-width:15;stroke-linecap:round;stroke-linejoin:round;stroke-miterlimit:10;" fill="none" stroke="#000000" stroke-width="15" stroke-linecap="round" stroke-linejoin="round" stroke-miterlimit="10" data-original="#000000" class=""></path><path d="M245.262 182.181c10.103 10.103 26.454 10.103 36.558 0M354.89 125.297H172.192M245.391 31.633a80.15 80.15 0 0 0-25.206 10.156M195.094 66.196c-8.344 12.688-13.213 27.865-13.213 44.188v14.913h161.16v-14.913c0-38.644-27.208-70.918-63.509-78.751" style="stroke-width:15;stroke-linecap:round;stroke-linejoin:round;stroke-miterlimit:10;" fill="none" stroke="#000000" stroke-width="15" stroke-linecap="round" stroke-linejoin="round" stroke-miterlimit="10" data-original="#000000" class=""></path><path d="M274.064 83.431h-23.205a5.469 5.469 0 0 1-5.469-5.469V30.657a5.469 5.469 0 0 1 5.469-5.469h23.205a5.469 5.469 0 0 1 5.469 5.469v47.305a5.468 5.468 0 0 1-5.469 5.469zM384.902 321.961c4.364 0 8.134-2.509 9.971-6.158 1.882 3.739 5.794 6.282 10.295 6.154 6.096-.173 10.843-5.4 10.843-11.499V294.16c0-11.078-8.98-20.059-20.058-20.059H353.91c-11.078 0-20.058 8.98-20.058 20.059v16.299c0 6.099 4.747 11.325 10.843 11.499 4.501.128 8.413-2.415 10.295-6.154 1.837 3.649 5.607 6.158 9.971 6.158s8.134-2.509 9.971-6.158c1.836 3.648 5.606 6.157 9.97 6.157zM31.13 362.298H12.5a5 5 0 0 0-5 5v57.257h124.25v-62.257H66.13M131.75 362.298H256v62.257H131.75zM256 362.298h124.25v62.257H256zM380.25 362.298H499.5a5 5 0 0 1 5 5v57.257H380.25v-62.257zM69.625 424.555h124.25v62.257H69.625zM69.625 424.555H7.5v57.257a5 5 0 0 0 5 5h57.125v-62.257zM193.875 424.555h124.25v62.257h-124.25zM318.125 424.555h124.25v62.257h-124.25zM504.5 424.555h-62.125v62.257H499.5a5 5 0 0 0 5-5v-57.257z" style="stroke-width:15;stroke-linecap:round;stroke-linejoin:round;stroke-miterlimit:10;" fill="none" stroke="#000000" stroke-width="15" stroke-linecap="round" stroke-linejoin="round" stroke-miterlimit="10" data-original="#000000" class=""></path></g></svg>